<svg xmlns="http://www.w3.org/2000/svg" xmlns:xlink="http://www.w3.org/1999/xlink" width="260" height="399" version="1.1" viewBox="0 0 260 399" style="background:#fff"><title>hero-iphone_2</title><desc>Created with Sketch.</desc><g id="hero-iphone_2" fill="none" fill-rule="evenodd" stroke="none" stroke-linecap="round" stroke-width="1"><path id="Path-11" stroke="#F06823" stroke-width="3" d="M1,398 L259,398"/><g id="Group-32" fill="#FFF" stroke="#F06823" stroke-linejoin="round" stroke-width="2" transform="translate(82.000000, 306.000000)"><path id="Combined-Shape" d="M39.4045746,56.8217184 C37.2900168,54.5042891 36,51.418297 36,48.030303 C36,40.8338654 41.8202983,35 49,35 C56.1797017,35 62,40.8338654 62,48.030303 C62,51.3327614 60.7742983,54.3482744 58.7539981,56.644734 C56.2823404,61.4823378 55.0465116,65.1765173 55.0465116,67.7272727 C55.0465116,71.6666667 52.7768136,75 49.139882,75 C45.5029504,75 43.2648386,72.5757576 43.2648386,67.7272727 C43.2648386,64.6436636 41.9780839,61.0084789 39.4045746,56.8217184 Z"/><path id="Path-13" d="M44,64 L54.7040056,64"/><path id="Path-13" d="M48,63 L48,52"/><circle id="Oval-3" cx="49.5" cy="53.5" r="3.5"/><path id="Path-14" d="M72.1167445,46 L96.65,46"/><path id="Path-15" d="M66,34 L83,17"/><path id="Path-14" d="M1.34111996,46 L27,46" transform="translate(13.500000, 46.000000) scale(-1, 1) translate(-13.500000, -46.000000)"/><path id="Path-15" d="M13,35 L29,19" transform="translate(21.000000, 27.000000) scale(-1, 1) translate(-21.000000, -27.000000)"/><path id="Path-16" d="M49.5,24 L49.5,0"/><path id="Path-3" d="M32.6666667,15.65 L39.3333333,27.35"/><path id="Path-3" d="M57,15 L64,27" transform="translate(60.500000, 21.000000) scale(-1, 1) translate(-60.500000, -21.000000)"/></g></g></svg>