<svg xmlns="http://www.w3.org/2000/svg" xmlns:xlink="http://www.w3.org/1999/xlink" width="628" height="248" version="1.1" viewBox="0 0 628 248"><title>hero-tablet_2</title><desc>Created with Sketch.</desc><defs><rect id="path-1" width="56.947" height="13.742" x="0" y="0" rx="5"/><rect id="path-2" width="57" height="8" x="0" y="0" rx="4"/><rect id="path-3" width="56.947" height="20.613" x="0" y="0" rx="5"/><rect id="path-4" width="56.947" height="13.742" x="0" y="0" rx="5"/><rect id="path-5" width="56.947" height="13.742" x="0" y="0" rx="5"/><rect id="path-6" width="56.947" height="18.65" x="14" y="42" rx="5"/><rect id="path-7" width="56.947" height="21.65" x="14" y="40" rx="5"/><rect id="path-8" width="57" height="12" x="0" y="1" rx="5"/><rect id="path-9" width="67" height="14" x="0" y="0" rx="5"/><rect id="path-10" width="57" height="12" x="0" y="1" rx="5"/><rect id="path-11" width="67" height="14" x="0" y="0" rx="5"/><rect id="path-12" width="56.947" height="13.742" x="0" y="0" rx="5"/><rect id="path-13" width="57" height="8" x="0" y="0" rx="4"/><rect id="path-14" width="56.947" height="20.613" x="0" y="0" rx="5"/><rect id="path-15" width="56.947" height="13.742" x="0" y="0" rx="5"/><rect id="path-16" width="56.947" height="18.65" x="14" y="42" rx="5"/><rect id="path-17" width="56.947" height="21.65" x="14" y="40" rx="5"/><rect id="path-18" width="57" height="12" x="0" y="1" rx="5"/><rect id="path-19" width="67" height="14" x="0" y="0" rx="5"/><rect id="path-20" width="56.947" height="20.613" x="0" y="0" rx="5"/><rect id="path-21" width="56.947" height="13.742" x="0" y="0" rx="5"/><rect id="path-22" width="50.953" height="13.742" x="0" y="0" rx="5"/><rect id="path-23" width="57" height="14" x="0" y="0" rx="5"/><rect id="path-24" width="56.947" height="13.742" x="0" y="0" rx="5"/><rect id="path-25" width="56.947" height="8.834" x="0" y="0" rx="4.417"/><rect id="path-26" width="56.947" height="18.65" x="2" y="36" rx="5"/><rect id="path-27" width="56.947" height="18.65" x="2" y="36" rx="5"/><rect id="path-28" width="56.947" height="18.65" x="6" y="85" rx="5"/><rect id="path-29" width="56.947" height="21.65" x="6" y="83" rx="5"/><rect id="path-30" width="57" height="12" x="0" y="1" rx="5"/><rect id="path-31" width="67" height="14" x="0" y="0" rx="5"/><circle id="path-32" cx="5.51" cy="6.279" r="5.51"/><circle id="path-33" cx="10.465" cy="6.279" r="5.51"/><circle id="path-34" cx="15.421" cy="6.279" r="5.51"/><circle id="path-35" cx="20.376" cy="6.279" r="5.51"/><circle id="path-36" cx="5.51" cy="6.279" r="5.51"/><circle id="path-37" cx="10.465" cy="6.279" r="5.51"/><circle id="path-38" cx="15.421" cy="6.279" r="5.51"/><circle id="path-39" cx="20.376" cy="6.279" r="5.51"/><circle id="path-40" cx="10.332" cy="31.279" r="5.51"/><circle id="path-41" cx="10.332" cy="26.653" r="5.51"/><circle id="path-42" cx="10.332" cy="21.368" r="5.51"/><circle id="path-43" cx="5.51" cy="6.279" r="5.51"/><circle id="path-44" cx="10.465" cy="6.279" r="5.51"/><circle id="path-45" cx="15.421" cy="6.279" r="5.51"/><circle id="path-46" cx="20.376" cy="6.279" r="5.51"/><circle id="path-47" cx="5.51" cy="6.279" r="5.51"/><circle id="path-48" cx="10.465" cy="6.279" r="5.51"/><circle id="path-49" cx="15.421" cy="6.279" r="5.51"/><circle id="path-50" cx="20.376" cy="6.279" r="5.51"/><circle id="path-51" cx="10.332" cy="31.279" r="5.51"/><circle id="path-52" cx="10.332" cy="26.653" r="5.51"/><circle id="path-53" cx="10.332" cy="21.368" r="5.51"/><path id="path-54" d="M72.6629425,45.961499 C72.7137927,46.5857357 72.7397163,47.217024 72.7397163,47.8543672 L72.7397163,81.8034656 C72.7397163,94.5060148 62.4422655,104.803466 49.7397163,104.803466 L23,104.803466 C10.2974508,104.803466 1.55561363e-15,94.5060148 0,81.8034656 L0,47.8543672 C-7.80520247e-17,47.217024 0.0259235571,46.5857357 0.0767737663,45.961499 C0.025854456,45.1739777 9.80192702e-17,44.3796283 0,43.5792402 L0,36.3698581 C-2.459889e-15,16.2833401 16.2833401,3.6898335e-15 36.3698581,0 C56.4563762,-3.6898335e-15 72.7397163,16.2833401 72.7397163,36.3698581 L72.7397163,43.5792402 C72.7397163,44.3796283 72.7138618,45.1739777 72.6629425,45.961499 Z"/><circle id="path-56" cx="5.51" cy="5.51" r="5.51"/><circle id="path-57" cx="5.51" cy="11.02" r="5.51"/><circle id="path-58" cx="5.51" cy="5.51" r="5.51"/><circle id="path-59" cx="5.51" cy="5.51" r="5.51"/><circle id="path-60" cx="6.607" cy="6.607" r="6.607"/><rect id="path-61" width="74.341" height="57.23" x="34.358" y="39.154" rx="19"/><circle id="path-62" cx="6.607" cy="6.607" r="6.607"/><circle id="path-63" cx="46.252" cy="6.607" r="6.607"/><path id="path-64" d="M49.2318625,153.964746 C49.0100865,155.242893 48.8944899,156.557456 48.8944899,157.899018 L48.8944899,192.141163 C48.8944899,201.733834 54.804696,209.946103 63.1823732,213.335234 L57.3582902,213.335234 C44.655741,213.335234 34.3582902,203.037783 34.3582902,190.335234 L34.3582902,156.386135 C34.3582902,155.632674 34.3945204,154.887674 34.4653336,154.152784 C34.3944011,153.214675 34.3582902,152.266842 34.3582902,151.310575 L34.3582902,145.702059 C34.3582902,125.173475 50.9999964,108.531768 71.5285814,108.531768 C92.0571664,108.531768 108.698873,125.173475 108.698873,145.702059 L108.698873,151.310575 C108.698873,152.266842 108.662762,153.214675 108.591829,154.152784 C108.662642,154.887674 108.698873,155.632674 108.698873,156.386135 L108.698873,190.335234 C108.698873,203.037783 98.4014218,213.335234 85.6988726,213.335234 L80.3135598,213.335234 C88.691237,209.946103 94.6014431,201.733834 94.6014431,192.141163 L94.6014431,157.899018 C94.6014431,156.557456 94.4858466,155.242893 94.2640705,153.964746 C94.4858466,152.6866 94.6014431,151.372037 94.6014431,150.030475 L94.6014431,146.582181 C94.6014431,133.960554 84.3695931,123.728704 71.7479665,123.728704 C59.1263399,123.728704 48.8944899,133.960554 48.8944899,146.582181 L48.8944899,150.030475 C48.8944899,151.372037 49.0100865,152.6866 49.2318625,153.964746 Z"/><rect id="path-65" width="57" height="6" x="0" y="21" rx="3"/><rect id="path-66" width="57" height="6" x="54" y="21" rx="3"/></defs><g id="hero-tablet_2" fill="none" fill-rule="evenodd" stroke="none" stroke-width="1"><g id="Group-26" transform="translate(2.000000, 144.000000)"><g id="Group-23" transform="translate(11.000000, 28.000000)"><g id="Rectangle-2" transform="translate(28.473658, 6.871052) scale(-1, 1) translate(-28.473658, -6.871052)"><use fill="#FFF" fill-rule="evenodd" xlink:href="#path-1"/><rect width="54.947" height="11.742" x="1" y="1" stroke="#866E8B" stroke-width="2" rx="5"/></g></g><g id="Group-23" transform="translate(14.000000, 0.000000)"><g id="Rectangle-2" transform="translate(28.500000, 4.000000) scale(-1, 1) translate(-28.500000, -4.000000)"><use fill="#FFF" fill-rule="evenodd" xlink:href="#path-2"/><rect width="55" height="6" x="1" y="1" stroke="#866E8B" stroke-width="2" rx="3"/></g></g><g id="Group-23" transform="translate(14.000000, 60.000000)"><g id="Rectangle-2" transform="translate(28.473658, 10.306579) scale(-1, 1) translate(-28.473658, -10.306579)"><use fill="#FFF" fill-rule="evenodd" xlink:href="#path-3"/><rect width="54.947" height="18.613" x="1" y="1" stroke="#866E8B" stroke-width="2" rx="5"/></g></g><g id="Group-23" transform="translate(15.000000, 78.000000)"><g id="Rectangle-2" transform="translate(28.473658, 6.871052) scale(-1, 1) translate(-28.473658, -6.871052)"><use fill="#FFF" fill-rule="evenodd" xlink:href="#path-4"/><rect width="54.947" height="11.742" x="1" y="1" stroke="#866E8B" stroke-width="2" rx="5"/></g></g><g id="Group-23" transform="translate(10.000000, 18.000000)"><g id="Rectangle-2" transform="translate(28.473658, 6.871052) scale(-1, 1) translate(-28.473658, -6.871052)"><use fill="#FFF" fill-rule="evenodd" xlink:href="#path-5"/><rect width="54.947" height="11.742" x="1" y="1" stroke="#866E8B" stroke-width="2" rx="5"/></g></g><g id="Rectangle-2" transform="translate(42.473658, 51.325000) scale(-1, 1) translate(-42.473658, -51.325000)"><use fill="#FFF" fill-rule="evenodd" xlink:href="#path-6"/><rect width="54.947" height="16.65" x="15" y="43" stroke="#866E8B" stroke-width="2" rx="5"/></g><g id="Rectangle-2" transform="translate(42.473658, 50.825000) scale(-1, 1) translate(-42.473658, -50.825000)"><use fill="#FFF" fill-rule="evenodd" xlink:href="#path-7"/><rect width="54.947" height="19.65" x="15" y="41" stroke="#866E8B" stroke-width="2" rx="5"/></g><g id="Group-19" stroke="#87708D" stroke-width="2" transform="translate(42.500000, 51.000000) scale(-1, 1) rotate(-270.000000) translate(-42.500000, -51.000000) translate(37.500000, 22.500000)"><g id="Group-24"><g id="Group-17" transform="translate(-0.000000, 0.000000)"><path id="Path-18" d="M0.474560969,0.701140777 L0.474560969,56.301282"/></g><g id="Group-17" transform="translate(3.000000, 0.000000)"><path id="Path-18" d="M0.474560969,0.701140777 L0.474560969,56.301282"/></g><g id="Group-17" transform="translate(6.000000, 0.000000)"><path id="Path-18" d="M0.474560969,0 L0.474560969,55.6001412"/></g><g id="Group-17" transform="translate(9.000000, 0.000000)"><path id="Path-18" d="M0.474560969,0.701140777 L0.474560969,56.301282"/></g></g></g><g id="Group-25" transform="translate(9.000000, 90.000000)"><g id="Rectangle-2" transform="translate(28.500000, 7.000000) scale(-1, 1) translate(-28.500000, -7.000000)"><use fill="#FFF" fill-rule="evenodd" xlink:href="#path-8"/><rect width="55" height="10" x="1" y="2" stroke="#866E8B" stroke-width="2" rx="5"/></g><g id="Rectangle-2" transform="translate(33.500000, 7.000000) scale(-1, 1) translate(-33.500000, -7.000000)"><use fill="#FFF" fill-rule="evenodd" xlink:href="#path-9"/><rect width="65" height="12" x="1" y="1" stroke="#866E8B" stroke-width="2" rx="5"/></g></g><g id="Group-25" transform="translate(0.000000, 6.000000)"><g id="Rectangle-2" transform="translate(28.500000, 7.000000) scale(-1, 1) translate(-28.500000, -7.000000)"><use fill="#FFF" fill-rule="evenodd" xlink:href="#path-10"/><rect width="55" height="10" x="1" y="2" stroke="#866E8B" stroke-width="2" rx="5"/></g><g id="Rectangle-2" transform="translate(33.500000, 7.000000) scale(-1, 1) translate(-33.500000, -7.000000)"><use fill="#FFF" fill-rule="evenodd" xlink:href="#path-11"/><rect width="65" height="12" x="1" y="1" stroke="#866E8B" stroke-width="2" rx="5"/></g></g></g><g id="Group-26" transform="translate(480.000000, 186.000000)"><g id="Group-23" transform="translate(11.000000, 28.000000)"><g id="Rectangle-2" transform="translate(28.473658, 6.871052) scale(-1, 1) translate(-28.473658, -6.871052)"><use fill="#FFF" fill-rule="evenodd" xlink:href="#path-12"/><rect width="54.947" height="11.742" x="1" y="1" stroke="#86708B" stroke-width="2" rx="5"/></g></g><g id="Group-23" transform="translate(14.000000, 0.000000)"><g id="Rectangle-2" transform="translate(28.500000, 4.000000) scale(-1, 1) translate(-28.500000, -4.000000)"><use fill="#FFF" fill-rule="evenodd" xlink:href="#path-13"/><rect width="55" height="6" x="1" y="1" stroke="#86708B" stroke-width="2" rx="3"/></g></g><g id="Group-23" transform="translate(14.000000, 60.000000)"><g id="Rectangle-2" transform="translate(28.473658, 10.306579) scale(-1, 1) translate(-28.473658, -10.306579)"><use fill="#FFF" fill-rule="evenodd" xlink:href="#path-14"/><rect width="54.947" height="18.613" x="1" y="1" stroke="#86708B" stroke-width="2" rx="5"/></g></g><g id="Group-23" transform="translate(10.000000, 18.000000)"><g id="Rectangle-2" transform="translate(28.473658, 6.871052) scale(-1, 1) translate(-28.473658, -6.871052)"><use fill="#FFF" fill-rule="evenodd" xlink:href="#path-15"/><rect width="54.947" height="11.742" x="1" y="1" stroke="#86708B" stroke-width="2" rx="5"/></g></g><g id="Rectangle-2" transform="translate(42.473658, 51.325000) scale(-1, 1) translate(-42.473658, -51.325000)"><use fill="#FFF" fill-rule="evenodd" xlink:href="#path-16"/><rect width="54.947" height="16.65" x="15" y="43" stroke="#86708B" stroke-width="2" rx="5"/></g><g id="Rectangle-2" transform="translate(42.473658, 50.825000) scale(-1, 1) translate(-42.473658, -50.825000)"><use fill="#FFF" fill-rule="evenodd" xlink:href="#path-17"/><rect width="54.947" height="19.65" x="15" y="41" stroke="#86708B" stroke-width="2" rx="5"/></g><g id="Group-19" stroke="#86708B" stroke-width="2" transform="translate(42.500000, 51.000000) scale(-1, 1) rotate(-270.000000) translate(-42.500000, -51.000000) translate(37.500000, 22.500000)"><g id="Group-24"><g id="Group-17" transform="translate(-0.000000, 0.000000)"><path id="Path-18" d="M0.474560969,0.701140777 L0.474560969,56.301282"/></g><g id="Group-17" transform="translate(3.000000, 0.000000)"><path id="Path-18" d="M0.474560969,0.701140777 L0.474560969,56.301282"/></g><g id="Group-17" transform="translate(6.000000, 0.000000)"><path id="Path-18" d="M0.474560969,0 L0.474560969,55.6001412"/></g><g id="Group-17" transform="translate(9.000000, 0.000000)"><path id="Path-18" d="M0.474560969,0.701140777 L0.474560969,56.301282"/></g></g></g><g id="Group-25" transform="translate(0.000000, 6.000000)"><g id="Rectangle-2" transform="translate(28.500000, 7.000000) scale(-1, 1) translate(-28.500000, -7.000000)"><use fill="#FFF" fill-rule="evenodd" xlink:href="#path-18"/><rect width="55" height="10" x="1" y="2" stroke="#86708B" stroke-width="2" rx="5"/></g><g id="Rectangle-2" transform="translate(33.500000, 7.000000) scale(-1, 1) translate(-33.500000, -7.000000)"><use fill="#FFF" fill-rule="evenodd" xlink:href="#path-19"/><rect width="65" height="12" x="1" y="1" stroke="#86708B" stroke-width="2" rx="5"/></g></g></g><g id="Group-26" transform="translate(589.500000, 198.000000) rotate(-180.000000) translate(-589.500000, -198.000000) translate(556.000000, 136.000000)"><g id="Group-23" transform="translate(2.000000, 53.000000)"><g id="Rectangle-2" transform="translate(28.473658, 10.306579) scale(-1, 1) translate(-28.473658, -10.306579)"><use fill="#FFF" fill-rule="evenodd" xlink:href="#path-20"/><rect width="54.947" height="18.613" x="1" y="1" stroke="#F06823" stroke-width="2" rx="5"/></g></g><g id="Group-23" transform="translate(3.000000, 71.000000)"><g id="Rectangle-2" transform="translate(28.473658, 6.871052) scale(-1, 1) translate(-28.473658, -6.871052)"><use fill="#FFF" fill-rule="evenodd" xlink:href="#path-21"/><rect width="54.947" height="11.742" x="1" y="1" stroke="#F06823" stroke-width="2" rx="5"/></g></g><g id="Group-23" transform="translate(11.000000, 110.000000)"><g id="Rectangle-2" transform="translate(25.476431, 6.871052) scale(-1, 1) translate(-25.476431, -6.871052)"><use fill="#FFF" fill-rule="evenodd" xlink:href="#path-22"/><rect width="48.953" height="11.742" x="1" y="1" stroke="#F06823" stroke-width="2" rx="5"/></g></g><g id="Group-23" transform="translate(6.000000, 0.000000)"><g id="Rectangle-2" transform="translate(28.500000, 7.000000) scale(-1, 1) translate(-28.500000, -7.000000)"><use fill="#FFF" fill-rule="evenodd" xlink:href="#path-23"/><rect width="55" height="12" x="1" y="1" stroke="#F06823" stroke-width="2" rx="5"/></g></g><g id="Group-23" transform="translate(8.000000, 24.000000)"><g id="Rectangle-2" transform="translate(28.473658, 6.871052) scale(-1, 1) translate(-28.473658, -6.871052)"><use fill="#FFF" fill-rule="evenodd" xlink:href="#path-24"/><rect width="54.947" height="11.742" x="1" y="1" stroke="#F06823" stroke-width="2" rx="5"/></g></g><g id="Group-23" transform="translate(0.000000, 103.000000)"><g id="Rectangle-2" transform="translate(28.473658, 4.417105) scale(-1, 1) translate(-28.473658, -4.417105)"><use fill="#FFF" fill-rule="evenodd" xlink:href="#path-25"/><rect width="54.947" height="6.834" x="1" y="1" stroke="#F06823" stroke-width="2" rx="3.417"/></g></g><g id="Rectangle-2" transform="translate(30.473658, 45.325000) scale(-1, 1) translate(-30.473658, -45.325000)"><use fill="#FFF" fill-rule="evenodd" xlink:href="#path-26"/><rect width="54.947" height="16.65" x="3" y="37" stroke="#F06823" stroke-width="2" rx="5"/></g><g id="Rectangle-2" transform="translate(30.473658, 45.325000) scale(-1, 1) translate(-30.473658, -45.325000)"><use fill="#FFF" fill-rule="evenodd" xlink:href="#path-27"/><rect width="54.947" height="16.65" x="3" y="37" stroke="#F06823" stroke-width="2" rx="5"/></g><g id="Group-19" stroke="#F06823" stroke-width="2" transform="translate(30.500000, 45.500000) scale(-1, 1) rotate(-270.000000) translate(-30.500000, -45.500000) translate(25.500000, 16.500000)"><g id="Group-24"><g id="Group-17" transform="translate(-0.000000, 0.000000)"><path id="Path-18" d="M0.474560969,0.701140777 L0.474560969,56.301282"/></g><g id="Group-17" transform="translate(3.000000, 0.000000)"><path id="Path-18" d="M0.474560969,0.701140777 L0.474560969,56.301282"/></g><g id="Group-17" transform="translate(6.000000, 2.000000)"><path id="Path-18" d="M0.474560969,0 L0.474560969,55.6001412"/></g><g id="Group-17" transform="translate(9.000000, 0.000000)"><path id="Path-18" d="M0.474560969,0.701140777 L0.474560969,56.301282"/></g></g></g><g id="Rectangle-2" transform="translate(34.473658, 94.325000) scale(-1, 1) translate(-34.473658, -94.325000)"><use fill="#FFF" fill-rule="evenodd" xlink:href="#path-28"/><rect width="54.947" height="16.65" x="7" y="86" stroke="#F06823" stroke-width="2" rx="5"/></g><g id="Rectangle-2" transform="translate(34.473658, 93.825000) scale(-1, 1) translate(-34.473658, -93.825000)"><use fill="#FFF" fill-rule="evenodd" xlink:href="#path-29"/><rect width="54.947" height="19.65" x="7" y="84" stroke="#F06823" stroke-width="2" rx="5"/></g><g id="Group-19" stroke="#F06823" stroke-width="2" transform="translate(34.500000, 94.000000) scale(-1, 1) rotate(-270.000000) translate(-34.500000, -94.000000) translate(29.500000, 65.500000)"><g id="Group-24"><g id="Group-17" transform="translate(-0.000000, 0.000000)"><path id="Path-18" d="M0.474560969,0.701140777 L0.474560969,56.301282"/></g><g id="Group-17" transform="translate(3.000000, 0.000000)"><path id="Path-18" d="M0.474560969,0.701140777 L0.474560969,56.301282"/></g><g id="Group-17" transform="translate(6.000000, 0.000000)"><path id="Path-18" d="M0.474560969,0 L0.474560969,55.6001412"/></g><g id="Group-17" transform="translate(9.000000, 0.000000)"><path id="Path-18" d="M0.474560969,0.701140777 L0.474560969,56.301282"/></g></g></g><g id="Group-25" transform="translate(0.000000, 12.000000)"><g id="Rectangle-2" transform="translate(28.500000, 7.000000) scale(-1, 1) translate(-28.500000, -7.000000)"><use fill="#FFF" fill-rule="evenodd" xlink:href="#path-30"/><rect width="55" height="10" x="1" y="2" stroke="#F06823" stroke-width="2" rx="5"/></g><g id="Rectangle-2" transform="translate(33.500000, 7.000000) scale(-1, 1) translate(-33.500000, -7.000000)"><use fill="#FFF" fill-rule="evenodd" xlink:href="#path-31"/><rect width="65" height="12" x="1" y="1" stroke="#F06823" stroke-width="2" rx="5"/></g></g></g><path id="Path-11" stroke="#F06823" stroke-linecap="round" stroke-width="3" d="M3,247 L625,247"/><g id="Group-3" transform="translate(15.000000, 11.000000)"><g id="Group-12" transform="translate(135.000000, 237.000000) scale(-1, 1) rotate(-161.000000) translate(-135.000000, -237.000000) translate(121.000000, 187.500000)"><g id="Group-2" transform="translate(4.022326, 21.558007)"><g id="Group-6" transform="translate(8.072158, 63.196974) rotate(-87.000000) translate(-8.072158, -63.196974) translate(-4.927842, 57.196974)"><g id="Oval-15"><use fill="#FFF" fill-rule="evenodd" xlink:href="#path-32"/><circle cx="5.51" cy="6.279" r="4.51" stroke="#F06823" stroke-width="2"/></g><g id="Oval-15"><use fill="#FFF" fill-rule="evenodd" xlink:href="#path-33"/><circle cx="10.465" cy="6.279" r="4.51" stroke="#F06823" stroke-width="2"/></g><g id="Oval-15"><use fill="#FFF" fill-rule="evenodd" xlink:href="#path-34"/><circle cx="15.421" cy="6.279" r="4.51" stroke="#F06823" stroke-width="2"/></g><g id="Oval-15"><use fill="#FFF" fill-rule="evenodd" xlink:href="#path-35"/><circle cx="20.376" cy="6.279" r="4.51" stroke="#F06823" stroke-width="2"/></g></g><g id="Group-6" transform="translate(9.169660, 43.914054) rotate(-87.000000) translate(-9.169660, -43.914054) translate(-3.830340, 37.914054)"><g id="Oval-15"><use fill="#FFF" fill-rule="evenodd" xlink:href="#path-36"/><circle cx="5.51" cy="6.279" r="4.51" stroke="#F06823" stroke-width="2"/></g><g id="Oval-15"><use fill="#FFF" fill-rule="evenodd" xlink:href="#path-37"/><circle cx="10.465" cy="6.279" r="4.51" stroke="#F06823" stroke-width="2"/></g><g id="Oval-15"><use fill="#FFF" fill-rule="evenodd" xlink:href="#path-38"/><circle cx="15.421" cy="6.279" r="4.51" stroke="#F06823" stroke-width="2"/></g><g id="Oval-15"><use fill="#FFF" fill-rule="evenodd" xlink:href="#path-39"/><circle cx="20.376" cy="6.279" r="4.51" stroke="#F06823" stroke-width="2"/></g></g><g id="Oval-15"><use fill="#FFF" fill-rule="evenodd" xlink:href="#path-40"/><circle cx="10.332" cy="31.279" r="4.51" stroke="#F06823" stroke-width="2"/></g><g id="Oval-15"><use fill="#FFF" fill-rule="evenodd" xlink:href="#path-41"/><circle cx="10.332" cy="26.653" r="4.51" stroke="#F06823" stroke-width="2"/></g><g id="Oval-15"><use fill="#FFF" fill-rule="evenodd" xlink:href="#path-42"/><circle cx="10.332" cy="21.368" r="4.51" stroke="#F06823" stroke-width="2"/></g></g></g><g id="Group-12" transform="translate(30.000000, 237.000000) rotate(-161.000000) translate(-30.000000, -237.000000) translate(16.000000, 187.500000)"><g id="Group-2" transform="translate(4.022326, 21.558007)"><g id="Group-6" transform="translate(8.072158, 63.196974) rotate(-87.000000) translate(-8.072158, -63.196974) translate(-4.927842, 57.196974)"><g id="Oval-15"><use fill="#FFF" fill-rule="evenodd" xlink:href="#path-43"/><circle cx="5.51" cy="6.279" r="4.51" stroke="#F06823" stroke-width="2"/></g><g id="Oval-15"><use fill="#FFF" fill-rule="evenodd" xlink:href="#path-44"/><circle cx="10.465" cy="6.279" r="4.51" stroke="#F06823" stroke-width="2"/></g><g id="Oval-15"><use fill="#FFF" fill-rule="evenodd" xlink:href="#path-45"/><circle cx="15.421" cy="6.279" r="4.51" stroke="#F06823" stroke-width="2"/></g><g id="Oval-15"><use fill="#FFF" fill-rule="evenodd" xlink:href="#path-46"/><circle cx="20.376" cy="6.279" r="4.51" stroke="#F06823" stroke-width="2"/></g></g><g id="Group-6" transform="translate(9.169660, 43.914054) rotate(-87.000000) translate(-9.169660, -43.914054) translate(-3.830340, 37.914054)"><g id="Oval-15"><use fill="#FFF" fill-rule="evenodd" xlink:href="#path-47"/><circle cx="5.51" cy="6.279" r="4.51" stroke="#F06823" stroke-width="2"/></g><g id="Oval-15"><use fill="#FFF" fill-rule="evenodd" xlink:href="#path-48"/><circle cx="10.465" cy="6.279" r="4.51" stroke="#F06823" stroke-width="2"/></g><g id="Oval-15"><use fill="#FFF" fill-rule="evenodd" xlink:href="#path-49"/><circle cx="15.421" cy="6.279" r="4.51" stroke="#F06823" stroke-width="2"/></g><g id="Oval-15"><use fill="#FFF" fill-rule="evenodd" xlink:href="#path-50"/><circle cx="20.376" cy="6.279" r="4.51" stroke="#F06823" stroke-width="2"/></g></g><g id="Oval-15"><use fill="#FFF" fill-rule="evenodd" xlink:href="#path-51"/><circle cx="10.332" cy="31.279" r="4.51" stroke="#F06823" stroke-width="2"/></g><g id="Oval-15"><use fill="#FFF" fill-rule="evenodd" xlink:href="#path-52"/><circle cx="10.332" cy="26.653" r="4.51" stroke="#F06823" stroke-width="2"/></g><g id="Oval-15"><use fill="#FFF" fill-rule="evenodd" xlink:href="#path-53"/><circle cx="10.332" cy="21.368" r="4.51" stroke="#F06823" stroke-width="2"/></g></g></g><g id="Group-6" transform="translate(10.000000, 63.000000)"><path id="Combined-Shape" fill="#FFF" stroke="#F06823" stroke-width="2" d="M60.8298687,52.9241561 C61.9783059,52.8021831 63.464582,52.7531332 64.9526658,52.7531332 C65.988999,52.7531332 68.8037269,52.7768634 71.9081488,52.8160006 C75.0125707,52.7768634 77.8272986,52.7531332 78.8636318,52.7531332 C80.3517156,52.7531332 81.8379917,52.8021831 82.986429,52.9241561 C83.2948508,52.0896129 84.6874082,48.2347483 84.7239931,46.5701599 C84.9052585,38.3227083 84.9052585,43.2782309 84.9052585,31.2709008 C84.9052585,11.6518388 91.0843705,-2.27373675e-13 97.2291602,-2.27373675e-13 C97.7482871,-2.27373675e-13 98.2749221,0.083906112 98.8037022,0.252852202 C103.266692,1.6826577 108.357283,9.79927537 104.384317,27.8897113 C100.932182,43.6085991 97.8122385,49.2164119 96.6373961,52.1981717 C95.6993021,54.5790619 95.9495767,52.0784827 95.0314513,56.4234587 C99.1083139,59.3669758 89.813912,63.3241695 90.6612472,67.5058687 L71.9081488,58.7336318 C67.0934926,60.9858092 60.8424598,63.9098882 53.1550504,67.5058687 C54.0023857,63.3241695 44.7079837,59.3669758 48.7848463,56.4234587 C47.866721,52.0784827 48.1169955,54.5790619 47.1789015,52.1981717 C46.0040591,49.2164119 42.8841153,43.6085991 39.4319809,27.8897113 C35.4590144,9.79927537 40.5496054,1.6826577 45.0125954,0.252852202 C45.5413755,0.083906112 46.0680105,-2.27373675e-13 46.5871374,-2.27373675e-13 C52.7319271,-2.27373675e-13 58.9110392,11.6518388 58.9110392,31.2709008 C58.9110392,43.2782309 58.9110392,38.3227083 59.0923045,46.5701599 C59.1288895,48.2347483 60.5214469,52.0896129 60.8298687,52.9241561 Z" transform="translate(71.908149, 33.752934) rotate(-360.000000) translate(-71.908149, -33.752934)"/><g id="Group-15" transform="translate(71.200025, 162.353241) scale(-1, 1) translate(-71.200025, -162.353241) translate(34.700025, 109.853241)"><mask id="mask-55" fill="#fff"><use xlink:href="#path-54"/></mask><use id="Mask" fill="#FFF" xlink:href="#path-54"/><g id="Path-10" stroke="#F06823" stroke-width="2" mask="url(#mask-55)"><g><path d="M58.1447988,84.0866511 L142.23145,0" transform="translate(-66.073635, 0.000000)"/><path d="M65.4128987,84.0866511 L149.49955,0" transform="translate(-66.073635, 0.000000)"/><path d="M72.6809985,84.0866511 L156.76765,0" transform="translate(-66.073635, 0.000000)"/><path d="M79.9490984,84.0866511 L164.035749,0" transform="translate(-66.073635, 0.000000)"/><path d="M87.2171982,84.0866511 L171.303849,0" transform="translate(-66.073635, 0.000000)"/><path d="M94.4852981,84.0866511 L178.571949,0" transform="translate(-66.073635, 0.000000)"/><path d="M101.753398,84.0866511 L185.840049,0" transform="translate(-66.073635, 0.000000)"/><path d="M109.021498,84.0866511 L193.108149,0" transform="translate(-66.073635, 0.000000)"/><path d="M0,84.0866511 L84.0866511,0" transform="translate(-66.073635, 0.000000)"/><path d="M7.26809985,84.0866511 L91.3547509,0" transform="translate(-66.073635, 0.000000)"/><path d="M14.5361997,84.0866511 L98.6228508,0" transform="translate(-66.073635, 0.000000)"/><path d="M21.8042996,84.0866511 L105.890951,0" transform="translate(-66.073635, 0.000000)"/><path d="M29.0723994,84.0866511 L113.15905,0" transform="translate(-66.073635, 0.000000)"/><path d="M36.3404993,84.0866511 L120.42715,0" transform="translate(-66.073635, 0.000000)"/><path d="M43.6085991,84.0866511 L127.69525,0" transform="translate(-66.073635, 0.000000)"/><path d="M50.876699,84.0866511 L134.96335,0" transform="translate(-66.073635, 0.000000)"/><path d="M116.289598,84.0866511 L200.376249,0" transform="translate(-66.073635, 0.000000)"/><path d="M123.557697,84.0866511 L207.644349,0" transform="translate(-66.073635, 0.000000)"/><path d="M130.825797,84.0866511 L214.912448,0" transform="translate(-66.073635, 0.000000)"/><path d="M138.093897,84.0866511 L222.180548,0" transform="translate(-66.073635, 0.000000)"/><path d="M145.361997,84.0866511 L229.448648,0" transform="translate(-66.073635, 0.000000)"/><path d="M152.630097,84.0866511 L236.716748,0" transform="translate(-66.073635, 0.000000)"/><path d="M159.898197,84.0866511 L243.984848,0" transform="translate(-66.073635, 0.000000)"/></g></g></g><g id="Group-5" transform="translate(71.093349, 102.191887) scale(-1, 1) translate(-71.093349, -102.191887) translate(65.093349, 90.691887)"><g id="Group-21" transform="translate(0.000000, 5.509857)"><g id="Oval-15"><use fill="#FFF" fill-rule="evenodd" xlink:href="#path-56"/><circle cx="5.51" cy="5.51" r="4.51" stroke="#F06823" stroke-width="2"/></g><g id="Oval-15"><use fill="#FFF" fill-rule="evenodd" xlink:href="#path-57"/><circle cx="5.51" cy="11.02" r="4.51" stroke="#F06823" stroke-width="2"/></g></g><g id="Group-21" transform="translate(0.000000, 5.509857)"><g id="Oval-15"><use fill="#FFF" fill-rule="evenodd" xlink:href="#path-58"/><circle cx="5.51" cy="5.51" r="4.51" stroke="#F06823" stroke-width="2"/></g></g><g id="Oval-15"><use fill="#FFF" fill-rule="evenodd" xlink:href="#path-59"/><circle cx="5.51" cy="5.51" r="4.51" stroke="#F06823" stroke-width="2"/></g></g><g id="Group-18" transform="translate(71.627626, 36.689416) scale(-1, 1) translate(-71.627626, -36.689416) translate(64.627626, 20.689416)"><path id="Path-19" stroke="#F06823" stroke-width="2" d="M6,6.6073635 L6,31.0902979"/><g id="Oval-15"><use fill="#FFF" fill-rule="evenodd" xlink:href="#path-60"/><circle cx="6.607" cy="6.607" r="5.607" stroke="#F06823" stroke-width="2"/></g></g><g id="Rectangle-2" transform="translate(71.528581, 67.769676) scale(-1, 1) translate(-71.528581, -67.769676)"><use fill="#FFF" fill-rule="evenodd" xlink:href="#path-61"/><rect width="72.341" height="55.23" x="35.358" y="40.154" stroke="#F06823" stroke-width="2" rx="19"/></g><g id="Group-20" transform="translate(71.949716, 53.351388) scale(-1, 1) translate(-71.949716, -53.351388) translate(45.449716, 46.351388)"><g id="Oval-15"><use fill="#FFF" fill-rule="evenodd" xlink:href="#path-62"/><circle cx="6.607" cy="6.607" r="5.607" stroke="#F06823" stroke-width="2"/></g><g id="Oval-15"><use fill="#FFF" fill-rule="evenodd" xlink:href="#path-63"/><circle cx="46.252" cy="6.607" r="5.607" stroke="#F06823" stroke-width="2"/></g></g><path id="Combined-Shape" stroke="#F06823" stroke-width="3" d="M107.098745,154.296656 L107.086375,154.168286 L107.096099,154.039689 C107.164497,153.135103 107.198873,152.224988 107.198873,151.310575 L107.198873,145.702059 C107.198873,126.001902 91.2287393,110.031768 71.5285814,110.031768 C51.8284236,110.031768 35.8582902,126.001902 35.8582902,145.702059 L35.8582902,151.310575 C35.8582902,152.224988 35.8926663,153.135103 35.961064,154.039689 L35.9707875,154.168286 L35.9584179,154.296656 C35.8918194,154.987807 35.8582902,155.684807 35.8582902,156.386135 L35.8582902,190.335234 C35.8582902,202.209356 45.4841681,211.835234 57.3582902,211.835234 L85.6988726,211.835234 C97.5729947,211.835234 107.198873,202.209356 107.198873,190.335234 L107.198873,156.386135 C107.198873,155.684807 107.165343,154.987807 107.098745,154.296656 Z" transform="translate(71.528581, 160.933501) scale(-1, 1) translate(-71.528581, -160.933501)"/><g id="Combined-Shape" transform="translate(71.528581, 160.933501) scale(-1, 1) translate(-71.528581, -160.933501)"><use fill="#FFF" fill-rule="evenodd" xlink:href="#path-64"/><path stroke="#F06823" stroke-width="2" d="M48.2175623,153.964746 C48.0030836,152.672803 47.8944899,151.358323 47.8944899,150.030475 L47.8944899,146.582181 C47.8944899,133.40827 58.5740552,122.728704 71.7479665,122.728704 C84.9218779,122.728704 95.6014431,133.40827 95.6014431,146.582181 L95.6014431,150.030475 C95.6014431,151.358323 95.4928494,152.672803 95.2783707,153.964746 C95.4928494,155.25669 95.6014431,156.57117 95.6014431,157.899018 L95.6014431,192.141163 C95.6014431,200.496828 91.2651881,208.046834 84.4535117,212.335234 L85.6988726,212.335234 C97.8491371,212.335234 107.698873,202.485498 107.698873,190.335234 L107.698873,156.386135 C107.698873,155.668787 107.664574,154.955783 107.59644,154.248699 L107.594676,154.077387 C107.664022,153.160261 107.698873,152.237571 107.698873,151.310575 L107.698873,145.702059 C107.698873,125.725759 91.5048816,109.531768 71.5285814,109.531768 C51.5522812,109.531768 35.3582902,125.725759 35.3582902,145.702059 L35.3582902,151.310575 C35.3582902,152.237571 35.3931413,153.160261 35.4624872,154.077387 L35.4607231,154.248699 C35.3925892,154.955783 35.3582902,155.668787 35.3582902,156.386135 L35.3582902,190.335234 C35.3582902,202.485498 45.2080257,212.335234 57.3582902,212.335234 L59.0424213,212.335234 C52.230745,208.046834 47.8944899,200.496828 47.8944899,192.141163 L47.8944899,157.899018 C47.8944899,156.57117 48.0030836,155.25669 48.2175623,153.964746 Z"/></g><g id="Group" stroke="#F06823" stroke-width="2" transform="translate(65.000000, 66.000000)"><g id="Group-19" transform="translate(6.268100, 5.500000) scale(-1, 1) translate(-6.268100, -5.500000) translate(5.268100, 0.000000)"><g id="Group-17"><path id="Path-18" d="M1,0.330368175 L1,10.9021498"/></g></g><path id="Rectangle-4" d="M0,0 L13.214727,0 L13.214727,7.90214978 C13.214727,9.55900403 11.8715813,10.9021498 10.214727,10.9021498 L3,10.9021498 C1.34314575,10.9021498 1.38278643e-15,9.55900403 4.4408921e-16,7.90214978 L0,0 Z"/></g><rect id="Path" width="65" height="73" x="40" y="156" fill="#FFF"/><path id="Rectangle-9" stroke="#F06823" stroke-width="2" d="M66,66 L78,66 C80.209139,66 82,67.790861 82,70 L82,73.598468 C82,77.794986 78.59805,81.1969361 74.401532,81.1969361 L69.598468,81.1969361 C65.40195,81.1969361 62,77.794986 62,73.598468 L62,70 C62,67.790861 63.790861,66 66,66 Z"/><g id="Group-22" stroke="#F06823" stroke-width="2" transform="translate(42.000000, 53.000000)"><path id="Rectangle-9" d="M4,0 L18,0 C20.209139,-4.05812251e-16 22,1.790861 22,4 L22,5 C22,7.76142375 19.7614237,10 17,10 L5,10 C2.23857625,10 3.38176876e-16,7.76142375 0,5 L0,4 C-2.705415e-16,1.790861 1.790861,4.05812251e-16 4,0 Z"/><path id="Rectangle-9" d="M43,0 L57,0 C59.209139,-4.05812251e-16 61,1.790861 61,4 L61,5 C61,7.76142375 58.7614237,10 56,10 L44,10 C41.2385763,10 39,7.76142375 39,5 L39,4 C39,1.790861 40.790861,4.05812251e-16 43,0 Z"/><path id="Path-2" d="M22,1.5 L40,1.5"/></g></g><g id="Group-31" transform="translate(26.000000, 210.000000)"><g id="Rectangle-2" transform="translate(28.500000, 24.000000) scale(-1, 1) translate(-28.500000, -24.000000)"><use fill="#FFF" fill-rule="evenodd" xlink:href="#path-65"/><rect width="55" height="4" x="1" y="22" stroke="#F06823" stroke-width="2" rx="2"/></g><g id="Rectangle-2" transform="translate(82.500000, 24.000000) scale(-1, 1) translate(-82.500000, -24.000000)"><use fill="#FFF" fill-rule="evenodd" xlink:href="#path-66"/><rect width="55" height="4" x="55" y="22" stroke="#F06823" stroke-width="2" rx="2"/></g><path id="Path-8" fill="#FFF" stroke="#F06823" stroke-linecap="round" stroke-linejoin="round" stroke-width="2" d="M51.9508197,21.4807621 C47.3169399,19.6474288 43.1666667,18.7307621 39.5,18.7307621 C34,18.7307621 28.5409836,19.4807621 18.442623,21.4807621 C11.7103825,22.8140954 5.89617486,21.8974288 1,18.7307621 L7.42622951,5.98076211 C11.0983607,9.31409545 16.3005464,9.31409545 23.0327869,5.98076211 C33.1311475,0.980762114 40.0163934,-1.51923789 46.9016393,0.980762114 C53.7868852,3.48076211 57,10.4807621 57,15.9807621 C57,19.6474288 55.3169399,21.4807621 51.9508197,21.4807621 Z"/><path id="Path-8" fill="#FFF" stroke="#F06823" stroke-linecap="round" stroke-linejoin="round" stroke-width="2" d="M105.95082,21.4807621 C103.743169,19.6474288 99.4262295,18.7307621 93,18.7307621 C83.3606557,18.7307621 82.5409836,19.4807621 72.442623,21.4807621 C65.7103825,22.8140954 59.8961749,21.8974288 55,18.7307621 L61.4262295,5.98076211 C65.0983607,9.31409545 70.3005464,9.31409545 77.0327869,5.98076211 C87.1311475,0.980762114 94.0163934,-1.51923789 100.901639,0.980762114 C107.786885,3.48076211 111,10.4807621 111,15.9807621 C111,19.6474288 109.31694,21.4807621 105.95082,21.4807621 Z" transform="translate(83.000000, 11.036677) scale(-1, 1) translate(-83.000000, -11.036677)"/></g><g id="Group-32" fill="#FFF" stroke="#F06823" stroke-linecap="round" stroke-linejoin="round" stroke-width="2" transform="translate(46.000000, 0.000000)"><path id="Combined-Shape" d="M29.4879583,42.3662888 C27.9427046,40.6282168 27,38.3137228 27,35.7727273 C27,30.375399 31.2532949,26 36.5,26 C41.7467051,26 46,30.375399 46,35.7727273 C46,38.249571 45.1042949,40.5112058 43.6279217,42.2335505 C41.8217103,45.8617533 40.9186047,48.632388 40.9186047,50.5454545 C40.9186047,53.5 39.2599792,56 36.6022215,56 C33.9444637,56 32.3089205,54.1818182 32.3089205,50.5454545 C32.3089205,48.2327477 31.3685998,45.5063592 29.4879583,42.3662888 Z"/><path id="Path-13" d="M33,47.5 L40.7847314,47.5"/><path id="Path-13" d="M36,47 L36,39"/><circle id="Oval-3" cx="36.5" cy="39.5" r="2.5"/><path id="Path-14" d="M53.8272182,34.5 L72,34.5"/><path id="Path-15" d="M49,25.5 L62,13"/><path id="Path-14" d="M0.993422191,34.5 L20,34.5" transform="translate(10.000000, 34.500000) scale(-1, 1) translate(-10.000000, -34.500000)"/><path id="Path-15" d="M10,26 L22,14" transform="translate(16.000000, 20.000000) scale(-1, 1) translate(-16.000000, -20.000000)"/><path id="Path-16" d="M36.5,18 L36.5,0"/><path id="Path-3" d="M24.5,11.5 L29.5,20.5"/><path id="Path-3" d="M42.5,11.5 L47.5,20.5" transform="translate(45.000000, 16.000000) scale(-1, 1) translate(-45.000000, -16.000000)"/></g></g></g></svg>