<svg xmlns="http://www.w3.org/2000/svg" xmlns:xlink="http://www.w3.org/1999/xlink" width="984" height="303" version="1.1" viewBox="0 0 984 303"><title>hero_2</title><desc>Created with Sketch.</desc><defs><rect id="path-1" width="71.933" height="16.649" x="0" y="0" rx="5"/><rect id="path-2" width="72" height="9.692" x="0" y="0" rx="4.846"/><rect id="path-3" width="71.933" height="24.974" x="0" y="0" rx="5"/><rect id="path-4" width="71.933" height="16.649" x="0" y="0" rx="5"/><rect id="path-5" width="71.933" height="16.649" x="0" y="0" rx="5"/><rect id="path-6" width="71.933" height="22.595" x="17.684" y="83.885" rx="5"/><rect id="path-7" width="71.933" height="26.23" x="17.684" y="81.462" rx="5"/><rect id="path-8" width="71.933" height="26.23" x="9.684" y="9.462" rx="5"/><rect id="path-9" width="84.632" height="16.962" x="0" y="0" rx="5"/><rect id="path-10" width="72" height="14.538" x="0" y="1.212" rx="5"/><rect id="path-11" width="84.632" height="16.962" x="0" y="0" rx="5"/><rect id="path-12" width="56.163" height="11.341" x="0" y=".945" rx="5"/><rect id="path-13" width="66.016" height="13.231" x="0" y="0" rx="5"/><rect id="path-14" width="71.933" height="16.649" x="0" y="0" rx="5"/><rect id="path-15" width="72" height="9.692" x="0" y="0" rx="4.846"/><rect id="path-16" width="71.933" height="24.974" x="0" y="0" rx="5"/><rect id="path-17" width="71.933" height="16.649" x="0" y="0" rx="5"/><rect id="path-18" width="71.933" height="22.595" x="17.684" y="83.885" rx="5"/><rect id="path-19" width="71.933" height="26.23" x="17.684" y="81.462" rx="5"/><rect id="path-20" width="71.933" height="26.23" x="9.684" y="9.462" rx="5"/><rect id="path-21" width="72" height="14.538" x="0" y="1.212" rx="5"/><rect id="path-22" width="84.632" height="16.962" x="0" y="0" rx="5"/><rect id="path-23" width="56.163" height="11.341" x="0" y=".945" rx="5"/><rect id="path-24" width="66.016" height="13.231" x="0" y="0" rx="5"/><ellipse id="path-25" cx="7.332" cy="7.989" rx="7.332" ry="7.011"/><ellipse id="path-26" cx="13.926" cy="7.989" rx="7.332" ry="7.011"/><ellipse id="path-27" cx="20.52" cy="7.989" rx="7.332" ry="7.011"/><ellipse id="path-28" cx="27.114" cy="7.989" rx="7.332" ry="7.011"/><ellipse id="path-29" cx="7.332" cy="7.989" rx="7.332" ry="7.011"/><ellipse id="path-30" cx="13.926" cy="7.989" rx="7.332" ry="7.011"/><ellipse id="path-31" cx="20.52" cy="7.989" rx="7.332" ry="7.011"/><ellipse id="path-32" cx="27.114" cy="7.989" rx="7.332" ry="7.011"/><ellipse id="path-33" cx="11.637" cy="39.8" rx="7.332" ry="7.011"/><ellipse id="path-34" cx="11.637" cy="33.915" rx="7.332" ry="7.011"/><ellipse id="path-35" cx="11.637" cy="27.189" rx="7.332" ry="7.011"/><ellipse id="path-36" cx="7.281" cy="7.991" rx="7.281" ry="7.013"/><ellipse id="path-37" cx="13.829" cy="7.991" rx="7.281" ry="7.013"/><ellipse id="path-38" cx="20.378" cy="7.991" rx="7.281" ry="7.013"/><ellipse id="path-39" cx="26.926" cy="7.991" rx="7.281" ry="7.013"/><ellipse id="path-40" cx="7.281" cy="7.991" rx="7.281" ry="7.013"/><ellipse id="path-41" cx="13.829" cy="7.991" rx="7.281" ry="7.013"/><ellipse id="path-42" cx="20.378" cy="7.991" rx="7.281" ry="7.013"/><ellipse id="path-43" cx="26.926" cy="7.991" rx="7.281" ry="7.013"/><ellipse id="path-44" cx="11.653" cy="39.809" rx="7.281" ry="7.013"/><ellipse id="path-45" cx="11.653" cy="33.923" rx="7.281" ry="7.013"/><ellipse id="path-46" cx="11.653" cy="27.195" rx="7.281" ry="7.013"/><path id="path-47" d="M96.3452347,54.440075 C96.3466634,54.5457041 96.34738,54.6515051 96.34738,54.7574736 L96.34738,110.91181 C96.34738,123.614359 86.0499293,133.91181 73.34738,133.91181 L23,133.91181 C10.2974508,133.91181 1.55561363e-15,123.614359 0,110.91181 L0,54.7574736 C-1.29773913e-17,54.6515051 0.000716639996,54.5457041 0.0021453379,54.440075 C0.000716166947,54.2871014 1.42296299e-14,54.1339573 1.42108547e-14,53.980646 L7.10542736e-15,48.17369 C3.84718176e-15,21.5680957 21.5680957,4.88736839e-15 48.17369,0 C74.7792844,-4.88736839e-15 96.34738,21.5680957 96.34738,48.17369 L96.34738,53.980646 C96.34738,54.1339573 96.3466639,54.2871014 96.3452347,54.440075 Z"/><ellipse id="path-49" cx="7.298" cy="7.04" rx="7.298" ry="7.04"/><ellipse id="path-50" cx="7.298" cy="14.08" rx="7.298" ry="7.04"/><ellipse id="path-51" cx="7.298" cy="7.04" rx="7.298" ry="7.04"/><ellipse id="path-52" cx="7.298" cy="7.04" rx="7.298" ry="7.04"/><ellipse id="path-53" cx="8.752" cy="8.443" rx="8.752" ry="8.443"/><rect id="path-54" width="98.468" height="73.126" x="45.509" y="50.029" rx="19"/><ellipse id="path-55" cx="8.752" cy="8.443" rx="8.752" ry="8.443"/><ellipse id="path-56" cx="61.262" cy="8.443" rx="8.752" ry="8.443"/><path id="path-57" d="M64.8759424,193.261556 C64.8013674,194.015394 64.7631891,194.779931 64.7631891,195.553386 L64.7631891,251.707722 C64.7631891,260.960602 70.2270778,268.937323 78.1044,272.587429 L68.509268,272.587429 C55.8067188,272.587429 45.509268,262.289978 45.509268,249.587429 L45.509268,193.433093 C45.509268,193.183598 45.5132406,192.935031 45.5211259,192.687451 C45.5132342,192.324605 45.509268,191.960792 45.509268,191.596052 L45.509268,187.909523 C45.509268,160.718389 67.5520374,138.675619 94.7431715,138.675619 C121.934306,138.675619 143.977075,160.718389 143.977075,187.909523 L143.977075,191.596052 C143.977075,191.960792 143.973109,192.324605 143.965217,192.687451 C143.973102,192.935031 143.977075,193.183598 143.977075,193.433093 L143.977075,249.587429 C143.977075,262.289978 133.679624,272.587429 120.977075,272.587429 L111.963116,272.587429 C119.840438,268.937323 125.304327,260.960602 125.304327,251.707722 L125.304327,195.553386 C125.304327,194.779931 125.266149,194.015394 125.191574,193.261556 C125.266226,192.394485 125.304327,191.516967 125.304327,190.63055 L125.304327,188.363955 C125.304327,171.645981 111.751732,158.093386 95.033758,158.093386 C78.3157844,158.093386 64.7631891,171.645981 64.7631891,188.363955 L64.7631891,190.63055 C64.7631891,191.516967 64.8012896,192.394485 64.8759424,193.261556 Z"/><rect id="path-58" width="75.961" height="7.715" x="0" y="27.002" rx="3.857"/><rect id="path-59" width="75.961" height="7.715" x="71.963" y="27.002" rx="3.857"/><rect id="path-60" width="80.925" height="19.028" x="0" y="0" rx="5"/><rect id="path-61" width="81" height="11.077" x="0" y="0" rx="5"/><rect id="path-62" width="80.925" height="28.541" x="0" y="0" rx="5"/><rect id="path-63" width="80.925" height="19.028" x="0" y="0" rx="5"/><rect id="path-64" width="80.925" height="25.823" x="19.895" y="58.154" rx="5"/><rect id="path-65" width="80.925" height="29.977" x="19.895" y="55.385" rx="5"/><rect id="path-66" width="81" height="16.615" x="0" y="1.385" rx="5"/><rect id="path-67" width="95.211" height="19.385" x="0" y="0" rx="5"/><rect id="path-68" width="80.746" height="28.592" x="0" y="0" rx="5"/><rect id="path-69" width="80.746" height="19.062" x="0" y="0" rx="5"/><rect id="path-70" width="72.247" height="19.062" x="0" y="0" rx="5"/><rect id="path-71" width="80.821" height="19.419" x="0" y="0" rx="5"/><rect id="path-72" width="80.746" height="19.062" x="0" y="0" rx="5"/><rect id="path-73" width="80.746" height="12.254" x="0" y="0" rx="5"/><rect id="path-74" width="80.746" height="25.869" x="2.836" y="49.935" rx="5"/><rect id="path-75" width="80.746" height="25.869" x="2.836" y="49.935" rx="5"/><rect id="path-76" width="80.746" height="25.869" x="8.507" y="117.903" rx="5"/><rect id="path-77" width="80.746" height="30.031" x="8.507" y="115.129" rx="5"/><rect id="path-78" width="80.821" height="16.645" x="0" y="1.387" rx="5"/><rect id="path-79" width="95" height="19.419" x="0" y="0" rx="5"/></defs><g id="hero_2" fill="none" fill-rule="evenodd" stroke="none" stroke-width="1"><g id="Group-26" transform="translate(0.000000, 160.000000)"><g id="Group-23" transform="translate(13.894737, 66.923077)"><g id="Rectangle-2" transform="translate(35.966726, 8.324544) scale(-1, 1) translate(-35.966726, -8.324544)"><use fill="#FFF" fill-rule="evenodd" xlink:href="#path-1"/><rect width="68.933" height="13.649" x="1.5" y="1.5" stroke="#866E8B" stroke-width="3" rx="5"/></g></g><g id="Group-23" transform="translate(17.684211, 33.000000)"><g id="Rectangle-2" transform="translate(36.000000, 4.846154) scale(-1, 1) translate(-36.000000, -4.846154)"><use fill="#FFF" fill-rule="evenodd" xlink:href="#path-2"/><rect width="69" height="6.692" x="1.5" y="1.5" stroke="#866E8B" stroke-width="3" rx="3.346"/></g></g><g id="Group-23" transform="translate(17.684211, 103.692308)"><g id="Rectangle-2" transform="translate(35.966726, 12.486817) scale(-1, 1) translate(-35.966726, -12.486817)"><use fill="#FFF" fill-rule="evenodd" xlink:href="#path-3"/><rect width="68.933" height="21.974" x="1.5" y="1.5" stroke="#866E8B" stroke-width="3" rx="5"/></g></g><g id="Group-23" transform="translate(18.947368, 125.500000)"><g id="Rectangle-2" transform="translate(35.966726, 8.324544) scale(-1, 1) translate(-35.966726, -8.324544)"><use fill="#FFF" fill-rule="evenodd" xlink:href="#path-4"/><rect width="68.933" height="13.649" x="1.5" y="1.5" stroke="#866E8B" stroke-width="3" rx="5"/></g></g><g id="Group-23" transform="translate(12.631579, 54.807692)"><g id="Rectangle-2" transform="translate(35.966726, 8.324544) scale(-1, 1) translate(-35.966726, -8.324544)"><use fill="#FFF" fill-rule="evenodd" xlink:href="#path-5"/><rect width="68.933" height="13.649" x="1.5" y="1.5" stroke="#866E8B" stroke-width="3" rx="5"/></g></g><g id="Rectangle-2" transform="translate(53.650937, 95.182211) scale(-1, 1) translate(-53.650937, -95.182211)"><use fill="#FFF" fill-rule="evenodd" xlink:href="#path-6"/><rect width="68.933" height="19.595" x="19.184" y="85.385" stroke="#866E8B" stroke-width="3" rx="5"/></g><g id="Rectangle-2" transform="translate(53.650937, 94.576442) scale(-1, 1) translate(-53.650937, -94.576442)"><use fill="#FFF" fill-rule="evenodd" xlink:href="#path-7"/><rect width="68.933" height="23.23" x="19.184" y="82.962" stroke="#866E8B" stroke-width="3" rx="5"/></g><g id="Group-19" stroke="#87708D" stroke-width="2" transform="translate(54.155364, 94.972672) scale(-1, 1) rotate(-270.000000) translate(-54.155364, -94.972672) translate(47.655364, 59.972672)"><g id="Group-24"><g id="Group-17" transform="translate(-0.000000, 0.000000)"><path id="Path-18" d="M0.599445434,0.849459019 L0.599445434,68.2111686"/></g><g id="Group-17" transform="translate(3.789474, 0.000000)"><path id="Path-18" d="M0.599445434,0.849459019 L0.599445434,68.2111686"/></g><g id="Group-17" transform="translate(7.578947, 0.000000)"><path id="Path-18" d="M0.599445434,0 L0.599445434,67.3617096"/></g><g id="Group-17" transform="translate(11.368421, 0.000000)"><path id="Path-18" d="M0.599445434,0.849459019 L0.599445434,68.2111686"/></g></g></g><g id="Rectangle-2" transform="translate(45.650937, 22.576442) scale(-1, 1) translate(-45.650937, -22.576442)"><use fill="#FFF" fill-rule="evenodd" xlink:href="#path-8"/><rect width="68.933" height="23.23" x="11.184" y="10.962" stroke="#866E8B" stroke-width="3" rx="5"/></g><g id="Group-19" stroke="#87708D" stroke-width="2" transform="translate(46.155364, 22.972672) scale(-1, 1) rotate(-270.000000) translate(-46.155364, -22.972672) translate(39.655364, -12.027328)"><g id="Group-24"><g id="Group-17" transform="translate(-0.000000, 0.000000)"><path id="Path-18" d="M0.599445434,0.849459019 L0.599445434,68.2111686"/></g><g id="Group-17" transform="translate(3.789474, 0.000000)"><path id="Path-18" d="M0.599445434,0.849459019 L0.599445434,68.2111686"/></g><g id="Group-17" transform="translate(7.578947, 0.000000)"><path id="Path-18" d="M0.599445434,0 L0.599445434,67.3617096"/></g><g id="Group-17" transform="translate(11.368421, 0.000000)"><path id="Path-18" d="M0.599445434,0.849459019 L0.599445434,68.2111686"/></g></g></g><g id="Group-25" transform="translate(11.368421, 142.038462)"><g id="Rectangle-2" transform="translate(42.315789, 8.480769) scale(-1, 1) translate(-42.315789, -8.480769)"><use fill="#FFF" fill-rule="evenodd" xlink:href="#path-9"/><rect width="81.632" height="13.962" x="1.5" y="1.5" stroke="#866E8B" stroke-width="3" rx="5"/></g></g><g id="Group-25" transform="translate(0.000000, 40.269231)"><g id="Rectangle-2" transform="translate(36.000000, 8.480769) scale(-1, 1) translate(-36.000000, -8.480769)"><use fill="#FFF" fill-rule="evenodd" xlink:href="#path-10"/><rect width="69" height="11.538" x="1.5" y="2.712" stroke="#866E8B" stroke-width="3" rx="5"/></g><g id="Rectangle-2" transform="translate(42.315789, 8.480769) scale(-1, 1) translate(-42.315789, -8.480769)"><use fill="#FFF" fill-rule="evenodd" xlink:href="#path-11"/><rect width="81.632" height="13.962" x="1.5" y="1.5" stroke="#866E8B" stroke-width="3" rx="5"/></g></g><g id="Group-25" transform="translate(24.000000, 0.000000)"><g id="Rectangle-2" transform="translate(28.081633, 6.615385) scale(-1, 1) translate(-28.081633, -6.615385)"><use fill="#FFF" fill-rule="evenodd" xlink:href="#path-12"/><rect width="53.163" height="8.341" x="1.5" y="2.445" stroke="#866E8B" stroke-width="3" rx="4.17"/></g><g id="Rectangle-2" transform="translate(33.008235, 6.615385) scale(-1, 1) translate(-33.008235, -6.615385)"><use fill="#FFF" fill-rule="evenodd" xlink:href="#path-13"/><rect width="63.016" height="10.231" x="1.5" y="1.5" stroke="#866E8B" stroke-width="3" rx="5"/></g></g></g><g id="Group-26" transform="translate(227.000000, 275.500000) scale(-1, 1) translate(-227.000000, -275.500000) translate(179.000000, 196.000000)"><g id="Group-23" transform="translate(13.894737, 66.923077)"><g id="Rectangle-2" transform="translate(35.966726, 8.324544) scale(-1, 1) translate(-35.966726, -8.324544)"><use fill="#FFF" fill-rule="evenodd" xlink:href="#path-14"/><rect width="68.933" height="13.649" x="1.5" y="1.5" stroke="#866E8B" stroke-width="3" rx="5"/></g></g><g id="Group-23" transform="translate(17.684211, 33.000000)"><g id="Rectangle-2" transform="translate(36.000000, 4.846154) scale(-1, 1) translate(-36.000000, -4.846154)"><use fill="#FFF" fill-rule="evenodd" xlink:href="#path-15"/><rect width="69" height="6.692" x="1.5" y="1.5" stroke="#866E8B" stroke-width="3" rx="3.346"/></g></g><g id="Group-23" transform="translate(17.684211, 105.692308)"><g id="Rectangle-2" transform="translate(35.966726, 12.486817) scale(-1, 1) translate(-35.966726, -12.486817)"><use fill="#FFF" fill-rule="evenodd" xlink:href="#path-16"/><rect width="68.933" height="21.974" x="1.5" y="1.5" stroke="#866E8B" stroke-width="3" rx="5"/></g></g><g id="Group-23" transform="translate(12.631579, 54.807692)"><g id="Rectangle-2" transform="translate(35.966726, 8.324544) scale(-1, 1) translate(-35.966726, -8.324544)"><use fill="#FFF" fill-rule="evenodd" xlink:href="#path-17"/><rect width="68.933" height="13.649" x="1.5" y="1.5" stroke="#866E8B" stroke-width="3" rx="5"/></g></g><g id="Rectangle-2" transform="translate(53.650937, 95.182211) scale(-1, 1) translate(-53.650937, -95.182211)"><use fill="#FFF" fill-rule="evenodd" xlink:href="#path-18"/><rect width="68.933" height="19.595" x="19.184" y="85.385" stroke="#866E8B" stroke-width="3" rx="5"/></g><g id="Rectangle-2" transform="translate(53.650937, 94.576442) scale(-1, 1) translate(-53.650937, -94.576442)"><use fill="#FFF" fill-rule="evenodd" xlink:href="#path-19"/><rect width="68.933" height="23.23" x="19.184" y="82.962" stroke="#866E8B" stroke-width="3" rx="5"/></g><g id="Group-19" stroke="#87708D" stroke-width="2" transform="translate(54.155364, 94.972672) scale(-1, 1) rotate(-270.000000) translate(-54.155364, -94.972672) translate(47.655364, 59.972672)"><g id="Group-24"><g id="Group-17" transform="translate(-0.000000, 0.000000)"><path id="Path-18" d="M0.599445434,0.849459019 L0.599445434,68.2111686"/></g><g id="Group-17" transform="translate(3.789474, 0.000000)"><path id="Path-18" d="M0.599445434,0.849459019 L0.599445434,68.2111686"/></g><g id="Group-17" transform="translate(7.578947, 0.000000)"><path id="Path-18" d="M0.599445434,0 L0.599445434,67.3617096"/></g><g id="Group-17" transform="translate(11.368421, 0.000000)"><path id="Path-18" d="M0.599445434,0.849459019 L0.599445434,68.2111686"/></g></g></g><g id="Rectangle-2" transform="translate(45.650937, 22.576442) scale(-1, 1) translate(-45.650937, -22.576442)"><use fill="#FFF" fill-rule="evenodd" xlink:href="#path-20"/><rect width="68.933" height="23.23" x="11.184" y="10.962" stroke="#866E8B" stroke-width="3" rx="5"/></g><g id="Group-19" stroke="#87708D" stroke-width="2" transform="translate(46.155364, 22.972672) scale(-1, 1) rotate(-270.000000) translate(-46.155364, -22.972672) translate(39.655364, -12.027328)"><g id="Group-24"><g id="Group-17" transform="translate(-0.000000, 0.000000)"><path id="Path-18" d="M0.599445434,0.849459019 L0.599445434,68.2111686"/></g><g id="Group-17" transform="translate(3.789474, 0.000000)"><path id="Path-18" d="M0.599445434,0.849459019 L0.599445434,68.2111686"/></g><g id="Group-17" transform="translate(7.578947, 0.000000)"><path id="Path-18" d="M0.599445434,0 L0.599445434,67.3617096"/></g><g id="Group-17" transform="translate(11.368421, 0.000000)"><path id="Path-18" d="M0.599445434,0.849459019 L0.599445434,68.2111686"/></g></g></g><g id="Group-25" transform="translate(0.000000, 40.269231)"><g id="Rectangle-2" transform="translate(36.000000, 8.480769) scale(-1, 1) translate(-36.000000, -8.480769)"><use fill="#FFF" fill-rule="evenodd" xlink:href="#path-21"/><rect width="69" height="11.538" x="1.5" y="2.712" stroke="#866E8B" stroke-width="3" rx="5"/></g><g id="Rectangle-2" transform="translate(42.315789, 8.480769) scale(-1, 1) translate(-42.315789, -8.480769)"><use fill="#FFF" fill-rule="evenodd" xlink:href="#path-22"/><rect width="81.632" height="13.962" x="1.5" y="1.5" stroke="#866E8B" stroke-width="3" rx="5"/></g></g><g id="Group-25" transform="translate(24.000000, 0.000000)"><g id="Rectangle-2" transform="translate(28.081633, 6.615385) scale(-1, 1) translate(-28.081633, -6.615385)"><use fill="#FFF" fill-rule="evenodd" xlink:href="#path-23"/><rect width="53.163" height="8.341" x="1.5" y="2.445" stroke="#866E8B" stroke-width="3" rx="4.17"/></g><g id="Rectangle-2" transform="translate(33.008235, 6.615385) scale(-1, 1) translate(-33.008235, -6.615385)"><use fill="#FFF" fill-rule="evenodd" xlink:href="#path-24"/><rect width="63.016" height="10.231" x="1.5" y="1.5" stroke="#866E8B" stroke-width="3" rx="5"/></g></g></g><g id="Group-3" transform="translate(37.000000, 14.000000)"><g id="Group-12" transform="translate(174.000000, 288.500000) scale(-1, 1) rotate(-161.000000) translate(-174.000000, -288.500000) translate(155.000000, 225.000000)"><g id="Group-2" transform="translate(7.463377, 27.431363)"><g id="Group-6" transform="translate(8.506098, 80.206171) rotate(-87.000000) translate(-8.506098, -80.206171) translate(-8.993902, 72.706171)"><g id="Oval-15"><use fill="#FFF" fill-rule="evenodd" xlink:href="#path-25"/><ellipse cx="7.332" cy="7.989" stroke="#F06823" stroke-width="3" rx="5.832" ry="5.511"/></g><g id="Oval-15"><use fill="#FFF" fill-rule="evenodd" xlink:href="#path-26"/><ellipse cx="13.926" cy="7.989" stroke="#F06823" stroke-width="3" rx="5.832" ry="5.511"/></g><g id="Oval-15"><use fill="#FFF" fill-rule="evenodd" xlink:href="#path-27"/><ellipse cx="20.52" cy="7.989" stroke="#F06823" stroke-width="3" rx="5.832" ry="5.511"/></g><g id="Oval-15"><use fill="#FFF" fill-rule="evenodd" xlink:href="#path-28"/><ellipse cx="27.114" cy="7.989" stroke="#F06823" stroke-width="3" rx="5.832" ry="5.511"/></g></g><g id="Group-6" transform="translate(9.966478, 55.669730) rotate(-87.000000) translate(-9.966478, -55.669730) translate(-7.533522, 48.169730)"><g id="Oval-15"><use fill="#FFF" fill-rule="evenodd" xlink:href="#path-29"/><ellipse cx="7.332" cy="7.989" stroke="#F06823" stroke-width="3" rx="5.832" ry="5.511"/></g><g id="Oval-15"><use fill="#FFF" fill-rule="evenodd" xlink:href="#path-30"/><ellipse cx="13.926" cy="7.989" stroke="#F06823" stroke-width="3" rx="5.832" ry="5.511"/></g><g id="Oval-15"><use fill="#FFF" fill-rule="evenodd" xlink:href="#path-31"/><ellipse cx="20.52" cy="7.989" stroke="#F06823" stroke-width="3" rx="5.832" ry="5.511"/></g><g id="Oval-15"><use fill="#FFF" fill-rule="evenodd" xlink:href="#path-32"/><ellipse cx="27.114" cy="7.989" stroke="#F06823" stroke-width="3" rx="5.832" ry="5.511"/></g></g><g id="Oval-15"><use fill="#FFF" fill-rule="evenodd" xlink:href="#path-33"/><ellipse cx="11.637" cy="39.8" stroke="#F06823" stroke-width="3" rx="5.832" ry="5.511"/></g><g id="Oval-15"><use fill="#FFF" fill-rule="evenodd" xlink:href="#path-34"/><ellipse cx="11.637" cy="33.915" stroke="#F06823" stroke-width="3" rx="5.832" ry="5.511"/></g><g id="Oval-15"><use fill="#FFF" fill-rule="evenodd" xlink:href="#path-35"/><ellipse cx="11.637" cy="27.189" stroke="#F06823" stroke-width="3" rx="5.832" ry="5.511"/></g></g></g><g id="Group-12" transform="translate(38.662784, 288.527241) rotate(-161.000000) translate(-38.662784, -288.527241) translate(20.162784, 225.027241)"><g id="Group-2" transform="translate(7.315216, 27.437464)"><g id="Group-6" transform="translate(9.046741, 80.130555) rotate(-87.000000) translate(-9.046741, -80.130555) translate(-8.453259, 72.130555)"><g id="Oval-15"><use fill="#FFF" fill-rule="evenodd" xlink:href="#path-36"/><ellipse cx="7.281" cy="7.991" stroke="#F06823" stroke-width="3" rx="5.781" ry="5.513"/></g><g id="Oval-15"><use fill="#FFF" fill-rule="evenodd" xlink:href="#path-37"/><ellipse cx="13.829" cy="7.991" stroke="#F06823" stroke-width="3" rx="5.781" ry="5.513"/></g><g id="Oval-15"><use fill="#FFF" fill-rule="evenodd" xlink:href="#path-38"/><ellipse cx="20.378" cy="7.991" stroke="#F06823" stroke-width="3" rx="5.781" ry="5.513"/></g><g id="Oval-15"><use fill="#FFF" fill-rule="evenodd" xlink:href="#path-39"/><ellipse cx="26.926" cy="7.991" stroke="#F06823" stroke-width="3" rx="5.781" ry="5.513"/></g></g><g id="Group-6" transform="translate(10.497011, 55.588657) rotate(-87.000000) translate(-10.497011, -55.588657) translate(-7.002989, 47.588657)"><g id="Oval-15"><use fill="#FFF" fill-rule="evenodd" xlink:href="#path-40"/><ellipse cx="7.281" cy="7.991" stroke="#F06823" stroke-width="3" rx="5.781" ry="5.513"/></g><g id="Oval-15"><use fill="#FFF" fill-rule="evenodd" xlink:href="#path-41"/><ellipse cx="13.829" cy="7.991" stroke="#F06823" stroke-width="3" rx="5.781" ry="5.513"/></g><g id="Oval-15"><use fill="#FFF" fill-rule="evenodd" xlink:href="#path-42"/><ellipse cx="20.378" cy="7.991" stroke="#F06823" stroke-width="3" rx="5.781" ry="5.513"/></g><g id="Oval-15"><use fill="#FFF" fill-rule="evenodd" xlink:href="#path-43"/><ellipse cx="26.926" cy="7.991" stroke="#F06823" stroke-width="3" rx="5.781" ry="5.513"/></g></g><g id="Oval-15"><use fill="#FFF" fill-rule="evenodd" xlink:href="#path-44"/><ellipse cx="11.653" cy="39.809" stroke="#F06823" stroke-width="2" rx="6.281" ry="6.013"/></g><g id="Oval-15"><use fill="#FFF" fill-rule="evenodd" xlink:href="#path-45"/><ellipse cx="11.653" cy="33.923" stroke="#F06823" stroke-width="2" rx="6.281" ry="6.013"/></g><g id="Oval-15"><use fill="#FFF" fill-rule="evenodd" xlink:href="#path-46"/><ellipse cx="11.653" cy="27.195" stroke="#F06823" stroke-width="2" rx="6.281" ry="6.013"/></g></g></g><g id="Group-6" transform="translate(10.000000, 67.000000)"><path id="Combined-Shape" fill="#FFF" stroke="#F06823" stroke-width="3" d="M80.5721932,67.6234271 C82.0933556,67.4675771 84.0620023,67.404904 86.0330435,67.404904 C87.4057185,67.404904 91.1339659,67.435225 95.2459274,67.4852322 C99.357889,67.435225 103.086136,67.404904 104.458811,67.404904 C106.429853,67.404904 108.398499,67.4675771 109.919662,67.6234271 C110.328182,66.5570961 112.172693,61.6315729 112.221152,59.5046581 C112.461247,48.9665412 112.461247,55.2984216 112.461247,39.9561493 C112.461247,14.888046 120.645789,-2.27373675e-13 128.784869,-2.27373675e-13 C129.472479,-2.27373675e-13 130.170033,0.107210379 130.870429,0.323079927 C136.781881,2.15000274 143.524623,12.5209476 138.262231,35.6358608 C133.689707,55.7205469 129.557185,62.8858859 128.001048,66.6958062 C126.758496,69.7379701 127.089997,66.5428746 125.873894,72.0946337 C131.273902,75.8556897 118.963003,80.911963 120.085341,86.2550965 L95.2459274,75.0464393 C88.8686753,77.9241414 80.5888708,81.6603605 70.4065138,86.2550965 C71.5288516,80.911963 59.217953,75.8556897 64.6179606,72.0946337 C63.4018579,66.5428746 63.733359,69.7379701 62.4908068,66.6958062 C60.9346694,62.8858859 56.8021483,55.7205469 52.2296242,35.6358608 C46.967232,12.5209476 53.7099736,2.15000274 59.6214263,0.323079927 C60.321822,0.107210379 61.0193762,-2.27373675e-13 61.7069857,-2.27373675e-13 C69.8460659,-2.27373675e-13 78.0306079,14.888046 78.0306079,39.9561493 C78.0306079,55.2984216 78.0306079,48.9665412 78.2707029,59.5046581 C78.3191614,61.6315729 80.1636731,66.5570961 80.5721932,67.6234271 Z" transform="translate(95.245927, 43.127548) rotate(-360.000000) translate(-95.245927, -43.127548)"/><g id="Group-15" transform="translate(94.154052, 207.364121) scale(-1, 1) translate(-94.154052, -207.364121) translate(45.654052, 140.364121)"><mask id="mask-48" fill="#fff"><use xlink:href="#path-47"/></mask><use id="Mask" fill="#FFF" xlink:href="#path-47"/><g id="Path-10" stroke="#F06823" stroke-width="3" mask="url(#mask-48)"><g><path d="M77.0156843,107.441062 L188.392645,0" transform="translate(-87.517823, 0.000000)"/><path d="M86.6426449,107.441062 L198.019606,0" transform="translate(-87.517823, 0.000000)"/><path d="M96.2696054,107.441062 L207.646566,0" transform="translate(-87.517823, 0.000000)"/><path d="M105.896566,107.441062 L217.273527,0" transform="translate(-87.517823, 0.000000)"/><path d="M115.523526,107.441062 L226.900487,0" transform="translate(-87.517823, 0.000000)"/><path d="M125.150487,107.441062 L236.527448,0" transform="translate(-87.517823, 0.000000)"/><path d="M134.777448,107.441062 L246.154408,0" transform="translate(-87.517823, 0.000000)"/><path d="M144.404408,107.441062 L255.781369,0" transform="translate(-87.517823, 0.000000)"/><path d="M0,107.441062 L111.376961,0" transform="translate(-87.517823, 0.000000)"/><path d="M9.62696054,107.441062 L121.003921,0" transform="translate(-87.517823, 0.000000)"/><path d="M19.2539211,107.441062 L130.630882,0" transform="translate(-87.517823, 0.000000)"/><path d="M28.8808816,107.441062 L140.257842,0" transform="translate(-87.517823, 0.000000)"/><path d="M38.5078422,107.441062 L149.884803,0" transform="translate(-87.517823, 0.000000)"/><path d="M48.1348027,107.441062 L159.511763,0" transform="translate(-87.517823, 0.000000)"/><path d="M57.7617632,107.441062 L169.138724,0" transform="translate(-87.517823, 0.000000)"/><path d="M67.3887238,107.441062 L178.765685,0" transform="translate(-87.517823, 0.000000)"/><path d="M154.031369,107.441062 L265.408329,0" transform="translate(-87.517823, 0.000000)"/><path d="M163.658329,107.441062 L275.03529,0" transform="translate(-87.517823, 0.000000)"/><path d="M173.28529,107.441062 L284.662251,0" transform="translate(-87.517823, 0.000000)"/><path d="M182.91225,107.441062 L294.289211,0" transform="translate(-87.517823, 0.000000)"/><path d="M192.539211,107.441062 L303.916172,0" transform="translate(-87.517823, 0.000000)"/><path d="M202.166171,107.441062 L313.543132,0" transform="translate(-87.517823, 0.000000)"/><path d="M211.793132,107.441062 L323.170093,0" transform="translate(-87.517823, 0.000000)"/></g></g></g><g id="Group-5" transform="translate(94.613984, 130.880850) scale(-1, 1) translate(-94.613984, -130.880850) translate(87.113984, 115.880850)"><g id="Group-21" transform="translate(0.000000, 7.040177)"><g id="Oval-15"><use fill="#FFF" fill-rule="evenodd" xlink:href="#path-49"/><ellipse cx="7.298" cy="7.04" stroke="#F06823" stroke-width="3" rx="5.798" ry="5.54"/></g><g id="Oval-15"><use fill="#FFF" fill-rule="evenodd" xlink:href="#path-50"/><ellipse cx="7.298" cy="14.08" stroke="#F06823" stroke-width="3" rx="5.798" ry="5.54"/></g></g><g id="Group-21" transform="translate(0.000000, 7.040177)"><g id="Oval-15"><use fill="#FFF" fill-rule="evenodd" xlink:href="#path-51"/><ellipse cx="7.298" cy="7.04" stroke="#F06823" stroke-width="3" rx="5.798" ry="5.54"/></g></g><g id="Oval-15"><use fill="#FFF" fill-rule="evenodd" xlink:href="#path-52"/><ellipse cx="7.298" cy="7.04" stroke="#F06823" stroke-width="3" rx="5.798" ry="5.54"/></g></g><g id="Group-18" transform="translate(95.146209, 46.435739) scale(-1, 1) translate(-95.146209, -46.435739) translate(86.146209, 26.435739)"><path id="Path-19" stroke="#F06823" stroke-width="3" d="M8.67962231,8.43165468 L8.67962231,39.7145329"/><g id="Oval-15"><use fill="#FFF" fill-rule="evenodd" xlink:href="#path-53"/><ellipse cx="8.752" cy="8.443" stroke="#F06823" stroke-width="3" rx="7.252" ry="6.943"/></g></g><g id="Rectangle-2" transform="translate(94.743172, 86.592174) scale(-1, 1) translate(-94.743172, -86.592174)"><use fill="#FFF" fill-rule="evenodd" xlink:href="#path-54"/><rect width="95.468" height="70.126" x="47.009" y="51.529" stroke="#F06823" stroke-width="3" rx="19"/></g><g id="Group-20" transform="translate(94.901556, 67.725123) scale(-1, 1) translate(-94.901556, -67.725123) translate(59.401556, 59.225123)"><g id="Oval-15"><use fill="#FFF" fill-rule="evenodd" xlink:href="#path-55"/><ellipse cx="8.752" cy="8.443" stroke="#F06823" stroke-width="3" rx="7.252" ry="6.943"/></g><g id="Oval-15"><use fill="#FFF" fill-rule="evenodd" xlink:href="#path-56"/><ellipse cx="61.262" cy="8.443" stroke="#F06823" stroke-width="3" rx="7.252" ry="6.943"/></g></g><path id="Combined-Shape" stroke="#F06823" stroke-width="3" d="M142.465977,192.735202 L142.465572,192.654835 C142.473237,192.302395 142.477075,191.949454 142.477075,191.596052 L142.477075,187.909523 C142.477075,161.546816 121.105878,140.175619 94.7431715,140.175619 C68.3804646,140.175619 47.009268,161.546816 47.009268,187.909523 L47.009268,191.596052 C47.009268,191.949454 47.0131059,192.302395 47.0203657,192.735202 C47.0129724,192.967332 47.009268,193.199981 47.009268,193.433093 L47.009268,249.587429 C47.009268,261.461551 56.6351459,271.087429 68.509268,271.087429 L120.977075,271.087429 C132.851197,271.087429 142.477075,261.461551 142.477075,249.587429 L142.477075,193.433093 C142.477075,193.199981 142.473371,192.967332 142.465977,192.735202 Z" transform="translate(94.743172, 205.631524) scale(-1, 1) translate(-94.743172, -205.631524)"/><g id="Combined-Shape" transform="translate(94.743172, 205.631524) scale(-1, 1) translate(-94.743172, -205.631524)"><use fill="#FFF" fill-rule="evenodd" xlink:href="#path-57"/><path stroke="#F06823" stroke-width="3" d="M63.3699129,193.252494 C63.2988913,192.383645 63.2631891,191.509178 63.2631891,190.63055 L63.2631891,188.363955 C63.2631891,170.817554 77.4873573,156.593386 95.033758,156.593386 C112.580159,156.593386 126.804327,170.817554 126.804327,188.363955 L126.804327,190.63055 C126.804327,191.509178 126.768625,192.383645 126.697603,193.252494 C126.768605,194.014192 126.804327,194.781715 126.804327,195.553386 L126.804327,251.707722 C126.804327,259.450223 123.179602,266.535554 117.299672,271.087429 L120.977075,271.087429 C132.851197,271.087429 142.477075,261.461551 142.477075,249.587429 L142.477075,193.433093 C142.477075,193.199981 142.473371,192.967332 142.465572,192.654835 C142.473237,192.302395 142.477075,191.949454 142.477075,191.596052 L142.477075,187.909523 C142.477075,161.546816 121.105878,140.175619 94.7431715,140.175619 C68.3804646,140.175619 47.009268,161.546816 47.009268,187.909523 L47.009268,191.596052 C47.009268,191.949454 47.0131059,192.302395 47.0203657,192.735202 C47.0129724,192.967332 47.009268,193.199981 47.009268,193.433093 L47.009268,249.587429 C47.009268,261.461551 56.6351459,271.087429 68.509268,271.087429 L72.7678437,271.087429 C66.8879136,266.535554 63.2631891,259.450223 63.2631891,251.707722 L63.2631891,195.553386 C63.2631891,194.781715 63.2989112,194.014192 63.3699129,193.252494 Z"/></g><g id="Group" stroke="#F06823" stroke-width="3" transform="translate(86.095740, 84.330985)"><g id="Group-19" transform="translate(8.126961, 7.000000) scale(-1, 1) translate(-8.126961, -7.000000) translate(6.626961, 0.000000)"><g id="Group-17"><path id="Path-18" d="M1.32454985,0.422125355 L1.32454985,13.9301367"/></g></g><path id="Rectangle-4" d="M0,0 L17.5035646,0 L17.5035646,10.9301367 C17.5035646,12.586991 16.1604189,13.9301367 14.5035646,13.9301367 L3,13.9301367 C1.34314575,13.9301367 -2.41183085e-16,12.586991 -4.4408921e-16,10.9301367 L0,0 Z"/></g><rect id="Path" width="86.096" height="93.275" x="52.982" y="199.328" fill="#FFF"/><path id="Rectangle-9" stroke="#F06823" stroke-width="3" d="M84.9057971,84.3309845 L104.613087,84.3309845 C106.822226,84.3309845 108.613087,86.1218455 108.613087,88.3309845 L108.613087,94.0398677 C108.613087,99.4019358 104.266272,103.748751 98.9042042,103.748751 L90.6146803,103.748751 C85.2526122,103.748751 80.9057971,99.4019358 80.9057971,94.0398677 L80.9057971,88.3309845 C80.9057971,86.1218455 82.6966581,84.3309845 84.9057971,84.3309845 Z"/><g id="Group-22" stroke="#F06823" stroke-width="3" transform="translate(55.631094, 65.612422)"><path id="Rectangle-9" d="M4,0 L25.1400966,0 C27.3492356,-4.05812251e-16 29.1400966,1.790861 29.1400966,4 L29.1400966,6.38871095 C29.1400966,9.91709858 26.2797733,12.7774219 22.7513857,12.7774219 L6.38871095,12.7774219 C2.86032332,12.7774219 4.32102862e-16,9.91709858 0,6.38871095 L0,4 C-2.705415e-16,1.790861 1.790861,4.05812251e-16 4,0 Z"/><path id="Rectangle-9" d="M55.657444,0 L76.7975406,0 C79.0066796,-4.05812251e-16 80.7975406,1.790861 80.7975406,4 L80.7975406,6.38871095 C80.7975406,9.91709858 77.9372173,12.7774219 74.4088297,12.7774219 L58.046155,12.7774219 C54.5177673,12.7774219 51.657444,9.91709858 51.657444,6.38871095 L51.657444,4 C51.657444,1.790861 53.448305,4.05812251e-16 55.657444,0 Z"/><path id="Path-2" d="M29.1400966,1.91661328 L52.9819939,1.91661328"/></g></g><g id="Group-31" transform="translate(31.000000, 254.000000)"><g id="Rectangle-2" transform="translate(37.980260, 30.859278) scale(-1, 1) translate(-37.980260, -30.859278)"><use fill="#FFF" fill-rule="evenodd" xlink:href="#path-58"/><rect width="72.961" height="4.715" x="1.5" y="28.502" stroke="#F06823" stroke-width="3" rx="2.357"/></g><g id="Rectangle-2" transform="translate(109.942857, 30.859278) scale(-1, 1) translate(-109.942857, -30.859278)"><use fill="#FFF" fill-rule="evenodd" xlink:href="#path-59"/><rect width="72.961" height="4.715" x="73.463" y="28.502" stroke="#F06823" stroke-width="3" rx="2.357"/></g><path id="Path-8" fill="#FFF" stroke="#F06823" stroke-linecap="round" stroke-linejoin="round" stroke-width="3" d="M69.2317763,27.6200335 C63.0564795,25.2627275 57.5256566,24.0840746 52.6393074,24.0840746 C45.3097835,24.0840746 38.0348762,25.048427 24.5773898,27.6200335 C15.6057323,29.3344378 7.85748255,28.1557848 1.33264069,24.0840746 L9.89649564,7.69008329 C14.790127,11.9760941 21.7227715,11.9760941 30.6944291,7.69008329 C44.1519154,1.2610671 53.3274743,-1.95344099 62.5030331,1.2610671 C71.678592,4.4755752 75.9605195,13.4761979 75.9605195,20.5481157 C75.9605195,25.2627275 73.7176051,27.6200335 69.2317763,27.6200335 Z"/><path id="Path-8" fill="#FFF" stroke="#F06823" stroke-linecap="round" stroke-linejoin="round" stroke-width="3" d="M141.194374,27.6200335 C138.252369,25.2627275 132.499439,24.0840746 123.935584,24.0840746 C111.089802,24.0840746 109.997474,25.048427 96.5399872,27.6200335 C87.5683297,29.3344378 79.82008,28.1557848 73.2952381,24.0840746 L81.859093,7.69008329 C86.7527244,11.9760941 93.6853689,11.9760941 102.657026,7.69008329 C116.114513,1.2610671 125.290072,-1.95344099 134.465631,1.2610671 C143.641189,4.4755752 147.923117,13.4761979 147.923117,20.5481157 C147.923117,25.2627275 145.680202,27.6200335 141.194374,27.6200335 Z" transform="translate(110.609177, 14.190995) scale(-1, 1) translate(-110.609177, -14.190995)"/></g><g id="Group-32" fill="#FFF" stroke="#F06823" stroke-linecap="round" stroke-linejoin="round" stroke-width="3" transform="translate(63.000000, 0.000000)"><path id="Combined-Shape" d="M34.8807939,47.5484606 C33.0915527,45.5786457 32,42.9555525 32,40.0757576 C32,33.9587856 36.9248678,29 43,29 C49.0751322,29 54,33.9587856 54,40.0757576 C54,42.8828472 52.9628678,45.4460333 51.253383,47.3980239 C49.1619804,51.5099871 48.1162791,54.6500397 48.1162791,56.8181818 C48.1162791,60.1666667 46.1957654,63 43.1183617,63 C40.040958,63 38.1471711,60.9393939 38.1471711,56.8181818 C38.1471711,54.1971141 37.0583787,51.107207 34.8807939,47.5484606 Z"/><path id="Path-13" d="M39,53.5 L47.7578228,53.5"/><path id="Path-13" d="M42,53 L42,44"/><circle id="Oval-3" cx="43" cy="45" r="3"/><path id="Path-14" d="M62.9926618,38.5 L84.8,38.5"/><path id="Path-15" d="M58,29 L73,15"/><path id="Path-14" d="M1.19210663,38.5 L24,38.5" transform="translate(12.000000, 38.500000) scale(-1, 1) translate(-12.000000, -38.500000)"/><path id="Path-15" d="M12,29 L26,16" transform="translate(19.000000, 22.500000) scale(-1, 1) translate(-19.000000, -22.500000)"/><path id="Path-16" d="M43,20 L43,0"/><path id="Path-3" d="M28.5833333,12.55 L34.4166667,22.45"/><path id="Path-3" d="M50,13 L56,23" transform="translate(53.000000, 18.000000) scale(-1, 1) translate(-53.000000, -18.000000)"/></g></g><g id="Group-26" transform="translate(773.000000, 201.000000)"><g id="Group-23" transform="translate(15.631579, 38.769231)"><g id="Rectangle-2" transform="translate(40.462567, 9.513765) scale(-1, 1) translate(-40.462567, -9.513765)"><use fill="#FFF" fill-rule="evenodd" xlink:href="#path-60"/><rect width="77.925" height="16.028" x="1.5" y="1.5" stroke="#86708B" stroke-width="3" rx="5"/></g></g><g id="Group-23" transform="translate(19.894737, 0.000000)"><g id="Rectangle-2" transform="translate(40.500000, 5.538462) scale(-1, 1) translate(-40.500000, -5.538462)"><use fill="#FFF" fill-rule="evenodd" xlink:href="#path-61"/><rect width="78" height="8.077" x="1.5" y="1.5" stroke="#86708B" stroke-width="3" rx="4.038"/></g></g><g id="Group-23" transform="translate(19.894737, 81.076923)"><g id="Rectangle-2" transform="translate(40.462567, 14.270647) scale(-1, 1) translate(-40.462567, -14.270647)"><use fill="#FFF" fill-rule="evenodd" xlink:href="#path-62"/><rect width="77.925" height="25.541" x="1.5" y="1.5" stroke="#86708B" stroke-width="3" rx="5"/></g></g><g id="Group-23" transform="translate(14.210526, 24.923077)"><g id="Rectangle-2" transform="translate(40.462567, 9.513765) scale(-1, 1) translate(-40.462567, -9.513765)"><use fill="#FFF" fill-rule="evenodd" xlink:href="#path-63"/><rect width="77.925" height="16.028" x="1.5" y="1.5" stroke="#86708B" stroke-width="3" rx="5"/></g></g><g id="Rectangle-2" transform="translate(60.357304, 71.065384) scale(-1, 1) translate(-60.357304, -71.065384)"><use fill="#FFF" fill-rule="evenodd" xlink:href="#path-64"/><rect width="77.925" height="22.823" x="21.395" y="59.654" stroke="#86708B" stroke-width="3" rx="5"/></g><g id="Rectangle-2" transform="translate(60.357304, 70.373077) scale(-1, 1) translate(-60.357304, -70.373077)"><use fill="#FFF" fill-rule="evenodd" xlink:href="#path-65"/><rect width="77.925" height="26.977" x="21.395" y="56.885" stroke="#86708B" stroke-width="3" rx="5"/></g><g id="Group-19" stroke="#86708B" stroke-width="2" transform="translate(59.933198, 71.010121) scale(-1, 1) rotate(-270.000000) translate(-59.933198, -71.010121) translate(52.433198, 32.010121)"><g id="Group-24"><g id="Group-17" transform="translate(-0.000000, 0.000000)"><path id="Path-18" d="M0.674376113,0.970810307 L0.674376113,77.9556213"/></g><g id="Group-17" transform="translate(4.263158, 0.000000)"><path id="Path-18" d="M0.674376113,0.970810307 L0.674376113,77.9556213"/></g><g id="Group-17" transform="translate(8.526316, 0.000000)"><path id="Path-18" d="M0.674376113,0 L0.674376113,76.9848109"/></g><g id="Group-17" transform="translate(12.789474, 0.000000)"><path id="Path-18" d="M0.674376113,0.970810307 L0.674376113,77.9556213"/></g></g></g><g id="Group-25" transform="translate(0.000000, 8.307692)"><g id="Rectangle-2" transform="translate(40.500000, 9.692308) scale(-1, 1) translate(-40.500000, -9.692308)"><use fill="#FFF" fill-rule="evenodd" xlink:href="#path-66"/><rect width="78" height="13.615" x="1.5" y="2.885" stroke="#86708B" stroke-width="3" rx="5"/></g><g id="Rectangle-2" transform="translate(47.605263, 9.692308) scale(-1, 1) translate(-47.605263, -9.692308)"><use fill="#FFF" fill-rule="evenodd" xlink:href="#path-67"/><rect width="92.211" height="16.385" x="1.5" y="1.5" stroke="#86708B" stroke-width="3" rx="5"/></g></g></g><g id="Group-26" transform="translate(928.500000, 218.000000) rotate(-180.000000) translate(-928.500000, -218.000000) translate(881.000000, 132.000000)"><g id="Group-23" transform="translate(2.835821, 73.516129)"><g id="Rectangle-2" transform="translate(40.373097, 14.296222) scale(-1, 1) translate(-40.373097, -14.296222)"><use fill="#FFF" fill-rule="evenodd" xlink:href="#path-68"/><rect width="77.746" height="25.592" x="1.5" y="1.5" stroke="#F06823" stroke-width="3" rx="5"/></g></g><g id="Group-23" transform="translate(4.253731, 98.483871)"><g id="Rectangle-2" transform="translate(40.373097, 9.530815) scale(-1, 1) translate(-40.373097, -9.530815)"><use fill="#FFF" fill-rule="evenodd" xlink:href="#path-69"/><rect width="77.746" height="16.062" x="1.5" y="1.5" stroke="#F06823" stroke-width="3" rx="5"/></g></g><g id="Group-23" transform="translate(15.597015, 152.580645)"><g id="Rectangle-2" transform="translate(36.123298, 9.530815) scale(-1, 1) translate(-36.123298, -9.530815)"><use fill="#FFF" fill-rule="evenodd" xlink:href="#path-70"/><rect width="69.247" height="16.062" x="1.5" y="1.5" stroke="#F06823" stroke-width="3" rx="5"/></g></g><g id="Group-23" transform="translate(8.507463, 0.000000)"><g id="Rectangle-2" transform="translate(40.410448, 9.709677) scale(-1, 1) translate(-40.410448, -9.709677)"><use fill="#FFF" fill-rule="evenodd" xlink:href="#path-71"/><rect width="77.821" height="16.419" x="1.5" y="1.5" stroke="#F06823" stroke-width="3" rx="5"/></g></g><g id="Group-23" transform="translate(11.343284, 33.290323)"><g id="Rectangle-2" transform="translate(40.373097, 9.530815) scale(-1, 1) translate(-40.373097, -9.530815)"><use fill="#FFF" fill-rule="evenodd" xlink:href="#path-72"/><rect width="77.746" height="16.062" x="1.5" y="1.5" stroke="#F06823" stroke-width="3" rx="5"/></g></g><g id="Group-23" transform="translate(0.000000, 142.870968)"><g id="Rectangle-2" transform="translate(40.373097, 6.126952) scale(-1, 1) translate(-40.373097, -6.126952)"><use fill="#FFF" fill-rule="evenodd" xlink:href="#path-73"/><rect width="77.746" height="9.254" x="1.5" y="1.5" stroke="#F06823" stroke-width="3" rx="4.627"/></g></g><g id="Rectangle-2" transform="translate(43.208918, 62.870161) scale(-1, 1) translate(-43.208918, -62.870161)"><use fill="#FFF" fill-rule="evenodd" xlink:href="#path-74"/><rect width="77.746" height="22.869" x="4.336" y="51.435" stroke="#F06823" stroke-width="3" rx="5"/></g><g id="Rectangle-2" transform="translate(43.208918, 62.870161) scale(-1, 1) translate(-43.208918, -62.870161)"><use fill="#FFF" fill-rule="evenodd" xlink:href="#path-75"/><rect width="77.746" height="22.869" x="4.336" y="51.435" stroke="#F06823" stroke-width="3" rx="5"/></g><g id="Group-19" stroke="#F06823" stroke-width="2" transform="translate(43.246269, 63.112903) scale(-1, 1) rotate(-270.000000) translate(-43.246269, -63.112903) translate(36.156716, 22.887097)"><g id="Group-24"><g id="Group-17" transform="translate(-0.000000, 0.000000)"><path id="Path-18" d="M0.672884955,0.972550111 L0.672884955,78.0953267"/></g><g id="Group-17" transform="translate(4.253731, 0.000000)"><path id="Path-18" d="M0.672884955,0.972550111 L0.672884955,78.0953267"/></g><g id="Group-17" transform="translate(8.507463, 2.774194)"><path id="Path-18" d="M0.672884955,0 L0.672884955,77.1227766"/></g><g id="Group-17" transform="translate(12.761194, 0.000000)"><path id="Path-18" d="M0.672884955,0.972550111 L0.672884955,78.0953267"/></g></g></g><g id="Rectangle-2" transform="translate(48.880560, 130.837903) scale(-1, 1) translate(-48.880560, -130.837903)"><use fill="#FFF" fill-rule="evenodd" xlink:href="#path-76"/><rect width="77.746" height="22.869" x="10.007" y="119.403" stroke="#F06823" stroke-width="3" rx="5"/></g><g id="Rectangle-2" transform="translate(48.880560, 130.144355) scale(-1, 1) translate(-48.880560, -130.144355)"><use fill="#FFF" fill-rule="evenodd" xlink:href="#path-77"/><rect width="77.746" height="27.031" x="10.007" y="116.629" stroke="#F06823" stroke-width="3" rx="5"/></g><g id="Group-19" stroke="#F06823" stroke-width="2" transform="translate(48.917910, 130.387097) scale(-1, 1) rotate(-270.000000) translate(-48.917910, -130.387097) translate(41.828358, 90.854839)"><g id="Group-24"><g id="Group-17" transform="translate(-0.000000, 0.000000)"><path id="Path-18" d="M0.672884955,0.972550111 L0.672884955,78.0953267"/></g><g id="Group-17" transform="translate(4.253731, 0.000000)"><path id="Path-18" d="M0.672884955,0.972550111 L0.672884955,78.0953267"/></g><g id="Group-17" transform="translate(8.507463, 0.000000)"><path id="Path-18" d="M0.672884955,0 L0.672884955,77.1227766"/></g><g id="Group-17" transform="translate(12.761194, 0.000000)"><path id="Path-18" d="M0.672884955,0.972550111 L0.672884955,78.0953267"/></g></g></g><g id="Group-25" transform="translate(0.000000, 16.645161)"><g id="Rectangle-2" transform="translate(40.410448, 9.709677) scale(-1, 1) translate(-40.410448, -9.709677)"><use fill="#FFF" fill-rule="evenodd" xlink:href="#path-78"/><rect width="77.821" height="13.645" x="1.5" y="2.887" stroke="#F06823" stroke-width="3" rx="5"/></g><g id="Rectangle-2" transform="translate(47.500000, 9.709677) scale(-1, 1) translate(-47.500000, -9.709677)"><use fill="#FFF" fill-rule="evenodd" xlink:href="#path-79"/><rect width="92" height="16.419" x="1.5" y="1.5" stroke="#F06823" stroke-width="3" rx="5"/></g></g></g><path id="Path-11" stroke="#F06823" stroke-linecap="round" stroke-width="3" d="M3,302 L982,302"/></g></svg>