<svg xmlns="http://www.w3.org/2000/svg" xmlns:svg="http://www.w3.org/2000/svg" id="svg1708" width="24.091" height="25.471" version="1.1" viewBox="0 0 6.374 6.739"><metadata id="metadata1705"/><g id="layer1" transform="translate(-74.480627,-113.33581)"><path id="Shape" d="m 80.531877,116.0706 h -1.99079 c -0.15921,-0.019 -0.28044,-0.15924 -0.28044,-0.32432 v -2.08908 c 0,-0.17823 -0.1446,-0.32139 -0.32133,-0.32139 h -0.6967 c -0.17819,0 -0.32133,0.14462 -0.32133,0.32139 v 2.11099 c -0.009,0.15924 -0.14022,0.2878 -0.29796,0.30241 h -0.52144 c -0.15336,-0.019 -0.27167,-0.14755 -0.28189,-0.30241 v -2.11099 c 0,-0.17823 -0.1446,-0.32139 -0.32133,-0.32139 h -0.69671 c -0.17819,0 -0.32133,0.14462 -0.32133,0.32139 v 2.7348 3.36151 c 0,0.17823 0.1446,0.3214 0.32133,0.3214 h 0.69671 1.74395 0.6967 2.59402 c 0.17819,0 0.32133,-0.14463 0.32133,-0.3214 V 116.392 c -0.001,-0.17823 -0.1446,-0.3214 -0.32279,-0.3214 z m -0.91725,2.30529 c 0,0.17823 -0.1446,0.3214 -0.32133,0.3214 h -0.69671 c -0.17819,0 -0.32133,-0.14463 -0.32133,-0.3214 v -0.6574 c 0,-0.17823 0.1446,-0.3214 0.32133,-0.3214 h 0.69671 c 0.17819,0 0.32133,0.14463 0.32133,0.3214 z" style="fill:#f60;fill-rule:nonzero;stroke:none;stroke-width:.26458332"/></g></svg>