<svg xmlns="http://www.w3.org/2000/svg" xmlns:xlink="http://www.w3.org/1999/xlink" id="Layer_1" x="0" y="0" version="1.1" viewBox="0 0 260 399" xml:space="preserve" style="enable-background:new 0 0 260 399"><style type="text/css">.st0{fill:#866e8b}.st1{fill:#ef6924}.st4{clip-path:url(#SVGID_2_)}.st171,.st639{fill:none;stroke:#ef6924;stroke-width:3;stroke-linecap:round;stroke-linejoin:round;stroke-miterlimit:10}.st639{stroke:#866e8b;stroke-width:2}.st1667{display:none}.st1668{display:inline}.st1677{fill:none}.st1678{fill:#585858}.st1679{font-family:&apos;Raleway-Regular&apos;}.st1680{font-size:20px}.st1681{fill:#ee6925}.st1682{display:inline;fill:none;stroke:#ef6924;stroke-miterlimit:10}.st1683{display:inline;fill:#585858}.st1684{font-size:38px}</style><switch><g><g><g><g><defs><path id="SVGID_3271_" d="M-222.36,282.16c-2.88-1.33-4.14-4.74-2.81-7.62c1.33-2.88,4.74-4.14,7.62-2.81"/></defs><use xlink:href="#SVGID_3271_" style="overflow:visible;fill-rule:evenodd;clip-rule:evenodd;fill:#fff"/><clipPath id="SVGID_2_"><use xlink:href="#SVGID_3271_" style="overflow:visible"/></clipPath><g class="st4"><defs><rect id="SVGID_3273_" width="677.32" height="209.94" x="-485.43" y="-117.45" transform="matrix(0.4186 -0.9082 0.9082 0.4186 -73.9907 -140.5464)"/></defs><use xlink:href="#SVGID_3273_" style="overflow:visible;fill:#fff"/><clipPath id="SVGID_4_"><use xlink:href="#SVGID_3273_" style="overflow:visible"/></clipPath></g></g></g></g><g class="st1667"><g class="st1668"><rect width="236.76" height="113.08" x="11.62" y="235.3" class="st1677"/><text transform="matrix(1 0 0 1 35.0613 249.8978)"><tspan x="0" y="0" class="st1678 st1679 st1680">Animation Company </tspan><tspan x="-20.89" y="24" class="st1678 st1679 st1680">Uses RabbitMQ As the IT </tspan><tspan x="17.78" y="48" class="st1678 st1679 st1680">Nervous System </tspan><tspan x="-.21" y="72" class="st1681 st1679 st1680">Read the case study</tspan></text></g><line x1="35.63" x2="224.37" y1="325.53" y2="325.53" class="st1682"/></g><rect width="210.36" height="182.48" x="24.82" y="32.29" class="st1677"/><text class="st1667" transform="matrix(1 0 0 1 30.2326 60.0315)"><tspan x="0" y="0" class="st1683 st1679 st1684">LAIKA Gets </tspan><tspan x="26.11" y="45.6" class="st1683 st1679 st1684">Creative </tspan><tspan x="62.45" y="91.2" class="st1683 st1679 st1684">with </tspan><tspan x="11.49" y="136.8" class="st1683 st1679 st1684">RabbitMQ</tspan></text><g><g><path d="M256,399H4c-0.83,0-1.5-0.67-1.5-1.5S3.17,396,4,396h252c0.83,0,1.5,0.67,1.5,1.5S256.83,399,256,399z" class="st1"/></g></g><polygon points="50.46 366.48 43.94 370.91 51.81 373.49 54.03 380.86 58.95 374.35 66.7 374.35 62.03 368.08 64.36 360.71 56.98 363.41 50.46 358.49" class="st1"/><g><polygon points="213.92 362.36 206.03 367.67 215.56 370.76 218.24 379.61 224.19 371.8 233.56 371.8 227.91 364.27 230.74 355.42 221.81 358.67 213.92 352.77" class="st171"/></g><polygon points="102.57 357.68 97.49 359.14 101.98 362.43 101.85 367.6 106.35 364.47 111.3 366.08 109.62 361.11 112.65 356.89 107.37 357.07 104.23 352.58" class="st639"/><g><polygon points="160.53 357.23 155.7 353.08 155.39 359.79 150.15 363.09 156.26 365.55 157.93 371.61 161.78 366.61 168 366.87 164.32 361.67 166.73 355.52" class="st0"/></g></g></switch></svg>