<svg xmlns="http://www.w3.org/2000/svg" xmlns:xlink="http://www.w3.org/1999/xlink" id="Layer_1" x="0" y="0" version="1.1" viewBox="0 0 628 248" xml:space="preserve" style="enable-background:new 0 0 628 248"><style type="text/css">.st0{fill:#866e8b}.st1{fill:#ef6924}.st3{fill:none;stroke:#ef6924;stroke-width:2;stroke-miterlimit:10}.st10{clip-path:url(#SVGID_14_)}.st639,.st67,.st70{stroke-width:2;stroke-miterlimit:10}.st67,.st70{stroke:#ef6924}.st67{fill:none;stroke-linecap:round;stroke-linejoin:round}.st70{fill:#fff}.st639{fill:none;stroke:#866e8b;stroke-linecap:round;stroke-linejoin:round}.st821{enable-background:new}.st1045,.st1642{fill:none;stroke:#ef6924;stroke-miterlimit:10}.st1642{fill:#ef6924;stroke-width:2}.st1667{display:none}.st1668{display:inline}.st1669{fill:none}.st1670{fill:#585858}.st1671{font-family:&apos;Raleway-Regular&apos;}.st1672{font-size:20px}.st1673{fill:#ee6925}.st1674{display:inline;fill:none}.st1675{font-size:38px}.st1681,.st1683{fill:#fff;stroke:#ef6924;stroke-width:2;stroke-linecap:round;stroke-miterlimit:10}.st1683{fill:none}</style><switch><g><g class="st1667"><g class="st1668"><g><rect width="347.61" height="68.15" x="48.98" y="140.19" class="st1669"/><text transform="matrix(1 0 0 1 48.9788 154.7901)"><tspan x="0" y="0" class="st1670 st1671 st1672">Animation Company Uses RabbitMQ </tspan><tspan x="0" y="24" class="st1670 st1671 st1672">As the IT Nervous System</tspan><tspan x="0" y="48" class="st1673 st1671 st1672">Read the case study</tspan></text></g><line x1="49.16" x2="238.19" y1="205.35" y2="205.35" class="st1045"/></g><rect width="363.8" height="84.81" x="48.98" y="39.66" class="st1674"/><text class="st1668" transform="matrix(1 0 0 1 48.9794 67.4021)"><tspan x="0" y="0" class="st1670 st1671 st1675">LAIKA Gets Creative </tspan><tspan x="0" y="45.6" class="st1670 st1671 st1675">with RabbitMQ</tspan></text></g><polygon points="404.76 92.94 398.24 97.37 406.11 99.95 408.33 107.32 413.25 100.81 421 100.81 416.33 94.54 418.66 87.17 411.28 89.87 404.76 84.96" class="st0"/><g><polygon points="496.56 71.38 488.67 76.69 498.19 79.79 500.87 88.64 506.83 80.82 516.2 80.82 510.55 73.3 513.37 64.45 504.44 67.7 496.56 61.8" class="st0"/></g><g><path d="M569.64,120.89c0.16-0.91,7.02-14.19,7.87-15.71c4.18-7.49,1.57-3.05,7.89-13.82 c10.32-17.6,10.88-31.32,5.34-34.57c-0.47-0.27-0.99-0.48-1.55-0.61c-4.78-1.08-13.64,3.51-19.58,21.84 c-5.16,15.93-5.3,22.61-5.81,25.9c-0.41,2.63,0.68,0.26-0.78,4.64c-5.23,0.48,1.07,8.95-1.89,12.25" class="st70"/><g><g><g><defs><rect id="SVGID_3257_" width="677.32" height="209.94" x="-8.47" y="28.64"/></defs><clipPath id="SVGID_2_"><use xlink:href="#SVGID_3257_" style="overflow:visible"/></clipPath><rect style="clip-path:url(#SVGID_2_);fill:#fff" width="18.36" height="18.36" x="558.93" y="164.47"/></g></g><g><circle cx="568.12" cy="173.65" r="4.71" class="st3"/></g><g><defs><ellipse id="SVGID_3259_" cx="568.12" cy="179.39" rx="5.74" ry="5.74" transform="matrix(0.3025 -0.9531 0.9531 0.3025 225.2656 666.6187)"/></defs><clipPath id="SVGID_4_"><use xlink:href="#SVGID_3259_" style="overflow:visible"/></clipPath><g style="clip-path:url(#SVGID_4_)"><defs><rect id="SVGID_3261_" width="677.32" height="209.94" x="-8.47" y="28.64"/></defs><clipPath id="SVGID_6_"><use xlink:href="#SVGID_3261_" style="overflow:visible"/></clipPath><rect style="clip-path:url(#SVGID_6_);fill:#fff" width="18.36" height="18.36" x="558.93" y="170.21"/></g></g><g><circle cx="568.12" cy="179.39" r="4.71" class="st3"/></g><g><defs><path id="SVGID_3263_" d="M562.38,173.65c0-3.17,2.57-5.74,5.74-5.74c3.17,0,5.74,2.57,5.74,5.74"/></defs><clipPath id="SVGID_8_"><use xlink:href="#SVGID_3263_" style="overflow:visible"/></clipPath><g style="clip-path:url(#SVGID_8_)"><defs><rect id="SVGID_3265_" width="677.32" height="209.94" x="-8.47" y="28.64"/></defs><clipPath id="SVGID_10_"><use xlink:href="#SVGID_3265_" style="overflow:visible"/></clipPath></g></g><g><circle cx="568.12" cy="173.65" r="4.71" class="st70"/></g><g><g><defs><rect id="SVGID_3267_" width="677.32" height="209.94" x="-8.47" y="28.64"/></defs><clipPath id="SVGID_12_"><use xlink:href="#SVGID_3267_" style="overflow:visible"/></clipPath></g></g><g><circle cx="568.12" cy="167.91" r="4.71" class="st70"/></g></g><g><g><path d="M550.6,289.8h34.14c6.09,0,11.04-6.63,11.04-14.8v-54.63c0-20.82-12.58-37.69-28.11-37.69 s-28.11,16.87-28.11,37.69V275C539.57,283.18,544.51,289.8,550.6,289.8z" class="st70"/></g><g><g><defs><path id="SVGID_3269_" d="M539.78,212.26c1.4-6.49,5.6-5.97,7.81-5.97c9.26,0,16.76,11.12,16.76,24.84v3.59 c0,0.06,0,0.06,0,0.13c0,0.04,0,0.04,0,0.09v29.18c0,9.31-5.09,16.86-11.38,16.86h-10.76 C537.43,280.99,539.12,227.37,539.78,212.26z"/></defs><clipPath id="SVGID_14_"><use xlink:href="#SVGID_3269_" style="overflow:visible"/></clipPath><g class="st10"><g><g class="st821"><g><g><line x1="587.39" x2="528.29" y1="281.97" y2="194.37" class="st3"/><line x1="582.28" x2="523.19" y1="281.97" y2="194.37" class="st3"/><line x1="577.18" x2="518.08" y1="281.97" y2="194.37" class="st3"/><line x1="572.07" x2="512.97" y1="281.97" y2="194.37" class="st3"/><line x1="566.96" x2="507.86" y1="281.97" y2="194.37" class="st3"/><line x1="561.85" x2="502.75" y1="281.97" y2="194.37" class="st3"/><line x1="556.74" x2="497.64" y1="281.97" y2="194.37" class="st3"/><line x1="551.63" x2="492.54" y1="281.97" y2="194.37" class="st3"/><line x1="628.26" x2="569.16" y1="281.97" y2="194.37" class="st3"/><line x1="623.15" x2="564.05" y1="281.97" y2="194.37" class="st3"/><line x1="618.04" x2="558.94" y1="281.97" y2="194.37" class="st3"/><line x1="612.93" x2="553.84" y1="281.97" y2="194.37" class="st3"/><line x1="607.83" x2="548.73" y1="281.97" y2="194.37" class="st3"/><line x1="602.72" x2="543.62" y1="281.97" y2="194.37" class="st3"/><line x1="597.61" x2="538.51" y1="281.97" y2="194.37" class="st3"/><line x1="592.5" x2="533.4" y1="281.97" y2="194.37" class="st3"/><line x1="546.53" x2="487.43" y1="281.97" y2="194.37" class="st3"/><line x1="541.42" x2="482.32" y1="281.97" y2="194.37" class="st3"/><line x1="536.31" x2="477.21" y1="281.97" y2="194.37" class="st3"/><line x1="531.2" x2="472.1" y1="281.97" y2="194.37" class="st3"/></g></g></g></g></g></g><path d="M540.98,208.24c1.78-1.61,4.21-2.09,7-1.95c9.26,0,16.76,11.12,16.76,24.84v3.59c0,0.06,0,0.06,0,0.13 c0,0.04,0,0.04,0,0.09v29.18c0,9.31-5.09,16.86-11.38,16.86h-12.69" class="st3"/></g></g><g><g><polygon points="462.1 226.73 491.51 226.73 485.73 212.1 467.88 212.1" class="st70"/><g><rect width="5.42" height="18.17" x="462.74" y="231.55" class="st70" transform="matrix(0.9516 0.3074 -0.3074 0.9516 96.5269 -131.4445)"/><rect width="5.42" height="18.17" x="485.46" y="231.55" class="st70" transform="matrix(-0.9516 0.3074 -0.3074 -0.9516 1026.6666 319.5403)"/></g><circle cx="476.81" cy="204.46" r="13.87" class="st70"/><path d="M458.52,237.27h36.57c3.56,0,6.45-2.89,6.45-6.45v0c0-3.56-2.89-6.45-6.45-6.45h-36.57 c-3.56,0-6.45,2.89-6.45,6.45v0C452.07,234.38,454.96,237.27,458.52,237.27z" class="st70"/></g><g><rect width="33.23" height="13.87" x="421.95" y="177.32" class="st70" transform="matrix(-1 -4.482515e-11 4.482515e-11 -1 877.1395 368.5098)"/><path d="M421.63,200.23L421.63,200.23c5.7,0,10.33-4.62,10.33-10.33v-11.29c0-5.7-4.62-10.33-10.33-10.33l0,0 V200.23z" class="st70"/></g><path d="M458.31,204.26h36.99c4.4,0,7.96-3.56,7.96-7.96v-24.28c0-4.4-3.56-7.96-7.96-7.96h-36.99 c-4.4,0-7.96,3.56-7.96,7.96v24.28C450.35,200.7,453.91,204.26,458.31,204.26z" class="st70"/><line x1="464.79" x2="464.79" y1="165.09" y2="203.44" class="st1681"/><g><g><circle cx="453.49" cy="147.82" r="23.31" class="st70"/><g><circle cx="453.49" cy="147.82" r="6.28" class="st70"/><circle cx="451.88" cy="145.79" r=".46" class="st70"/><circle cx="456.02" cy="148.02" r=".46" class="st70"/><circle cx="452.32" cy="150.02" r=".46" class="st70"/></g></g><g><circle cx="500.12" cy="147.82" r="23.31" class="st70"/><g><circle cx="500.12" cy="147.82" r="6.28" class="st70"/><circle cx="498.5" cy="145.79" r=".46" class="st70"/><circle cx="502.64" cy="148.02" r=".46" class="st70"/><circle cx="498.94" cy="150.02" r=".46" class="st70"/></g></g></g><circle cx="486.99" cy="188.6" r="6.78" class="st70"/><circle cx="514.89" cy="204.15" r="3.55" class="st1681"/><circle cx="486.99" cy="188.6" r="3.46" class="st1642"/><line x1="511.05" x2="487.25" y1="202.74" y2="189.08" class="st1681"/></g><g><g><circle cx="574.99" cy="213.15" r="4.71" class="st70"/></g><g><circle cx="570.47" cy="215.65" r="4.71" class="st70"/></g><g><circle cx="565.63" cy="218.76" r="4.71" class="st70"/></g><g><circle cx="560.99" cy="221.26" r="4.71" class="st70"/></g><g><circle cx="556.15" cy="223.09" r="4.71" class="st70"/></g><g><circle cx="551.34" cy="221.28" r="4.71" class="st70"/></g><g><circle cx="546.34" cy="218.97" r="4.71" class="st70"/></g><g><defs><path id="SVGID_3271_" d="M538.94,221.88c-2.88-1.33-4.14-4.74-2.81-7.62c1.33-2.88,4.74-4.14,7.62-2.81"/></defs><use xlink:href="#SVGID_3271_" style="overflow:visible;fill-rule:evenodd;clip-rule:evenodd;fill:#fff"/><clipPath id="SVGID_16_"><use xlink:href="#SVGID_3271_" style="overflow:visible"/></clipPath><g style="clip-path:url(#SVGID_16_)"><defs><rect id="SVGID_3273_" width="677.32" height="209.94" x="275.87" y="-177.73" transform="matrix(0.4186 -0.9082 0.9082 0.4186 423.3451 515.7882)"/></defs><use xlink:href="#SVGID_3273_" style="overflow:visible;fill:#fff"/><clipPath id="SVGID_18_"><use xlink:href="#SVGID_3273_" style="overflow:visible"/></clipPath></g></g><g><circle cx="541.34" cy="216.67" r="4.71" class="st70"/></g><g><circle cx="536.34" cy="214.36" r="4.71" class="st70"/></g><g><path d="M513.61,199.43c3.83-4.43,10.21-5.9,15.68-3.38c6.69,3.08,9.62,11.01,6.53,17.7 c-3.08,6.69-11.01,9.62-17.7,6.53c-5.17-2.38-8.18-7.73-7.71-13.23l11.15,5.14c2.07,0.95,4.52,0.05,5.48-2.02 c0.95-2.07,0.05-4.52-2.02-5.48L513.61,199.43z" class="st70"/></g></g><path d="M580.26,115.46c0.59-0.72,3.32-3.99,4.79-4.9c7.31-4.49,2.86-1.89,13.65-8.19 c17.62-10.29,24.83-21.98,21.59-27.52c-0.27-0.47-0.63-0.9-1.06-1.29c-3.64-3.28-13.61-3.62-27.76,9.45 c-12.3,11.36-15.57,17.22-17.75,19.74c-4.91,5.67-6.4,11.99-10.6,13.42c7.28,5.05,13.2,9.17,17.76,12.33" class="st70"/><path d="M560.59,166.39h13.11c11.74,0,21.25-9.51,21.25-21.25V127.7c0-11.74-9.52-21.25-21.25-21.25h-13.11 c-11.74,0-21.25,9.51-21.25,21.25v17.43C539.34,156.87,548.86,166.39,560.59,166.39z" class="st70"/><path d="M555.85,165.92c5.87,0,10.64-5.88,10.64-13.99v-15.86v-14.93c0-8.11-5.22-13.99-11.09-13.99" class="st3"/><g><path d="M539.29,131.24c0-3.19,2.22-5.77,4.95-5.77s4.95,2.58,4.95,5.77" class="st1683"/></g><path d="M550.7,146.79c-2.43,4.34-5.49,5.28-9.36,4.96" class="st1683"/><path d="M546.08,151.66v3.9c0,1.31-1.06,2.38-2.38,2.38" class="st3"/><g><g><line x1="556.33" x2="556.33" y1="88.18" y2="106.72" class="st3"/></g><g><circle cx="556.33" cy="88.87" r="5.85" class="st70"/></g></g><path d="M422.32,200.23c2.7,0,4.89-4.62,4.89-10.33v-11.29c0-5.7-2.19-10.33-4.89-10.33" class="st3"/></g><polygon points="451.54 62.2 443.82 64.42 450.64 69.41 450.46 77.26 457.28 72.5 464.79 74.95 462.24 67.4 466.84 61 458.83 61.28 454.07 54.46" class="st639"/><g><g><path d="M624,248H4c-0.83,0-1.5-0.67-1.5-1.5S3.17,245,4,245h620c0.83,0,1.5,0.67,1.5,1.5S624.83,248,624,248z" class="st1"/></g></g><g><path d="M544.48,137.03L544.48,137.03c-6.53,0-11.83-5.3-11.83-11.83v-4.35h23.66v4.35 C556.31,131.73,551.01,137.03,544.48,137.03z" class="st67"/><path d="M556.68,123.73l21.88,0c6.01,0,9.74,6.7,6.42,11.7c-0.16,0.23-0.32,0.47-0.5,0.7" class="st1683"/></g></g></switch></svg>