<svg xmlns="http://www.w3.org/2000/svg" xmlns:xlink="http://www.w3.org/1999/xlink" id="Layer_1" x="0" y="0" version="1.1" viewBox="0 0 984 305" xml:space="preserve" style="enable-background:new 0 0 984 305"><style type="text/css">.st0{fill:#866e8b}.st1{fill:#ef6924}.st2{fill:#fff;stroke:#ef6924;stroke-width:3;stroke-miterlimit:10}.st4{clip-path:url(#SVGID_2_)}.st6{clip-path:url(#SVGID_6_)}.st7{clip-path:url(#SVGID_8_);fill:#fff}.st8{clip-path:url(#SVGID_10_)}.st9{clip-path:url(#SVGID_12_);fill:#fff}.st10{clip-path:url(#SVGID_14_)}.st11{clip-path:url(#SVGID_16_);fill:#fff}.st171{stroke:#ef6924}.st171,.st421,.st91{fill:none;stroke-width:3;stroke-miterlimit:10}.st91{stroke:#ef6924}.st171,.st421{stroke-linecap:round;stroke-linejoin:round}.st421{stroke:#866e8b}.st821{enable-background:new}.st1045{fill:none;stroke:#ef6924;stroke-miterlimit:10}.st1048{fill:none;stroke-linecap:round}.st1048,.st1665,.st1666{stroke:#ef6924;stroke-width:3;stroke-miterlimit:10}.st1665{fill:#fff;stroke-linecap:round}.st1666{fill:#ef6924}.st1667{display:none}.st1668{display:inline}.st1669{fill:none}.st1670{fill:#585858}.st1671{font-family:&apos;Raleway-Regular&apos;}.st1672{font-size:20px}.st1673{fill:#ee6925}.st1674{display:inline;fill:none}.st1675{font-size:38px}</style><switch><g><circle cx="748.61" cy="240.24" r="20.16" class="st2"/><path d="M722.05,287.9h53.13c5.18,0,9.38-4.2,9.38-9.38v0c0-5.18-4.2-9.38-9.38-9.38h-53.13 c-5.18,0-9.38,4.2-9.38,9.38v0C712.67,283.7,716.87,287.9,722.05,287.9z" class="st2"/><path d="M668.45,234.09L668.45,234.09c8.28,0,15-6.72,15-15v-16.41c0-8.28-6.72-15-15-15l0,0V234.09z" class="st2"/><g><defs><rect id="SVGID_3237_" width="8" height="16" x="-161.32" y="84.8" transform="matrix(0.8572 -0.515 0.515 0.8572 -70.2684 -67.7712)"/></defs><clipPath id="SVGID_2_"><use xlink:href="#SVGID_3237_" style="overflow:visible"/></clipPath><g class="st4"><defs><rect id="SVGID_3239_" width="984" height="305" x="-196.87" y="41.72"/></defs><clipPath id="SVGID_4_"><use xlink:href="#SVGID_3239_" style="overflow:visible"/></clipPath></g></g><polygon points="647.91 69.87 638.44 76.3 649.88 80.05 653.1 90.76 660.25 81.3 671.51 81.3 664.72 72.19 668.12 61.48 657.39 65.41 647.91 58.27" class="st0"/><g><polygon points="777.31 46.91 765.85 54.62 779.68 59.12 783.58 71.98 792.22 60.62 805.85 60.62 797.63 49.69 801.74 36.84 788.77 41.55 777.31 32.98" class="st0"/></g><g><path d="M883.49,118.83c0.23-1.32,10.2-20.62,11.43-22.82c6.07-10.89,2.28-4.43,11.46-20.08 c15-25.57,15.81-45.5,7.76-50.23c-0.68-0.4-1.43-0.69-2.26-0.88c-6.94-1.57-19.81,5.1-28.44,31.73 c-7.49,23.14-7.69,32.85-8.43,37.63c-0.59,3.82,0.99,0.37-1.13,6.74c-7.59,0.7,1.56,13-2.75,17.8" class="st2"/><g><g><defs><ellipse id="SVGID_3241_" cx="881.27" cy="195.48" rx="8.34" ry="8.34" transform="matrix(0.4981 -0.8671 0.8671 0.4981 272.8332 862.3047)"/></defs><clipPath id="SVGID_6_"><use xlink:href="#SVGID_3241_" style="overflow:visible"/></clipPath><g class="st6"><defs><rect id="SVGID_3243_" width="984" height="305" x="43.61" y="-15.2"/></defs><clipPath id="SVGID_8_"><use xlink:href="#SVGID_3243_" style="overflow:visible"/></clipPath><rect width="26.68" height="26.68" x="867.93" y="182.14" class="st7"/></g></g><g><circle cx="881.27" cy="195.48" r="6.84" class="st91"/></g><g><defs><ellipse id="SVGID_3245_" cx="881.27" cy="203.82" rx="8.34" ry="8.34" transform="matrix(0.3025 -0.9531 0.9531 0.3025 420.3994 982.1364)"/></defs><clipPath id="SVGID_10_"><use xlink:href="#SVGID_3245_" style="overflow:visible"/></clipPath><g class="st8"><defs><rect id="SVGID_3247_" width="984" height="305" x="43.61" y="-15.2"/></defs><clipPath id="SVGID_12_"><use xlink:href="#SVGID_3247_" style="overflow:visible"/></clipPath><rect width="26.68" height="26.68" x="867.93" y="190.48" class="st9"/></g></g><g><circle cx="881.27" cy="203.82" r="6.84" class="st2"/></g><g><defs><path id="SVGID_3249_" d="M872.93,195.48c0-4.61,3.73-8.34,8.34-8.34c4.61,0,8.34,3.73,8.34,8.34"/></defs><clipPath id="SVGID_14_"><use xlink:href="#SVGID_3249_" style="overflow:visible"/></clipPath><g class="st10"><defs><rect id="SVGID_3251_" width="984" height="305" x="43.61" y="-15.2"/></defs><clipPath id="SVGID_16_"><use xlink:href="#SVGID_3251_" style="overflow:visible"/></clipPath><rect width="26.68" height="26.68" x="867.93" y="182.14" class="st11"/></g></g><g><circle cx="881.27" cy="195.48" r="6.84" class="st2"/></g><g><g><defs><rect id="SVGID_3253_" width="984" height="305" x="43.61" y="-15.2"/></defs><clipPath id="SVGID_18_"><use xlink:href="#SVGID_3253_" style="overflow:visible"/></clipPath></g></g><g><circle cx="881.27" cy="187.14" r="6.84" class="st2"/></g></g><g><g><path d="M855.82,364.23h49.6c8.85,0,16.03-9.63,16.03-21.5v-79.36c0-30.24-18.28-54.76-40.83-54.76 c-22.55,0-40.83,24.52-40.83,54.76v79.36C839.79,354.6,846.97,364.23,855.82,364.23z" class="st2"/></g><g><g><defs><path id="SVGID_3255_" d="M840.11,251.58c2.04-9.42,8.13-8.67,11.34-8.67c13.45,0,24.35,16.16,24.35,36.09v5.22 c0,0.09,0,0.09,0,0.18c0,0.06,0,0.06,0,0.14v42.39c0,13.53-7.4,24.5-16.53,24.5h-15.64 C836.69,351.42,839.14,273.53,840.11,251.58z"/></defs><clipPath id="SVGID_20_"><use xlink:href="#SVGID_3255_" style="overflow:visible"/></clipPath><g style="clip-path:url(#SVGID_20_)"><g><g class="st821"><g><g><line x1="909.27" x2="823.41" y1="352.84" y2="225.58" class="st91"/><line x1="901.85" x2="815.99" y1="352.84" y2="225.58" class="st91"/><line x1="894.43" x2="808.57" y1="352.84" y2="225.58" class="st91"/><line x1="887.01" x2="801.15" y1="352.84" y2="225.58" class="st91"/><line x1="879.59" x2="793.73" y1="352.84" y2="225.58" class="st91"/><line x1="872.17" x2="786.31" y1="352.84" y2="225.58" class="st91"/><line x1="864.75" x2="778.89" y1="352.84" y2="225.58" class="st91"/><line x1="857.32" x2="771.47" y1="352.84" y2="225.58" class="st91"/><line x1="968.64" x2="882.78" y1="352.84" y2="225.58" class="st91"/><line x1="961.22" x2="875.36" y1="352.84" y2="225.58" class="st91"/><line x1="953.8" x2="867.94" y1="352.84" y2="225.58" class="st91"/><line x1="946.38" x2="860.52" y1="352.84" y2="225.58" class="st91"/><line x1="938.96" x2="853.1" y1="352.84" y2="225.58" class="st91"/><line x1="931.54" x2="845.68" y1="352.84" y2="225.58" class="st91"/><line x1="924.12" x2="838.26" y1="352.84" y2="225.58" class="st91"/><line x1="916.69" x2="830.84" y1="352.84" y2="225.58" class="st91"/><line x1="849.9" x2="764.04" y1="352.84" y2="225.58" class="st91"/><line x1="842.48" x2="756.62" y1="352.84" y2="225.58" class="st91"/><line x1="835.06" x2="749.2" y1="352.84" y2="225.58" class="st91"/><line x1="827.64" x2="741.78" y1="352.84" y2="225.58" class="st91"/></g></g></g></g></g></g><path d="M841.85,245.74c2.59-2.34,6.12-3.04,10.17-2.83c13.45,0,24.35,16.16,24.35,36.09v5.22 c0,0.09,0,0.09,0,0.18c0,0.06,0,0.06,0,0.14v42.39c0,13.53-7.4,24.5-16.53,24.5H841.4" class="st91"/></g></g><g><g><polygon points="727.25 272.59 769.98 272.59 761.58 251.34 735.64 251.34" class="st2"/><g><rect width="7.87" height="26.4" x="728.18" y="279.6" class="st2" transform="matrix(0.9516 0.3074 -0.3074 0.9516 125.4794 -210.9028)"/><rect width="7.87" height="26.4" x="761.18" y="279.6" class="st2" transform="matrix(-0.9516 0.3074 -0.3074 -0.9516 1583.1899 336.1907)"/></g><circle cx="748.61" cy="240.24" r="20.16" class="st2"/><path d="M722.05,287.9h53.13c5.18,0,9.38-4.2,9.38-9.38v0c0-5.18-4.2-9.38-9.38-9.38h-53.13 c-5.18,0-9.38,4.2-9.38,9.38v0C712.67,283.7,716.87,287.9,722.05,287.9z" class="st2"/></g><g><rect width="48.28" height="20.16" x="668.92" y="200.81" class="st2" transform="matrix(-1 -4.494417e-11 4.494417e-11 -1 1386.1282 421.7724)"/><path d="M668.45,234.09L668.45,234.09c8.28,0,15-6.72,15-15v-16.41c0-8.28-6.72-15-15-15l0,0V234.09z" class="st2"/></g><path d="M718.14,239.95h60.95c4.4,0,7.96-3.56,7.96-7.96V189.5c0-4.4-3.56-7.96-7.96-7.96h-60.95 c-4.4,0-7.96,3.56-7.96,7.96v42.49C710.17,236.39,713.74,239.95,718.14,239.95z" class="st2"/><line x1="731.15" x2="731.15" y1="183.04" y2="238.76" class="st1665"/><g><g><circle cx="714.74" cy="157.95" r="33.87" class="st2"/><g><circle cx="714.74" cy="157.95" r="9.12" class="st2"/><circle cx="712.4" cy="155.01" r=".66" class="st2"/><circle cx="718.41" cy="158.25" r=".66" class="st2"/><circle cx="713.04" cy="161.15" r=".66" class="st2"/></g></g><g><circle cx="782.48" cy="157.95" r="33.87" class="st2"/><g><circle cx="782.48" cy="157.95" r="9.12" class="st2"/><circle cx="780.14" cy="155.01" r=".66" class="st2"/><circle cx="786.15" cy="158.25" r=".66" class="st2"/><circle cx="780.78" cy="161.15" r=".66" class="st2"/></g></g></g><circle cx="763.41" cy="217.2" r="9.84" class="st2"/><circle cx="803.94" cy="239.79" r="5.16" class="st1665"/><circle cx="763.41" cy="217.2" r="5.03" class="st1666"/><line x1="798.36" x2="763.79" y1="237.74" y2="217.9" class="st1665"/></g><g><g><circle cx="891.25" cy="252.86" r="6.84" class="st2"/></g><g><circle cx="884.69" cy="256.49" r="6.84" class="st2"/></g><g><circle cx="877.65" cy="261.01" r="6.84" class="st2"/></g><g><circle cx="870.92" cy="264.65" r="6.84" class="st2"/></g><g><circle cx="863.89" cy="267.31" r="6.84" class="st2"/></g><g><circle cx="856.9" cy="264.67" r="6.84" class="st2"/></g><g><circle cx="849.64" cy="261.32" r="6.84" class="st2"/></g><g><circle cx="842.37" cy="257.97" r="6.84" class="st2"/></g><g><circle cx="835.11" cy="254.63" r="6.84" class="st2"/></g><g><path d="M802.08,232.94c5.56-6.44,14.84-8.58,22.78-4.92c9.72,4.48,13.97,16,9.49,25.72 c-4.48,9.72-16,13.97-25.72,9.49c-7.51-3.46-11.88-11.23-11.21-19.23l16.2,7.47c3.01,1.39,6.57,0.07,7.96-2.94 c1.39-3.01,0.07-6.57-2.94-7.96L802.08,232.94z" class="st2"/></g></g><path d="M898.91,110.94c0.85-1.04,4.82-5.8,6.96-7.12c10.62-6.52,4.16-2.75,19.83-11.89 c25.6-14.95,36.07-31.93,31.37-39.99c-0.4-0.68-0.91-1.31-1.54-1.87c-5.28-4.76-19.77-5.26-40.34,13.73 c-17.87,16.5-22.62,25.02-25.79,28.68c-7.13,8.23-9.29,17.43-15.4,19.5" class="st2"/><path d="M860.72,184.93h38.3c11.74,0,21.25-9.51,21.25-21.25v-44.56c0-11.74-9.52-21.25-21.25-21.25h-38.3 c-11.74,0-21.25,9.51-21.25,21.25v44.56C839.46,175.41,848.98,184.93,860.72,184.93z" class="st2"/><path d="M855.68,184.25c12.82,0,23.22-8.55,23.22-20.33v-23.04v-21.69c0-11.78-11.4-20.33-24.22-20.33" class="st91"/><g><path d="M839.38,133.87c0-4.63,3.22-8.39,7.2-8.39s7.2,3.75,7.2,8.39" class="st1048"/></g><path d="M853.06,156.46c-3.53,6.3-7.98,7.68-13.6,7.21" class="st1048"/><path d="M846.35,163.53v5.66c0,1.91-1.55,3.45-3.45,3.45h-1.29" class="st91"/><g><g><line x1="864.15" x2="864.15" y1="71.31" y2="98.25" class="st91"/></g><g><circle cx="864.15" cy="72.31" r="8.5" class="st2"/></g></g><path d="M669.45,234.09c3.93,0,7.11-6.72,7.11-15v-16.41c0-8.28-3.18-15-7.11-15" class="st91"/></g><g class="st1667"><g class="st1668"><g><rect width="347.61" height="68.15" x="70.1" y="168.69" class="st1669"/><text transform="matrix(1 0 0 1 70.1042 183.2901)"><tspan x="0" y="0" class="st1670 st1671 st1672">Animation Company Uses RabbitMQ </tspan><tspan x="0" y="24" class="st1670 st1671 st1672">As the IT Nervous System</tspan><tspan x="0" y="48" class="st1673 st1671 st1672">Read the case study</tspan></text></g><line x1="70.29" x2="259.32" y1="233.85" y2="233.85" class="st1045"/></g><rect width="363.8" height="84.81" x="70.1" y="68.16" class="st1674"/><text class="st1668" transform="matrix(1 0 0 1 70.1048 95.9021)"><tspan x="0" y="0" class="st1670 st1671 st1675">LAIKA Gets Creative </tspan><tspan x="0" y="45.6" class="st1670 st1671 st1675">with RabbitMQ</tspan></text></g><g><path d="M439.78-37.39c9.53,9.45,1.09,17.97,10.62,27.42c9.53,9.45,17.98,0.93,27.51,10.37 c9.54,9.45,1.09,17.97,10.62,27.42c9.53,9.45,17.98,0.93,27.51,10.37c9.53,9.45,1.09,17.97,10.62,27.42 c9.53,9.45,17.98,0.93,27.52,10.38c9.54,9.45,1.09,17.97,10.62,27.43c9.53,9.45,17.98,0.93,27.51,10.37 c9.54,9.45,1.09,17.97,10.63,27.43c9.54,9.45,17.98,0.93,27.52,10.38c9.54,9.45,1.09,17.98,10.63,27.43s17.99,0.93,27.52,10.38" class="st1048"/></g><g><path d="M667.68,234.46c-9.3,6.67-16.29-3.09-25.6,3.58c-9.3,6.67-2.31,16.42-11.62,23.09 c-9.31,6.67-16.3-3.09-25.6,3.58c-9.3,6.67-2.31,16.42-11.62,23.09c-9.3,6.67-16.29-3.09-25.6,3.58 c-9.31,6.67-2.32,16.42-11.62,23.09c-9.31,6.67-16.3-3.09-25.6,3.58c-9.3,6.67-2.31,16.42-11.62,23.09 c-9.31,6.67-16.3-3.09-25.6,3.58c-9.31,6.67-2.32,16.42-11.63,23.09c-9.31,6.67-16.3-3.08-25.61,3.59s-2.32,16.42-11.63,23.1" class="st1048"/></g><g><g><path d="M981.5,305H2.5c-0.83,0-1.5-0.67-1.5-1.5s0.67-1.5,1.5-1.5h979c0.83,0,1.5,0.67,1.5,1.5 S982.33,305,981.5,305z" class="st1"/></g></g><polygon points="711.91 33.56 700.7 36.79 710.6 44.04 710.33 55.44 720.25 48.53 731.16 52.09 727.46 41.12 734.13 31.82 722.5 32.23 715.58 22.32" class="st421"/><g><path d="M844.97,142.89L844.97,142.89c-9.71,0-17.58-7.87-17.58-17.58v-6.47h35.16v6.47 C862.55,135.02,854.68,142.89,844.97,142.89z" class="st171"/><path d="M863.11,123.13l32.51,0c8.92,0,14.48,9.95,9.53,17.38c-0.23,0.35-0.48,0.69-0.74,1.04" class="st1048"/></g></g></switch></svg>