<svg xmlns="http://www.w3.org/2000/svg" xmlns:xlink="http://www.w3.org/1999/xlink" id="Layer_1" x="0" y="0" version="1.1" viewBox="0 0 984 305" xml:space="preserve" style="enable-background:new 0 0 984 305"><style type="text/css">.st1{clip-path:url(#SVGID_2_)}.st3{clip-path:url(#SVGID_6_)}.st5{clip-path:url(#SVGID_10_)}.st7{clip-path:url(#SVGID_14_)}.st168{fill:none;stroke:#ef6924;stroke-width:3;stroke-linecap:round;stroke-linejoin:round;stroke-miterlimit:10}.st174{fill:#fff}.st1046,.st419,.st646{stroke-width:3;stroke-linecap:round;stroke-miterlimit:10}.st419{fill:none;stroke:#866e8b;stroke-linejoin:round}.st1046,.st646{stroke:#ef6924}.st646{fill:#fff;stroke-linejoin:round}.st1046{fill:none}</style><switch><g><g><g><defs><circle id="SVGID_1239_" cx="1339.33" cy="242.18" r="4.26"/></defs><clipPath id="SVGID_2_"><use xlink:href="#SVGID_1239_" style="overflow:visible"/></clipPath><g class="st1"><defs><rect id="SVGID_1241_" width="698.06" height="216.37" x="678.16" y="174.79"/></defs><clipPath id="SVGID_4_"><use xlink:href="#SVGID_1241_" style="overflow:visible"/></clipPath></g></g><g><defs><circle id="SVGID_1243_" cx="1604.84" cy="319.15" r="4.26"/></defs><clipPath id="SVGID_6_"><use xlink:href="#SVGID_1243_" style="overflow:visible"/></clipPath><g class="st3"><defs><rect id="SVGID_1245_" width="698.06" height="216.37" x="935.15" y="180.82"/></defs><clipPath id="SVGID_8_"><use xlink:href="#SVGID_1245_" style="overflow:visible"/></clipPath></g></g><g><defs><circle id="SVGID_1247_" cx="1523.53" cy="135.41" r="4.26"/></defs><clipPath id="SVGID_10_"><use xlink:href="#SVGID_1247_" style="overflow:visible"/></clipPath><g class="st5"><defs><rect id="SVGID_1249_" width="698.06" height="216.37" x="862.36" y="68.01"/></defs><clipPath id="SVGID_12_"><use xlink:href="#SVGID_1249_" style="overflow:visible"/></clipPath><use xlink:href="#SVGID_1249_" style="overflow:visible;fill:none;stroke:#ef6924;stroke-width:2;stroke-linecap:round;stroke-linejoin:round;stroke-miterlimit:10"/></g><use xlink:href="#SVGID_1247_" style="overflow:visible;fill-rule:evenodd;clip-rule:evenodd;fill:none;stroke:#ef6924;stroke-width:2;stroke-linecap:round;stroke-linejoin:round;stroke-miterlimit:10"/></g><g><defs><circle id="SVGID_1251_" cx="1391.84" cy="170.18" r="4.26"/></defs><clipPath id="SVGID_14_"><use xlink:href="#SVGID_1251_" style="overflow:visible"/></clipPath><g class="st7"><defs><rect id="SVGID_1253_" width="698.06" height="216.37" x="722.15" y="31.84"/></defs><clipPath id="SVGID_16_"><use xlink:href="#SVGID_1253_" style="overflow:visible"/></clipPath><use xlink:href="#SVGID_1253_" style="overflow:visible;fill:none;stroke:#866e8b;stroke-width:2;stroke-linecap:round;stroke-linejoin:round;stroke-miterlimit:10"/></g><use xlink:href="#SVGID_1251_" style="overflow:visible;fill-rule:evenodd;clip-rule:evenodd;fill:none;stroke:#866e8b;stroke-width:2;stroke-linecap:round;stroke-linejoin:round;stroke-miterlimit:10"/></g></g><g><path d="M881.92,43.16c0.44-7.39-1.58-13.55-8.95-14.2c-7.38-0.65-21.99,8.13-28.82,25.86S832.23,87.17,828,91.64 c-4.23,4.47-6.63,6.82-6.63,6.82l19.87,6.28c0,0,26.06-25.64,33.56-39.67C878.98,57.24,881.52,49.92,881.92,43.16z" class="st168"/><path d="M741.42,43.16c-0.44-7.39,1.58-13.55,8.95-14.2c7.38-0.65,21.99,8.13,28.82,25.86s11.91,32.36,16.14,36.82 c4.23,4.47,6.63,6.82,6.63,6.82l-19.87,6.28c0,0-26.06-25.64-33.56-39.67C744.36,57.24,741.82,49.92,741.42,43.16z" class="st168"/><g><circle cx="911.85" cy="177.06" r="7.07" class="st646"/><circle cx="905.75" cy="184.99" r="7.07" class="st646"/><circle cx="899.64" cy="192.91" r="7.07" class="st646"/><circle cx="893.54" cy="200.83" r="7.07" class="st646"/><circle cx="887.44" cy="208.75" r="7.07" class="st646"/><circle cx="881.34" cy="216.67" r="7.07" class="st646"/><circle cx="875.23" cy="224.6" r="7.07" class="st646"/><circle cx="869.13" cy="232.52" r="7.07" class="st646"/><circle cx="863.03" cy="240.44" r="7.07" class="st646"/></g><g><g><circle cx="703.32" cy="213.29" r="7.07" class="st646"/><circle cx="706.59" cy="222.74" r="7.07" class="st646"/><circle cx="709.87" cy="232.19" r="7.07" class="st646"/><circle cx="713.14" cy="241.64" r="7.07" class="st646"/><circle cx="716.42" cy="251.08" r="7.07" class="st646"/></g><circle cx="725.91" cy="250.64" r="7.07" class="st646"/><circle cx="735.91" cy="250.64" r="7.07" class="st646"/><circle cx="745.91" cy="250.64" r="7.07" class="st646"/><circle cx="755.91" cy="250.64" r="7.07" class="st646"/><circle cx="765.91" cy="250.64" r="7.07" class="st646"/></g><g><circle cx="814.38" cy="201" r="7.07" class="st646"/><circle cx="814.38" cy="211" r="7.07" class="st646"/><circle cx="814.38" cy="221" r="7.07" class="st646"/></g><path d="M868.27,327.39H760.49v-60.07c0-29.76,24.13-53.89,53.89-53.89h0c29.76,0,53.89,24.13,53.89,53.89V327.39z" class="st646"/><path d="M843.58,197.93h-58.4c-13.53,0-24.5-10.97-24.5-24.5v-34.75c0-13.53,10.97-24.5,24.5-24.5h58.4 c13.53,0,24.5,10.97,24.5,24.5v34.75C868.08,186.96,857.11,197.93,843.58,197.93z" class="st646"/><path d="M778.6,144.3c0-4.27,3.46-7.73,7.73-7.73c4.27,0,7.73,3.46,7.73,7.73" class="st168"/><path d="M832.49,144.3c0-4.27,3.46-7.73,7.73-7.73c4.27,0,7.73,3.46,7.73,7.73" class="st168"/><g><path d="M825.65,183.92h-22.54c-7.79,0-14.1-6.31-14.1-14.1v-7.18c0-3.94,3.19-7.13,7.13-7.13h36.5 c3.94,0,7.13,3.19,7.13,7.13v7.18C839.75,177.61,833.44,183.92,825.65,183.92z" class="st168"/><path d="M816.91,172.3h-5.06c-3.85,0-6.97-3.12-6.97-6.97v-9.37h18.99v9.37 C823.87,169.18,820.75,172.3,816.91,172.3z" class="st168"/><line x1="814.38" x2="814.38" y1="155.95" y2="172.3" class="st168"/></g><path d="M937.58,144.01l-7.03,16.4c-1.38,3.21-5.1,4.7-8.31,3.33l0,0c-3.21-1.38-4.7-5.1-3.33-8.31l7.03-16.4 c-8.11-0.61-16.07,3.9-19.46,11.8c-4.26,9.94,0.35,21.44,10.28,25.7c9.94,4.26,21.44-0.35,25.7-10.28 C945.85,158.33,943.62,149.46,937.58,144.01z" class="st646"/><g><g><defs><path id="SVGID_1255_" d="M850.16,306.96H778.6V267c0-19.76,16.02-35.78,35.78-35.78h0c19.76,0,35.78,16.02,35.78,35.78 V306.96z"/></defs><clipPath id="SVGID_18_"><use xlink:href="#SVGID_1255_" style="overflow:visible"/></clipPath><polyline style="clip-path:url(#SVGID_18_);fill:#fff;stroke:#ef6924;stroke-width:3;stroke-linecap:round;stroke-linejoin:round;stroke-miterlimit:10" points="821.47 229.87 857.68 266.42 857.68 278.38 808.83 230.21 798.58 233.28 857.68 291.7 857.68 304.34 791.41 238.41 785.26 245.24 849.82 309.46 837.79 309.46 779.79 252.07 777.06 262.32 822.49 307.75 810.47 307.75 775.01 272.91 775.69 286.58 795.85 308.44 785.6 308.44 775.69 298.53 775.69 309.12"/></g><path d="M850.16,306.96H778.6V267c0-19.76,16.02-35.78,35.78-35.78h0c19.76,0,35.78,16.02,35.78,35.78V306.96z" class="st168"/></g><g><path d="M809.67,78.55c0,0-9.67-1.75-18.6,1.36c-8.93,3.11-35.79,18.87-39.61,27.18 c-4.73,10.3,2.66,17.58,6.6,18.83c8.06,2.56,30.88-7.03,30.88-7.03l51.81-1.73c0,0,20.93,8.47,28.92,8.75 c8.34,0.29,12.28-12,6.6-18.83c-5.84-7.04-30.68-24.08-39.61-27.18c-8.93-3.11-16.5-1.36-16.5-1.36" class="st646"/><ellipse cx="814.91" cy="77.48" class="st646" rx="5.24" ry="2.62"/><line x1="814.81" x2="813.45" y1="81.65" y2="101.65" class="st646"/><path d="M812,80.29c0,0-14.37,3.88-23.49,9.51c-9.13,5.63-17.09,13.4-17.09,13.4" class="st646"/><path d="M818.41,80.29c0,0,14.37,3.88,23.49,9.51c9.13,5.63,17.09,13.4,17.09,13.4" class="st646"/><path d="M858.21,123.34c0,0-12.43-13.01-42.33-13.98c-29.9-0.97-45.63,12.62-45.63,12.62 c-3.49,4.13-3.15,7.07,0,8.79c0,0,15.73-13.59,45.63-12.62c29.9,0.97,42.33,13.98,42.33,13.98 C861.7,131.55,862.09,126.89,858.21,123.34z" class="st646"/></g><path d="M686.08,174.68l5.27,17.05c1.03,3.34,4.58,5.21,7.92,4.18l0,0c3.34-1.03,5.21-4.58,4.18-7.92l-5.27-17.05 c8.13,0.24,15.58,5.56,18.12,13.76c3.2,10.33-2.59,21.29-12.91,24.48c-10.33,3.2-21.29-2.59-24.48-12.91 C676.36,188.07,679.51,179.47,686.08,174.68z" class="st646"/><g><path d="M721.7,181.94l-94.72,24.55c-6.18,1.6-12.49-2.11-14.09-8.29c-6.6-30.8-14.23-59.57-26.11-79.91 c29.46-3.63,72.56-16.5,117.1-30.35l26.11,79.91C731.59,174.03,727.88,180.34,721.7,181.94z" class="st646"/><path d="M723.88,168.72l-94.72,24.55c-6.18,1.6-11.03,4.3-12.94-8.71c-2.5-17.05-8.37-34.64-19.58-61.84 c37.87-6.36,77.06-16.99,117.1-30.35l18.43,62.26C733.77,160.8,730.06,167.11,723.88,168.72z" class="st646"/><path d="M623.92,197.49c-3.71-25.25-9.44-49.28-18.48-71.3c35.42-5.21,75.45-16.68,117.1-30.35 c9.36,24.06,17.82,64.64,17.96,69.28c0.14,4.65-2.11,12.49-8.29,14.09l-94.72,24.55" class="st646"/><rect width="31.97" height="43.97" x="688.61" y="115.09" class="st646" transform="matrix(0.968 -0.2509 0.2509 0.968 -11.8546 181.1645)"/><path d="M633.35,145.65c2.98-2.87,6.73-6.05,11.03-5.87c1.88,0.08,3.53,0.82,5.34,1.14 c3.93,0.7,8.34-0.65,11.82-2.79s6.22-4.99,8.9-7.81" class="st646"/><path d="M635.62,154.41c2.98-2.87,6.73-6.05,11.03-5.87c1.88,0.08,3.53,0.82,5.34,1.14 c3.93,0.7,8.34-0.65,11.82-2.79s6.22-4.99,8.9-7.81" class="st646"/><path d="M637.89,163.17c2.98-2.87,6.73-6.05,11.03-5.87c1.88,0.08,3.53,0.82,5.34,1.14 c3.93,0.7,8.34-0.65,11.82-2.79s6.22-4.99,8.9-7.81" class="st646"/><path d="M640.16,171.93c2.98-2.87,6.73-6.05,11.03-5.87c1.88,0.08,3.53,0.82,5.34,1.14 c3.93,0.7,8.34-0.65,11.82-2.79s6.22-4.99,8.9-7.81" class="st646"/></g><path d="M699.28,195.9c3.34-1.03,5.21-4.58,4.18-7.92l-5.27-17.05c8.13,0.24,15.58,5.56,18.12,13.76 c3.2,10.33-2.59,21.29-12.91,24.48" class="st646"/><rect width="173.15" height="106.01" x="738.29" y="302.09" class="st174"/></g><g><rect width="16" height="8" x="513.47" y="162.84" class="st419" transform="matrix(0.5 -0.866 0.866 0.5 116.2453 535.027)"/></g><polygon points="564.72 37.19 531.72 37.19 548.22 70.19" class="st168"/><g><path d="M469.3,112.98c-8.25,0-14.96-6.71-14.96-14.96c0-8.25,6.71-14.96,14.96-14.96s14.96,6.71,14.96,14.96 C484.25,106.27,477.54,112.98,469.3,112.98z M469.3,89.93c-4.46,0-8.09,3.63-8.09,8.09c0,4.46,3.63,8.09,8.09,8.09 c4.46,0,8.09-3.63,8.09-8.09C477.39,93.56,473.76,89.93,469.3,89.93z" class="st419"/></g><g><path d="M460.81,223.55c-11.49,0-20.84-9.35-20.84-20.84c0-11.49,9.35-20.84,20.84-20.84 c11.49,0,20.84,9.35,20.84,20.84C481.66,214.2,472.3,223.55,460.81,223.55z M460.81,191.44c-6.22,0-11.27,5.06-11.27,11.27 s5.06,11.27,11.27,11.27c6.22,0,11.27-5.06,11.27-11.27S467.03,191.44,460.81,191.44z" class="st168"/></g><g><defs><circle id="SVGID_2741_" cx="546.89" cy="113.55" r="6"/></defs><clipPath id="SVGID_20_"><use xlink:href="#SVGID_2741_" style="overflow:visible"/></clipPath><g style="clip-path:url(#SVGID_20_)"><defs><rect id="SVGID_2743_" width="984" height="305" x="-385.11" y="18.55"/></defs><clipPath id="SVGID_22_"><use xlink:href="#SVGID_2743_" style="overflow:visible"/></clipPath><rect style="clip-path:url(#SVGID_22_);fill:#ef6924" width="22" height="22" x="535.89" y="102.55"/></g></g><g><defs><circle id="SVGID_2745_" cx="631.7" cy="259.06" r="6"/></defs><clipPath id="SVGID_24_"><use xlink:href="#SVGID_2745_" style="overflow:visible"/></clipPath><g style="clip-path:url(#SVGID_24_)"><defs><rect id="SVGID_2747_" width="984" height="305" x="-312.3" y="64.06"/></defs><clipPath id="SVGID_26_"><use xlink:href="#SVGID_2747_" style="overflow:visible"/></clipPath><rect style="clip-path:url(#SVGID_26_);fill:#876e8c" width="22" height="22" x="620.7" y="248.06"/></g></g><polygon points="570.34 192.33 539.16 223.84 586.26 239.26" class="st419"/><g><defs><circle id="SVGID_2749_" cx="513.79" cy="253.06" r="6"/></defs><clipPath id="SVGID_28_"><use xlink:href="#SVGID_2749_" style="overflow:visible"/></clipPath><g style="clip-path:url(#SVGID_28_)"><defs><rect id="SVGID_2751_" width="984" height="305" x="-418.21" y="158.06"/></defs><clipPath id="SVGID_30_"><use xlink:href="#SVGID_2751_" style="overflow:visible"/></clipPath><rect style="clip-path:url(#SVGID_30_);fill:none;stroke:#ef6924;stroke-width:3;stroke-linecap:round;stroke-linejoin:round;stroke-miterlimit:10" width="22" height="22" x="502.79" y="242.06"/><use xlink:href="#SVGID_2751_" style="overflow:visible;fill:none;stroke:#ef6924;stroke-width:3;stroke-linecap:round;stroke-linejoin:round;stroke-miterlimit:10"/></g><use xlink:href="#SVGID_2749_" style="overflow:visible;fill-rule:evenodd;clip-rule:evenodd;fill:none;stroke:#ef6924;stroke-width:3;stroke-linecap:round;stroke-linejoin:round;stroke-miterlimit:10"/></g><g><defs><circle id="SVGID_2753_" cx="629.05" cy="44.39" r="6"/></defs><clipPath id="SVGID_32_"><use xlink:href="#SVGID_2753_" style="overflow:visible"/></clipPath><g style="clip-path:url(#SVGID_32_)"><defs><rect id="SVGID_2755_" width="984" height="305" x="-314.95" y="-150.61"/></defs><clipPath id="SVGID_34_"><use xlink:href="#SVGID_2755_" style="overflow:visible"/></clipPath><rect style="clip-path:url(#SVGID_34_);fill:none;stroke:#866e8b;stroke-width:3;stroke-linecap:round;stroke-linejoin:round;stroke-miterlimit:10" width="22" height="22" x="618.05" y="33.39"/><use xlink:href="#SVGID_2755_" style="overflow:visible;fill:none;stroke:#866e8b;stroke-width:3;stroke-linecap:round;stroke-linejoin:round;stroke-miterlimit:10"/></g><use xlink:href="#SVGID_2753_" style="overflow:visible;fill-rule:evenodd;clip-rule:evenodd;fill:none;stroke:#866e8b;stroke-width:3;stroke-linecap:round;stroke-linejoin:round;stroke-miterlimit:10"/></g><g><line x1="2.5" x2="981.5" y1="303" y2="303" class="st1046"/></g></g></switch></svg>