<svg xmlns="http://www.w3.org/2000/svg" xmlns:xlink="http://www.w3.org/1999/xlink" id="Layer_1" x="0" y="0" version="1.1" viewBox="0 0 260 399" xml:space="preserve" style="enable-background:new 0 0 260 399"><style type="text/css">.st1{clip-path:url(#SVGID_2_)}.st3{clip-path:url(#SVGID_6_)}.st5{clip-path:url(#SVGID_10_)}.st7{clip-path:url(#SVGID_14_)}.st9{clip-path:url(#SVGID_18_)}.st11{clip-path:url(#SVGID_22_)}.st13{clip-path:url(#SVGID_26_)}.st15{clip-path:url(#SVGID_30_)}.st17{clip-path:url(#SVGID_34_)}.st64{fill:none;stroke:#ef6924;stroke-width:2;stroke-linejoin:round}.st1046,.st635,.st637,.st64{stroke-linecap:round;stroke-miterlimit:10}.st635{fill:#fff;stroke:#ef6924;stroke-width:2;stroke-linejoin:round}.st1046,.st637{fill:none}.st637{stroke:#866e8b;stroke-width:2;stroke-linejoin:round}.st1046{stroke:#ef6924;stroke-width:3}</style><switch><g><g><g><defs><ellipse id="SVGID_1833_" cx="91.1" cy="-204.18" rx="6.14" ry="6.26"/></defs><clipPath id="SVGID_2_"><use xlink:href="#SVGID_1833_" style="overflow:visible"/></clipPath><g class="st1"><defs><rect id="SVGID_1835_" width="737.44" height="291.22" x="48.43" y="-267.76"/></defs><clipPath id="SVGID_4_"><use xlink:href="#SVGID_1835_" style="overflow:visible"/></clipPath></g></g><g><defs><ellipse id="SVGID_1837_" cx="85.58" cy="-204.18" rx="6.14" ry="6.26"/></defs><clipPath id="SVGID_6_"><use xlink:href="#SVGID_1837_" style="overflow:visible"/></clipPath><g class="st3"><defs><rect id="SVGID_1839_" width="737.44" height="291.22" x="48.43" y="-267.76"/></defs><clipPath id="SVGID_8_"><use xlink:href="#SVGID_1839_" style="overflow:visible"/></clipPath></g></g><g><defs><ellipse id="SVGID_1841_" cx="80.06" cy="-204.18" rx="6.14" ry="6.26"/></defs><clipPath id="SVGID_10_"><use xlink:href="#SVGID_1841_" style="overflow:visible"/></clipPath><g class="st5"><defs><rect id="SVGID_1843_" width="737.44" height="291.22" x="48.43" y="-267.76"/></defs><clipPath id="SVGID_12_"><use xlink:href="#SVGID_1843_" style="overflow:visible"/></clipPath></g></g><g><defs><ellipse id="SVGID_1845_" cx="80.06" cy="-209.44" rx="6.14" ry="6.26"/></defs><clipPath id="SVGID_14_"><use xlink:href="#SVGID_1845_" style="overflow:visible"/></clipPath><g class="st7"><defs><rect id="SVGID_1847_" width="737.44" height="291.22" x="48.43" y="-267.76"/></defs><clipPath id="SVGID_16_"><use xlink:href="#SVGID_1847_" style="overflow:visible"/></clipPath></g></g><g><defs><ellipse id="SVGID_1849_" cx="80.06" cy="-215.45" rx="6.14" ry="6.26"/></defs><clipPath id="SVGID_18_"><use xlink:href="#SVGID_1849_" style="overflow:visible"/></clipPath><g class="st9"><defs><rect id="SVGID_1851_" width="737.44" height="291.22" x="48.43" y="-267.76"/></defs><clipPath id="SVGID_20_"><use xlink:href="#SVGID_1851_" style="overflow:visible"/></clipPath></g></g><g><defs><ellipse id="SVGID_1853_" cx="80.06" cy="-221.45" rx="6.14" ry="6.26"/></defs><clipPath id="SVGID_22_"><use xlink:href="#SVGID_1853_" style="overflow:visible"/></clipPath><g class="st11"><defs><rect id="SVGID_1855_" width="737.44" height="291.22" x="48.43" y="-267.76"/></defs><clipPath id="SVGID_24_"><use xlink:href="#SVGID_1855_" style="overflow:visible"/></clipPath></g></g><g><defs><ellipse id="SVGID_1857_" cx="80.06" cy="-227.46" rx="6.14" ry="6.26"/></defs><clipPath id="SVGID_26_"><use xlink:href="#SVGID_1857_" style="overflow:visible"/></clipPath><g class="st13"><defs><rect id="SVGID_1859_" width="737.44" height="291.22" x="48.43" y="-267.76"/></defs><clipPath id="SVGID_28_"><use xlink:href="#SVGID_1859_" style="overflow:visible"/></clipPath></g></g><g><defs><ellipse id="SVGID_1861_" cx="80.06" cy="-233.47" rx="6.14" ry="6.26"/></defs><clipPath id="SVGID_30_"><use xlink:href="#SVGID_1861_" style="overflow:visible"/></clipPath><g class="st15"><defs><rect id="SVGID_1863_" width="737.44" height="291.22" x="48.43" y="-267.76"/></defs><clipPath id="SVGID_32_"><use xlink:href="#SVGID_1863_" style="overflow:visible"/></clipPath></g></g><g><defs><path id="SVGID_1865_" d="M83.28-264.24c7.13,1.37,12.52,7.75,12.52,15.41c0,8.66-6.89,15.69-15.38,15.69 s-15.38-7.02-15.38-15.69c0-7.34,4.94-13.5,11.61-15.21v14.92c0,1.87,1.48,3.38,3.31,3.38c1.83,0,3.31-1.51,3.31-3.38V-264.24z"/></defs><clipPath id="SVGID_34_"><use xlink:href="#SVGID_1865_" style="overflow:visible"/></clipPath><g class="st17"><defs><rect id="SVGID_1867_" width="737.44" height="291.22" x="48.43" y="-267.76"/></defs><clipPath id="SVGID_36_"><use xlink:href="#SVGID_1867_" style="overflow:visible"/></clipPath></g></g></g><g><line x1="4" x2="256" y1="397" y2="397" class="st1046"/></g><g><g><path d="M159.53,367.39l-50.47,13.08c-3.29,0.85-6.66-1.12-7.51-4.42c-3.52-16.41-7.58-31.74-13.91-42.58 c15.7-1.93,38.66-8.79,62.4-16.17l13.91,42.58C164.8,363.17,162.82,366.53,159.53,367.39z" class="st635"/><path d="M160.69,360.34l-50.47,13.08c-3.29,0.85-5.88,2.29-6.9-4.64c-1.33-9.09-4.46-18.46-10.43-32.95 c20.18-3.39,41.06-9.05,62.4-16.17l9.82,33.18C165.96,356.12,163.98,359.49,160.69,360.34z" class="st635"/><path d="M107.43,375.67c-1.98-13.46-5.03-26.26-9.85-37.99c18.87-2.78,40.2-8.89,62.4-16.17 c4.99,12.82,9.49,34.44,9.57,36.92c0.07,2.48-1.12,6.66-4.42,7.51l-50.47,13.08" class="st635"/><rect width="17.04" height="23.43" x="141.9" y="331.77" class="st635" transform="matrix(0.968 -0.2509 0.2509 0.968 -81.3659 48.7258)"/><path d="M112.46,348.05c1.59-1.53,3.58-3.22,5.88-3.13c1,0.04,1.88,0.43,2.85,0.61c2.09,0.37,4.44-0.35,6.3-1.49 c1.86-1.14,3.32-2.66,4.74-4.16" class="st635"/><path d="M113.66,352.72c1.59-1.53,3.58-3.22,5.88-3.13c1,0.04,1.88,0.43,2.85,0.61c2.09,0.37,4.44-0.35,6.3-1.49 c1.86-1.14,3.32-2.66,4.74-4.16" class="st635"/><path d="M114.87,357.38c1.59-1.53,3.58-3.22,5.88-3.13c1,0.04,1.88,0.43,2.85,0.61c2.09,0.37,4.44-0.35,6.3-1.49 c1.86-1.14,3.32-2.66,4.74-4.16" class="st635"/><path d="M116.08,362.05c1.59-1.53,3.58-3.22,5.88-3.13c1,0.04,1.88,0.43,2.85,0.61c2.09,0.37,4.44-0.35,6.3-1.49 c1.86-1.14,3.32-2.66,4.74-4.16" class="st635"/></g><g><rect width="9.63" height="4.81" x="187.05" y="365.27" class="st637" transform="matrix(0.5 -0.866 0.866 0.5 -222.4819 349.9948)"/></g><polygon points="214.32 319.41 194.46 319.41 204.39 339.27" class="st64"/><g><path d="M54.68,377.2c-4.96,0-9-4.04-9-9c0-4.96,4.04-9,9-9s9,4.04,9,9C63.68,373.17,59.64,377.2,54.68,377.2z M54.68,363.33c-2.68,0-4.87,2.18-4.87,4.87s2.18,4.87,4.87,4.87c2.68,0,4.87-2.18,4.87-4.87S57.36,363.33,54.68,363.33z" class="st635"/></g><polygon points="59.29 327.55 50.01 336.92 64.03 341.51" class="st637"/></g></g></switch></svg>