<svg xmlns="http://www.w3.org/2000/svg" xmlns:xlink="http://www.w3.org/1999/xlink" id="Layer_1" x="0" y="0" version="1.1" viewBox="0 0 628 248" xml:space="preserve" style="enable-background:new 0 0 628 248"><style type="text/css">.st64{fill:none;stroke:#ef6924;stroke-width:2;stroke-linejoin:round}.st1046,.st635,.st637,.st64{stroke-linecap:round;stroke-miterlimit:10}.st635{fill:#fff;stroke:#ef6924;stroke-width:2;stroke-linejoin:round}.st1046,.st637{fill:none}.st637{stroke:#866e8b;stroke-width:2;stroke-linejoin:round}.st1046{stroke:#ef6924;stroke-width:3}</style><switch><g><g><g><path d="M567.22,61.61c0.31-5.24-1.12-9.61-6.35-10.08s-15.6,5.77-20.45,18.35s-8.45,22.95-11.45,26.12 c-3,3.17-4.71,4.84-4.71,4.84l14.09,4.46c0,0,18.49-18.19,23.81-28.14C565.14,71.6,566.94,66.41,567.22,61.61z" class="st64"/><path d="M467.55,61.61c-0.31-5.24,1.12-9.61,6.35-10.08c5.23-0.46,15.6,5.77,20.45,18.35 c4.85,12.58,8.45,22.95,11.45,26.12c3,3.17,4.71,4.84,4.71,4.84l-14.09,4.46c0,0-18.49-18.19-23.81-28.14 C469.64,71.6,467.84,66.41,467.55,61.61z" class="st64"/><g><circle cx="588.46" cy="156.61" r="5.01" class="st635"/><circle cx="584.13" cy="162.23" r="5.01" class="st635"/><circle cx="579.8" cy="167.85" r="5.01" class="st635"/><circle cx="575.47" cy="173.47" r="5.01" class="st635"/><circle cx="571.14" cy="179.09" r="5.01" class="st635"/><circle cx="566.81" cy="184.71" r="5.01" class="st635"/><circle cx="562.48" cy="190.33" r="5.01" class="st635"/><circle cx="558.15" cy="195.95" r="5.01" class="st635"/><circle cx="553.82" cy="201.57" r="5.01" class="st635"/></g><g><g><circle cx="440.52" cy="182.31" r="5.01" class="st635"/><circle cx="442.84" cy="189.01" r="5.01" class="st635"/><circle cx="445.17" cy="195.71" r="5.01" class="st635"/><circle cx="447.49" cy="202.41" r="5.01" class="st635"/><circle cx="449.82" cy="209.12" r="5.01" class="st635"/></g><circle cx="456.55" cy="208.8" r="5.01" class="st635"/><circle cx="463.64" cy="208.8" r="5.01" class="st635"/><circle cx="470.74" cy="208.8" r="5.01" class="st635"/><circle cx="477.83" cy="208.8" r="5.01" class="st635"/><circle cx="484.93" cy="208.8" r="5.01" class="st635"/></g><g><circle cx="519.31" cy="173.58" r="5.01" class="st635"/><circle cx="519.31" cy="180.68" r="5.01" class="st635"/><circle cx="519.31" cy="187.77" r="5.01" class="st635"/></g><path d="M557.54,263.25h-76.46v-45.16c0-19.71,15.98-35.69,35.69-35.69h5.08c19.71,0,35.69,15.98,35.69,35.69 V263.25z" class="st635"/><path d="M538.26,171.41h-37.91c-10.57,0-19.14-8.57-19.14-19.14v-21.13c0-10.57,8.57-19.14,19.14-19.14h37.91 c10.57,0,19.14,8.57,19.14,19.14v21.13C557.4,162.84,548.83,171.41,538.26,171.41z" class="st635"/><path d="M493.93,133.36c0-3.03,2.46-5.48,5.48-5.48s5.48,2.46,5.48,5.48" class="st64"/><path d="M532.16,133.36c0-3.03,2.46-5.48,5.48-5.48s5.48,2.46,5.48,5.48" class="st64"/><g><path d="M524.81,161.47h-11c-6.9,0-12.5-5.6-12.5-12.5v-1.34c0-3.49,2.83-6.32,6.32-6.32h23.37 c3.49,0,6.32,2.83,6.32,6.32v1.34C537.31,155.87,531.71,161.47,524.81,161.47z" class="st64"/><path d="M519.76,153.22h-0.89c-3.47,0-6.29-2.82-6.29-6.29v-5.3h13.47v5.3 C526.05,150.41,523.23,153.22,519.76,153.22z" class="st64"/><line x1="519.31" x2="519.31" y1="141.63" y2="153.22" class="st64"/></g><path d="M606.71,133.15l-4.98,11.64c-0.98,2.28-3.62,3.34-5.9,2.36l0,0c-2.28-0.98-3.34-3.62-2.36-5.9l4.98-11.64 c-5.76-0.43-11.4,2.77-13.8,8.37c-3.02,7.05,0.25,15.21,7.3,18.23s15.21-0.25,18.23-7.3C612.58,143.32,611,137.02,606.71,133.15 z" class="st635"/><g><g><defs><path id="SVGID_1237_" d="M544.69,247.68h-50.76v-30.04c0-13.09,10.61-23.7,23.7-23.7h3.37c13.09,0,23.7,10.61,23.7,23.7 V247.68z"/></defs><clipPath id="SVGID_2_"><use xlink:href="#SVGID_1237_" style="overflow:visible"/></clipPath><polyline style="clip-path:url(#SVGID_2_);fill:#fff;stroke:#ef6924;stroke-width:2;stroke-linecap:round;stroke-linejoin:round;stroke-miterlimit:10" points="524.34 194.07 550.03 220 550.03 228.48 515.37 194.31 508.1 196.49 550.03 237.93 550.03 246.9 503.01 200.12 498.65 204.97 544.45 250.53 535.92 250.53 494.77 209.82 492.83 217.09 525.07 249.32 516.53 249.32 491.38 224.6 491.86 234.29 506.16 249.8 498.89 249.8 491.86 242.78 491.86 250.29"/></g><path d="M544.69,248.76h-50.76v-30.04c0-13.09,10.61-23.7,23.7-23.7h3.37c13.09,0,23.7,10.61,23.7,23.7V248.76z" class="st64"/></g><g><path d="M515.97,86.71c0,0-6.86-1.24-13.2,0.96c-6.34,2.2-25.39,13.38-28.1,19.28 c-3.35,7.31,1.89,12.47,4.68,13.36c5.72,1.82,21.9-4.98,21.9-4.98l36.75-1.23c0,0,14.85,6.01,20.51,6.21 c5.92,0.21,8.71-8.51,4.68-13.36c-4.15-4.99-21.76-17.08-28.1-19.28c-6.34-2.2-11.71-0.96-11.71-0.96" class="st635"/><ellipse cx="519.69" cy="85.96" class="st635" rx="3.72" ry="1.86"/><line x1="519.61" x2="518.65" y1="88.92" y2="103.11" class="st635"/><path d="M517.62,87.95c0,0-10.19,2.75-16.67,6.75s-12.12,9.5-12.12,9.5" class="st635"/><path d="M522.17,87.95c0,0,10.19,2.75,16.67,6.75s12.12,9.5,12.12,9.5" class="st635"/><path d="M550.4,118.49c0,0-8.82-9.23-30.03-9.92c-21.21-0.69-32.37,8.95-32.37,8.95c-2.48,2.93-2.24,5.01,0,6.24 c0,0,11.16-9.64,32.37-8.95s30.03,9.92,30.03,9.92C552.88,124.32,553.16,121.01,550.4,118.49z" class="st635"/></g><path d="M428.29,154.91l3.74,12.09c0.73,2.37,3.25,3.7,5.62,2.96l0,0c2.37-0.73,3.7-3.25,2.96-5.62l-3.74-12.09 c5.77,0.17,11.05,3.94,12.85,9.76c2.27,7.33-1.83,15.1-9.16,17.37c-7.33,2.27-15.1-1.83-17.37-9.16 C421.4,164.41,423.63,158.31,428.29,154.91z" class="st635"/><g><path d="M453.56,160.06l-67.19,17.42c-4.39,1.14-8.86-1.5-10-5.88c-4.68-21.85-10.09-42.26-18.52-56.69 c20.9-2.57,51.47-11.71,83.07-21.53l18.52,56.69C460.58,154.45,457.94,158.93,453.56,160.06z" class="st635"/><path d="M455.11,150.68l-67.19,17.42c-4.39,1.14-7.83,3.05-9.18-6.18c-1.78-12.1-5.93-24.57-13.89-43.87 c26.86-4.51,54.67-12.06,83.07-21.53l13.07,44.17C462.12,145.07,459.49,149.55,455.11,150.68z" class="st635"/><path d="M384.19,171.09c-2.63-17.91-6.7-34.96-13.11-50.58c25.13-3.7,53.53-11.83,83.07-21.53 c6.64,17.07,12.64,45.85,12.74,49.15c0.1,3.3-1.5,8.86-5.88,10l-67.19,17.42" class="st635"/><rect width="22.68" height="31.19" x="430.09" y="112.64" class="st635" transform="matrix(0.968 -0.2509 0.2509 0.968 -18.0546 114.854)"/><path d="M390.89,134.32c2.11-2.04,4.77-4.29,7.83-4.16c1.33,0.06,2.51,0.58,3.79,0.81 c2.79,0.49,5.91-0.46,8.39-1.98c2.47-1.52,4.41-3.54,6.32-5.54" class="st635"/><path d="M392.5,140.53c2.11-2.04,4.77-4.29,7.83-4.16c1.33,0.06,2.51,0.58,3.79,0.81 c2.79,0.49,5.91-0.46,8.39-1.98c2.47-1.52,4.41-3.54,6.32-5.54" class="st635"/><path d="M394.11,146.75c2.11-2.04,4.77-4.29,7.83-4.16c1.33,0.06,2.51,0.58,3.79,0.81 c2.79,0.49,5.91-0.46,8.39-1.98c2.47-1.52,4.41-3.54,6.32-5.54" class="st635"/><path d="M395.72,152.96c2.11-2.04,4.77-4.29,7.83-4.16c1.33,0.06,2.51,0.58,3.79,0.81 c2.79,0.49,5.91-0.46,8.39-1.98c2.47-1.52,4.41-3.54,6.32-5.54" class="st635"/></g><path d="M437.65,169.97c2.37-0.73,3.7-3.25,2.96-5.62l-3.74-12.09c5.77,0.17,11.05,3.94,12.85,9.76 c2.27,7.33-1.83,15.1-9.16,17.37" class="st635"/></g><polygon points="440.3 23.45 416.89 23.45 428.59 46.86" class="st64"/><g><path d="M597.47,39.74c-5.85,0-10.61-4.76-10.61-10.61c0-5.85,4.76-10.61,10.61-10.61 c5.85,0,10.61,4.76,10.61,10.61C608.08,34.98,603.32,39.74,597.47,39.74z M597.47,23.39c-3.16,0-5.74,2.57-5.74,5.74 s2.57,5.74,5.74,5.74c3.16,0,5.74-2.57,5.74-5.74S600.64,23.39,597.47,23.39z" class="st637"/></g><g><path d="M395.51,233.62c-8.15,0-14.79-6.63-14.79-14.79c0-8.15,6.63-14.79,14.79-14.79 c8.15,0,14.79,6.63,14.79,14.79C410.3,226.98,403.67,233.62,395.51,233.62z M395.51,210.83c-4.41,0-8,3.59-8,8 c0,4.41,3.59,8,8,8c4.41,0,8-3.59,8-8C403.51,214.42,399.92,210.83,395.51,210.83z" class="st64"/></g><g><defs><circle id="SVGID_1239_" cx="335.33" cy="130.87" r="4.26"/></defs><clipPath id="SVGID_4_"><use xlink:href="#SVGID_1239_" style="overflow:visible"/></clipPath><g style="clip-path:url(#SVGID_4_)"><defs><rect id="SVGID_1241_" width="698.06" height="216.37" x="-325.84" y="63.48"/></defs><clipPath id="SVGID_6_"><use xlink:href="#SVGID_1241_" style="overflow:visible"/></clipPath><rect style="clip-path:url(#SVGID_6_);fill:#ef6924" width="15.61" height="15.61" x="327.53" y="123.07"/></g></g><g><defs><circle id="SVGID_1243_" cx="600.84" cy="207.84" r="4.26"/></defs><clipPath id="SVGID_8_"><use xlink:href="#SVGID_1243_" style="overflow:visible"/></clipPath><g style="clip-path:url(#SVGID_8_)"><defs><rect id="SVGID_1245_" width="698.06" height="216.37" x="-68.85" y="69.5"/></defs><clipPath id="SVGID_10_"><use xlink:href="#SVGID_1245_" style="overflow:visible"/></clipPath><rect style="clip-path:url(#SVGID_10_);fill:#876e8c" width="15.61" height="15.61" x="593.04" y="200.04"/></g></g><polygon points="346.24 173.83 333.41 186.79 352.79 193.13" class="st637"/><g><defs><circle id="SVGID_1247_" cx="519.53" cy="24.09" r="4.26"/></defs><clipPath id="SVGID_12_"><use xlink:href="#SVGID_1247_" style="overflow:visible"/></clipPath><g style="clip-path:url(#SVGID_12_)"><defs><rect id="SVGID_1249_" width="698.06" height="216.37" x="-141.64" y="-43.3"/></defs><clipPath id="SVGID_14_"><use xlink:href="#SVGID_1249_" style="overflow:visible"/></clipPath><rect style="clip-path:url(#SVGID_14_);fill:none;stroke:#ef6924;stroke-width:2;stroke-linecap:round;stroke-linejoin:round;stroke-miterlimit:10" width="15.61" height="15.61" x="511.73" y="16.29"/><use xlink:href="#SVGID_1249_" style="overflow:visible;fill:none;stroke:#ef6924;stroke-width:2;stroke-linecap:round;stroke-linejoin:round;stroke-miterlimit:10"/></g><use xlink:href="#SVGID_1247_" style="overflow:visible;fill-rule:evenodd;clip-rule:evenodd;fill:none;stroke:#ef6924;stroke-width:2;stroke-linecap:round;stroke-linejoin:round;stroke-miterlimit:10"/></g><g><defs><circle id="SVGID_1251_" cx="387.84" cy="58.87" r="4.26"/></defs><clipPath id="SVGID_16_"><use xlink:href="#SVGID_1251_" style="overflow:visible"/></clipPath><g style="clip-path:url(#SVGID_16_)"><defs><rect id="SVGID_1253_" width="698.06" height="216.37" x="-281.85" y="-79.47"/></defs><clipPath id="SVGID_18_"><use xlink:href="#SVGID_1253_" style="overflow:visible"/></clipPath><rect style="clip-path:url(#SVGID_18_);fill:none;stroke:#866e8b;stroke-width:2;stroke-linecap:round;stroke-linejoin:round;stroke-miterlimit:10" width="15.61" height="15.61" x="380.03" y="51.06"/><use xlink:href="#SVGID_1253_" style="overflow:visible;fill:none;stroke:#866e8b;stroke-width:2;stroke-linecap:round;stroke-linejoin:round;stroke-miterlimit:10"/></g><use xlink:href="#SVGID_1251_" style="overflow:visible;fill-rule:evenodd;clip-rule:evenodd;fill:none;stroke:#866e8b;stroke-width:2;stroke-linecap:round;stroke-linejoin:round;stroke-miterlimit:10"/></g></g><g><line x1="4" x2="624" y1="246" y2="246" class="st1046"/></g></g></switch></svg>