<svg xmlns="http://www.w3.org/2000/svg" xmlns:svg="http://www.w3.org/2000/svg" xmlns:xlink="http://www.w3.org/1999/xlink" id="svg43" width="123.599" height="115.284" version="1.1" viewBox="0 0 123.599 115.284"><metadata id="metadata47"/><defs id="0"><linearGradient id="D"><stop id="T"/><stop id="U" offset="1" stop-opacity="0"/></linearGradient><linearGradient id="E"><stop id="V" stop-color="#fff"/><stop id="W" offset="1" stop-color="#eddabc"/></linearGradient><linearGradient id="F"><stop id="X" stop-color="#c29650"/><stop id="Y" offset="1" stop-color="#cca86e"/></linearGradient><linearGradient id="G"><stop id="Z" stop-color="#a37a39"/><stop id="a" offset="1" stop-color="#c39854"/></linearGradient><linearGradient id="H"><stop id="b" stop-color="#eddabc"/><stop id="c" offset="1" stop-color="#d8af6e"/></linearGradient><radialGradient id="I" cx="211.15" cy="382.63" r="110.72" gradientTransform="matrix(0.13337487,-0.58579661,0.43334796,0.09866518,-140.53171,197.47031)" gradientUnits="userSpaceOnUse" xlink:href="#H"/><radialGradient id="J" cx="445.36" cy="201.93" r="119.48" gradientTransform="matrix(-0.37117278,0.14517548,-0.14805715,-0.37854038,312.3712,40.739168)" gradientUnits="userSpaceOnUse" xlink:href="#G"/><radialGradient id="K" cx="139.26" cy="162.96" r="134.88" gradientTransform="matrix(0.50693897,-0.129967,0.0262165,0.10225801,-39.663475,32.07396)" gradientUnits="userSpaceOnUse" xlink:href="#E"/><radialGradient id="L" cx="212.44" cy="280.07" r="228.86" gradientTransform="matrix(0.03919011,-0.09570432,0.16373591,0.06704846,-2.2215551,38.191936)" gradientUnits="userSpaceOnUse" xlink:href="#F"/><filter id="M" style="color-interpolation-filters:sRGB"><feGaussianBlur id="d" stdDeviation="1.841"/></filter><filter id="N" style="color-interpolation-filters:sRGB"><feGaussianBlur id="e" stdDeviation="1.001"/></filter><linearGradient id="O" x1="48.3" x2="72.26" y1="135.17" y2="131" gradientUnits="userSpaceOnUse" xlink:href="#D"/><radialGradient id="K-1" cx="139.26" cy="162.96" r="134.88" gradientTransform="matrix(0.50693897,-0.129967,0.0262165,0.10225801,-44.804893,27.288362)" gradientUnits="userSpaceOnUse" xlink:href="#E"/><radialGradient id="L-8" cx="212.44" cy="280.07" r="228.86" gradientTransform="matrix(0.03919011,-0.09570432,0.16373591,0.06704846,-7.3629726,33.406338)" gradientUnits="userSpaceOnUse" xlink:href="#F"/><radialGradient id="J-7" cx="445.36" cy="201.93" r="119.48" gradientTransform="matrix(-0.37117278,0.14517548,-0.14805715,-0.37854038,307.22978,35.95357)" gradientUnits="userSpaceOnUse" xlink:href="#G"/><radialGradient id="I-4" cx="211.15" cy="382.63" r="110.72" gradientTransform="matrix(0.13337487,-0.58579661,0.43334796,0.09866518,-145.67313,192.68471)" gradientUnits="userSpaceOnUse" xlink:href="#H"/><linearGradient id="O-0" x1="48.3" x2="72.26" y1="135.17" y2="131" gradientUnits="userSpaceOnUse" xlink:href="#D"/><filter style="color-interpolation-filters:sRGB" id="N-2"><feGaussianBlur id="e-1" stdDeviation="1.001"/></filter></defs><path style="opacity:.425;fill:url(#O-0);filter:url(#N-2)" id="1" d="m 55.132413,114.01574 h 13.842394 l 1.476115,23.73867 H 56.608528 Z" transform="matrix(0.85693077,-0.4706646,0.46259458,0.87188005,-2.9077696,-4.4632197)"/><path style="fill:#debd87;stroke-width:.63425314" id="3" d="m 117.84139,16.208507 a 1.0705541,1.0705541 0 0 0 -0.35278,-0.16488 L 60.005433,0.04480829 a 1.0705541,1.0705541 0 0 0 -0.52278,-0.02273 L 0.83058743,13.66942 A 1.0705541,1.0705541 0 0 0 9.694272e-4,14.758282 L 2.9259364,83.774159 a 1.0705541,1.0705541 0 0 0 0.530569,0.88049 L 56.461004,115.13475 a 1.0705541,1.0705541 0 0 0 1.030331,0.0328 L 113.07991,87.050599 a 1.0705541,1.0705541 0 0 0 0.58096,-0.88325 l 4.61721,-69.027579 a 1.0705541,1.0705541 0 0 0 -0.43669,-0.931263 z"/><path style="fill:url(#I-4)" id="4" d="M 1.1058284,15.554671 3.9918134,83.732099 56.573821,113.97151 57.288282,35.982473 Z"/><path style="fill:url(#J-7)" id="5" d="m 117.20329,17.084877 -59.789044,18.790616 -0.840425,78.096017 0.428141,0.24578 55.578988,-28.130421 z"/><path style="fill:url(#L-8)" id="6" d="M 59.713519,1.0613193 1.0741144,14.722175 1.1058244,15.554671 57.414242,35.875493 117.20329,17.084877 v -0.0079 L 59.713519,1.0613313 Z"/><path style="fill:none;stroke:#debc85;stroke-width:1.12300003" id="7" d="M 0.95659343,14.956532 57.530393,36.035187 117.5991,16.922417"/><path style="fill:none;stroke:#debc85;stroke-width:1.12300003" id="8" d="M 57.421177,36.035187 56.984314,114.67059"/><path style="fill:#57401e" id="9" d="m 68.595071,36.6859 -8.236088,11.128322 3.939799,-1.24975 0.195562,7.675847 8.910728,-2.84348 -0.194993,-7.653619 3.939799,-1.249752 z"/><path style="opacity:.70800003;fill:#eddabc;stroke:#000;stroke-width:.38100001" id="B" d="M 29.235772,24.938633 86.414632,8.4257733"/><path style="opacity:.70800003;fill:url(#K-1)" id="C" d="M 83.203022,6.5251643 24.867631,23.05506 l -0.412283,9.157452 1.339921,-0.451926 -1.062423,1.070351 0.0555,0.02377 1.974204,-0.745282 -0.261642,1.228922 1.220994,-0.523283 -0.420212,0.91971 0.03171,0.01586 1.355779,-0.80871 0.08721,1.268565 0.832496,-0.737354 0.475712,0.911781 0.792853,-0.436069 0.261641,1.054495 0.959352,-0.880067 c 0,0 0.119342,0.225878 0.150642,0.285427 L 32.716869,26.88454 92.899152,9.2211893 83.203012,6.5251643 Z"/></svg>