<svg xmlns="http://www.w3.org/2000/svg" xmlns:svg="http://www.w3.org/2000/svg" xmlns:xlink="http://www.w3.org/1999/xlink" id="svg11300" width="48" height="48" version="1.0" style="display:inline;enable-background:new"><title id="title8836">Optical Drive</title><defs id="defs3"><linearGradient id="linearGradient5635"><stop id="stop5637" offset="0" style="stop-color:#fff;stop-opacity:1"/><stop id="stop5639" offset="1" style="stop-color:#ededed;stop-opacity:1"/></linearGradient><linearGradient id="linearGradient5584"><stop id="stop5586" offset="0" style="stop-color:#fff;stop-opacity:1"/><stop id="stop5588" offset="1" style="stop-color:#fff;stop-opacity:0"/></linearGradient><linearGradient id="linearGradient9590"><stop id="stop9592" offset="0" style="stop-color:#bfbfbf;stop-opacity:1"/><stop id="stop9594" offset="1" style="stop-color:#f8f8f8;stop-opacity:1"/></linearGradient><linearGradient id="linearGradient2944" x1="-543.3" x2="-500.7" y1="-2279" y2="-1918" gradientTransform="matrix(0.0913,0,0,0.0937,69.69,218.6)" gradientUnits="userSpaceOnUse" xlink:href="#linearGradient9590"/><linearGradient id="linearGradient2946" x1="22.5" x2="20.75" y1="23" y2="3.5" gradientUnits="userSpaceOnUse" xlink:href="#linearGradient5635"/><linearGradient id="linearGradient2948" x1="25.98" x2="26.09" y1="2.486" y2="42.61" gradientUnits="userSpaceOnUse" xlink:href="#linearGradient5584"/><linearGradient id="linearGradient2880" x1="25.98" x2="26.09" y1="2.486" y2="42.61" gradientTransform="translate(0.002,252)" gradientUnits="userSpaceOnUse" xlink:href="#linearGradient5584"/><linearGradient id="linearGradient2894" x1="22.5" x2="20.75" y1="23" y2="3.5" gradientTransform="translate(0.002,252)" gradientUnits="userSpaceOnUse" xlink:href="#linearGradient5635"/><linearGradient id="linearGradient2898" x1="-543.3" x2="-500.7" y1="-2279" y2="-1918" gradientTransform="matrix(0.0913,0,0,0.0937,69.69,470.6)" gradientUnits="userSpaceOnUse" xlink:href="#linearGradient9590"/></defs><g id="layer6" transform="translate(0,-252)" style="display:none"><rect id="rect6284" width="48" height="48" x="296" y="50" style="fill:#eeeeec;fill-opacity:1;fill-rule:nonzero;stroke:none;stroke-width:2;marker:none;visibility:visible;display:inline;overflow:visible;enable-background:accumulate"/><rect id="rect6592" width="32" height="32" x="303" y="126" style="fill:#eeeeec;fill-opacity:1;fill-rule:nonzero;stroke:none;stroke-width:2;marker:none;visibility:visible;display:inline;overflow:visible;enable-background:accumulate"/><rect id="rect6749" width="22" height="22" x="303" y="177" style="fill:#eeeeec;fill-opacity:1;fill-rule:nonzero;stroke:none;stroke-width:2;marker:none;visibility:visible;display:inline;overflow:visible;enable-background:accumulate"/><rect id="rect6833" width="16" height="16" x="303" y="219" style="fill:#eeeeec;fill-opacity:1;fill-rule:nonzero;stroke:none;stroke-width:2;marker:none;visibility:visible;display:inline;overflow:visible;enable-background:accumulate"/><text id="context" x="20.971" y="21.514" xml:space="preserve" style="font-size:18.3007px;font-style:normal;font-weight:400;fill:#000;fill-opacity:1;stroke:none;display:inline;enable-background:new;font-family:Bitstream Vera Sans"><tspan id="tspan2716" x="20.971" y="21.514">mimetypes</tspan></text><text id="icon-name" x="191.971" y="21.514" xml:space="preserve" style="font-size:18.3007px;font-style:normal;font-variant:normal;font-weight:700;font-stretch:normal;text-align:start;line-height:125%;writing-mode:lr-tb;text-anchor:start;fill:#000;fill-opacity:1;stroke:none;display:inline;enable-background:new;font-family:Droid Sans;-inkscape-font-specification:Droid Sans Bold"><tspan id="tspan3023" x="191.971" y="21.514">application-certificate</tspan></text></g><g id="layer2" transform="translate(0,-252)" style="display:inline"><path id="path1196" d="m 4.319,289 c -2.433,0 -4.3376,1.4 -4.3376,3 0,1.7 1.9046,3 4.3376,3 l 39.361,0 c 2.43,0 4.33,-1.3 4.33,-3 0,-1.6 -1.9,-3 -4.33,-3 l -39.361,0 z" style="opacity:.0342;fill-rule:evenodd;stroke-width:3pt"/><path id="path1195" d="m 4.319,289.2 c -2.222,0 -4.0202,1.3 -4.0202,2.8 0,1.6 1.7982,2.8 4.0202,2.8 l 39.361,0 c 2.22,0 4.02,-1.2 4.02,-2.8 0,-1.5 -1.8,-2.8 -4.02,-2.8 l -39.361,0 z" style="opacity:.0342;fill-rule:evenodd;stroke-width:3pt"/><path id="path1194" d="m 4.319,289.4 c -2.116,0 -3.7028,1.2 -3.7028,2.6 0,1.5 1.5868,2.6 3.7028,2.6 l 39.361,0 c 2.11,0 3.7,-1.1 3.7,-2.6 0,-1.4 -1.59,-2.6 -3.7,-2.6 l -39.361,0 z" style="opacity:.0342;fill-rule:evenodd;stroke-width:3pt"/><path id="path1193" d="m 4.319,289.6 c -1.904,0 -3.4912,1.1 -3.4912,2.4 0,1.4 1.5872,2.4 3.4912,2.4 l 39.361,0 c 1.9,0 3.49,-1 3.49,-2.4 0,-1.3 -1.59,-2.4 -3.49,-2.4 l -39.361,0 z" style="opacity:.0342;fill-rule:evenodd;stroke-width:3pt"/><path id="path1192" d="m 4.319,289.8 c -1.798,0 -3.174,1 -3.174,2.2 0,1.3 1.376,2.2 3.174,2.2 l 39.361,0 c 1.8,0 3.17,-0.9 3.17,-2.2 0,-1.2 -1.37,-2.2 -3.17,-2.2 l -39.361,0 z" style="opacity:.0342;fill-rule:evenodd;stroke-width:3pt"/><path id="path1191" d="m 4.319,290 c -1.587,0 -2.856,0.9 -2.856,2 0,1.1 1.269,2 2.856,2 l 39.361,0 c 1.58,0 2.85,-0.9 2.85,-2 0,-1.1 -1.27,-2 -2.85,-2 l -39.361,0 z" style="opacity:.0342;fill-rule:evenodd;stroke-width:3pt"/><path id="path1190" d="m 4.319,290.2 c -1.481,0 -2.645,0.8 -2.645,1.8 0,1 1.164,1.8 2.645,1.8 l 39.361,0 c 1.48,0 2.64,-0.8 2.64,-1.8 0,-1 -1.16,-1.8 -2.64,-1.8 l -39.361,0 z" style="opacity:.0342;fill-rule:evenodd;stroke-width:3pt"/><path id="path1189" d="m 4.319,290.4 c -1.269,0 -2.327,0.7 -2.327,1.6 0,0.9 1.058,1.6 2.327,1.6 l 39.361,0 c 1.27,0 2.32,-0.7 2.32,-1.6 0,-0.9 -1.05,-1.6 -2.32,-1.6 l -39.361,0 z" style="opacity:.0342;fill-rule:evenodd;stroke-width:3pt"/><rect id="rect1324" width="42.99" height="35.01" x="2.507" y="257.5" rx=".776" ry=".776" style="color:#000;fill:url(#linearGradient2898);fill-opacity:1;fill-rule:nonzero;stroke:#888a85;stroke-width:1;stroke-linecap:square;stroke-linejoin:miter;stroke-miterlimit:4;stroke-opacity:1;stroke-dasharray:none;stroke-dashoffset:0;marker:none;visibility:visible;display:inline;overflow:visible"/><path id="path5613" d="m 6.471,259.1 c -1.366,0 -2.469,1.1 -2.469,2.4 0,0.8 0.403,1.6 1,2 -0.612,0.5 -1,1.2 -1,2 0,0.8 0.388,1.5 1,2 -0.612,0.5 -1,1.2 -1,2 0,0.8 0.388,1.5 1,2 -0.612,0.5 -1,1.2 -1,2 0,0.8 0.388,1.5 1,2 -0.612,0.5 -1,1.2 -1,2 0,0.8 0.388,1.5 1,2 -0.612,0.5 -1,1.2 -1,2 0,0.8 0.388,1.5 1,2 -0.612,0.5 -1,1.2 -1,2 0,0.6 0.19,1.1 0.5,1.5 -0.32,0.4 -0.5,0.9 -0.5,1.5 0,1.4 1.103,2.5 2.469,2.5 0.799,0 1.516,-0.4 1.969,-1 0.453,0.6 1.145,1 1.94,1 0.79,0 1.48,-0.4 1.93,-1 0.46,0.6 1.17,1 1.97,1 0.8,0 1.52,-0.4 1.97,-1 0.45,0.6 1.15,1 1.94,1 0.79,0 1.48,-0.4 1.93,-1 0.46,0.6 1.17,1 1.97,1 0.8,0 1.49,-0.4 1.94,-1 0.45,0.6 1.14,1 1.94,1 0.8,0 1.51,-0.4 1.97,-1 0.45,0.6 1.14,1 1.93,1 0.8,0 1.52,-0.4 1.97,-1 0.46,0.6 1.14,1 1.94,1 0.8,0 1.52,-0.4 1.97,-1 0.45,0.6 1.15,1 1.94,1 0.79,0 1.48,-0.4 1.94,-1 0.45,0.6 1.16,1 1.96,1 1.37,0 2.47,-1.1 2.47,-2.5 0,-0.6 -0.19,-1.1 -0.53,-1.5 0.3,-0.4 0.47,-1 0.47,-1.5 0,-0.8 -0.39,-1.5 -1,-2 0.61,-0.5 1,-1.2 1,-2 0,-0.8 -0.39,-1.5 -1,-2 0.61,-0.5 1,-1.2 1,-2 0,-0.8 -0.39,-1.5 -1,-2 0.61,-0.5 1,-1.2 1,-2 0,-0.8 -0.39,-1.5 -1,-2 0.61,-0.5 1,-1.2 1,-2 0,-0.8 -0.39,-1.5 -1,-2 0.61,-0.5 1,-1.2 1,-2 0,-0.8 -0.38,-1.5 -0.97,-2 0.62,-0.4 1.03,-1.1 1.03,-2 0,-1.3 -1.1,-2.4 -2.47,-2.4 -0.8,0 -1.51,0.3 -1.96,0.9 -0.46,-0.5 -1.15,-0.9 -1.94,-0.9 -0.79,0 -1.49,0.4 -1.94,0.9 -0.45,-0.6 -1.17,-0.9 -1.97,-0.9 -0.8,0 -1.48,0.3 -1.94,0.9 -0.45,-0.6 -1.17,-0.9 -1.97,-0.9 -0.79,0 -1.48,0.3 -1.93,0.9 -0.46,-0.6 -1.17,-0.9 -1.97,-0.9 -0.8,0 -1.49,0.3 -1.94,0.9 -0.45,-0.6 -1.14,-0.9 -1.94,-0.9 -0.8,0 -1.51,0.3 -1.97,0.9 -0.45,-0.6 -1.14,-0.9 -1.93,-0.9 -0.79,0 -1.49,0.4 -1.94,0.9 -0.45,-0.6 -1.17,-0.9 -1.97,-0.9 -0.8,0 -1.51,0.3 -1.97,0.9 -0.45,-0.5 -1.14,-0.9 -1.93,-0.9 -0.795,0 -1.487,0.4 -1.94,0.9 -0.453,-0.6 -1.17,-0.9 -1.969,-0.9 z M 8.44,263 c 0.453,0.6 1.145,1 1.94,1 0.79,0 1.48,-0.4 1.93,-1 0.46,0.6 1.17,1 1.97,1 0.8,0 1.52,-0.4 1.97,-1 0.45,0.6 1.15,1 1.94,1 0.79,0 1.48,-0.4 1.93,-1 0.46,0.6 1.17,1 1.97,1 0.8,0 1.49,-0.4 1.94,-1 0.45,0.6 1.14,1 1.94,1 0.8,0 1.51,-0.4 1.97,-1 0.45,0.6 1.14,1 1.93,1 0.8,0 1.52,-0.4 1.97,-1 0.46,0.6 1.14,1 1.94,1 0.8,0 1.52,-0.4 1.97,-1 0.45,0.6 1.15,1 1.94,1 0.79,0 1.48,-0.4 1.94,-1 0.12,0.2 0.27,0.3 0.43,0.5 -0.64,0.4 -1.06,1.1 -1.06,2 0,0.8 0.39,1.5 1,2 -0.61,0.5 -1,1.2 -1,2 0,0.8 0.39,1.5 1,2 -0.61,0.5 -1,1.2 -1,2 0,0.8 0.39,1.5 1,2 -0.61,0.5 -1,1.2 -1,2 0,0.8 0.39,1.5 1,2 -0.61,0.5 -1,1.2 -1,2 0,0.8 0.39,1.5 1,2 -0.61,0.5 -1,1.2 -1,2 0,0.4 0.1,0.8 0.25,1.1 -0.42,-0.4 -0.97,-0.6 -1.56,-0.6 -0.79,0 -1.49,0.4 -1.94,1 -0.45,-0.6 -1.17,-1 -1.97,-1 -0.8,0 -1.48,0.4 -1.94,1 -0.45,-0.6 -1.17,-1 -1.97,-1 -0.79,0 -1.48,0.4 -1.93,1 -0.46,-0.6 -1.17,-1 -1.97,-1 -0.8,0 -1.49,0.4 -1.94,1 -0.45,-0.6 -1.14,-1 -1.94,-1 -0.8,0 -1.51,0.4 -1.97,1 -0.45,-0.6 -1.14,-1 -1.93,-1 -0.79,0 -1.49,0.4 -1.94,1 -0.45,-0.6 -1.17,-1 -1.97,-1 -0.8,0 -1.51,0.4 -1.97,1 -0.45,-0.6 -1.14,-1 -1.93,-1 -0.7,0 -1.306,0.3 -1.753,0.8 0.234,-0.4 0.375,-0.8 0.375,-1.3 0,-0.8 -0.388,-1.5 -1,-2 0.612,-0.5 1,-1.2 1,-2 0,-0.8 -0.388,-1.5 -1,-2 0.612,-0.5 1,-1.2 1,-2 0,-0.8 -0.388,-1.5 -1,-2 0.612,-0.5 1,-1.2 1,-2 0,-0.8 -0.388,-1.5 -1,-2 0.612,-0.5 1,-1.2 1,-2 0,-0.8 -0.388,-1.5 -1,-2 0.612,-0.5 1,-1.2 1,-2 0,-0.8 -0.408,-1.5 -1.031,-2 0.178,-0.1 0.333,-0.3 0.469,-0.5 z" style="opacity:.3029;color:#000;fill:#555753;fill-opacity:1;fill-rule:evenodd;stroke:none;stroke-width:1;marker:none;visibility:visible;display:inline;overflow:visible;enable-background:accumulate"/><rect id="rect5580" width="36" height="28" x="6.002" y="261" rx=".776" ry=".776" style="color:#000;fill:url(#linearGradient2894);fill-opacity:1;fill-rule:evenodd;stroke:none;stroke-width:.2;marker:none;visibility:visible;display:inline;overflow:visible;enable-background:accumulate"/><path id="path1332" d="m 11.16,279.7 c 0,0.2 0,0.5 0,0.5 0,0 0.1,-0.5 -0.16,-0.6 -0.44,-0.1 -0.71,0.5 -0.85,1 -0.233,0.6 -0.1,1.3 0.58,1.5 0.74,0.2 1.95,-0.7 1.95,-0.7 0,0 -0.14,0.1 -0.18,0.1 -0.1,0.2 -0.14,0.3 -0.1,0.4 0,0 0.13,0 0.18,0 0.21,0.1 0.48,0 0.53,-0.2 0.1,-0.2 0.18,-0.5 0.18,-0.5 0,0 -0.1,0.2 -0.13,0.2 -0.1,0.2 0.12,0.3 0.3,0.4 0.3,0.1 0.7,-0.4 0.75,-0.4 0,0 0.1,0.3 0.25,0.4 0.22,0 0.49,-0.2 0.58,-0.2 0,0 0.1,0.1 0.13,0.1 0.26,0.1 0.66,-0.1 0.7,-0.1 0,0 0.1,0.6 0.1,1.1" style="fill:none;stroke:#204a87;stroke-width:.2;stroke-linecap:round;stroke-linejoin:round;stroke-miterlimit:4;stroke-dasharray:none"/><path id="path1334" d="m 17.16,280.1 c -0.19,0.5 -0.15,0.9 -0.29,1.4" style="fill:none;stroke:#204a87;stroke-width:.2;stroke-linecap:round;stroke-linejoin:round;stroke-miterlimit:4;stroke-dasharray:none"/><path id="path1336" d="m 17.02,280.3 c 0,0.1 -0.1,0.2 -0.18,0.2 0.49,-0.1 1.19,-0.3 1.24,-0.2 0,0 0,0.1 0,0.1 -0.1,0.4 -0.49,0.8 -0.49,0.8 0,0.1 1.32,-0.2 1.44,-0.1 0.1,0 0,0.2 0,0.3 -0.1,0.2 -0.18,0.3 -0.32,0.4 0.1,0 0.1,0 0.14,0" style="fill:none;stroke:#204a87;stroke-width:.2;stroke-linecap:round;stroke-linejoin:round;stroke-miterlimit:4;stroke-dasharray:none"/><path id="path1338" d="m 19.73,280.7 c 0,0.1 0,0.1 -0.1,0.1 0.35,0.1 0.53,-0.1 0.88,-0.1 -0.1,0.3 -0.14,0.5 -0.27,0.8 0.35,-0.4 0.93,-0.8 1.02,-0.8 0.1,0 0,0.8 0,0.8 0.17,0.1 1.59,-1.1 1.73,-1 0.1,0 -0.33,1 0.15,1.2 0.39,0.1 0.93,-0.5 0.93,-0.5 0,0 -0.18,0.2 -0.27,0.3 0,0 0.1,0 0.13,0 0.35,0 0.53,-0.2 0.88,-0.2 0,0.1 -0.1,0.1 -0.1,0.2 0.1,0 0.1,0 0.17,0.1 0.31,0.1 0.88,-0.2 0.88,-0.2 0,0 -0.1,0.3 0,0.3 0.61,0.2 1.01,-0.1 1.63,-0.2" style="fill:none;stroke:#204a87;stroke-width:.2;stroke-linecap:round;stroke-linejoin:round;stroke-miterlimit:4;stroke-dasharray:none"/><path id="path5582" d="m 34.38,281.1 c 0.1,2.2 0.76,4.3 1.77,6.3 l 0.8,-3.3 3.27,0.7 c -1.17,-0.7 -3.54,-2.9 -4.51,-4.5 l -1.33,0.8 z" style="fill:#3465a4;fill-rule:evenodd;stroke:#204a87;stroke-width:1;stroke-linecap:butt;stroke-linejoin:miter;stroke-miterlimit:10;stroke-opacity:1;stroke-dasharray:none"/><path id="path1342" d="m -1933,-1441 c -21,19 -47,1 -73,11 -26,11 -32,42 -60,43 -28,0 -37,-30 -63,-39 -27,-8 -52,11 -74,-6 -22,-17 -9,-46 -23,-70 -15,-24 -47,-25 -52,-52 -6,-27 22,-41 26,-69 4,-27 -19,-48 -6,-73 13,-25 44,-17 65,-35 21,-19 16,-50 42,-61 26,-10 44,16 72,15 28,-1 45,-28 71,-19 27,8 24,40 47,57 21,17 51,8 66,31 15,24 -7,47 -1,74 5,27 35,39 31,67 -4,27 -36,31 -49,55 -13,25 2,53 -19,71 z" transform="matrix(0.0195,0,0,0.0196,73.96,310.8)" style="color:#000;fill:#f7f999;fill-opacity:1;fill-rule:nonzero;stroke:#fdcd12;stroke-width:48.8927;stroke-linecap:square;stroke-linejoin:miter;stroke-miterlimit:4;stroke-opacity:1;stroke-dasharray:none;stroke-dashoffset:0;marker:none;visibility:visible;display:inline;overflow:visible"/><path id="path1346" d="m -941.1,-1093 a 29.98,29.07 0 1 1 -59.9,0 29.98,29.07 0 1 1 59.9,0 z" transform="matrix(0.0858,0,0,0.0863,116.7,373.7)" style="color:#000;fill:#fdce15;fill-opacity:1;fill-rule:nonzero;stroke:none;stroke-width:6.25;marker:none;visibility:visible;display:inline;overflow:visible"/><path id="path1348" d="m 34.4,278 c -0.1,0 -0.18,-0.1 -0.28,-0.1 -0.26,-0.1 -0.54,-0.2 -0.83,-0.2 0,0 0,0 0,0 -1.16,0 -2.08,1.5 -1.42,2.5 0.1,0.1 0.14,0.1 0.22,0.3" style="color:#000;fill:none;stroke:#fff;stroke-width:.5579;stroke-linecap:round;stroke-linejoin:round;stroke-miterlimit:4;stroke-opacity:1;stroke-dasharray:none;stroke-dashoffset:0;marker:none;visibility:visible;display:inline;overflow:visible"/><rect id="rect2231" width="41" height="32.98" x="3.502" y="258.5" rx="0" ry="0" style="opacity:.6971;color:#000;fill:none;stroke:url(#linearGradient2880);stroke-width:1;stroke-linecap:butt;stroke-linejoin:miter;stroke-miterlimit:4;stroke-opacity:1;stroke-dasharray:none;stroke-dashoffset:0;marker:none;visibility:visible;display:inline;overflow:visible"/><path id="path2235" d="m 10.15,264 28.7,0" style="fill:none;stroke:#888a85;stroke-width:2;stroke-linecap:round;stroke-linejoin:miter;stroke-miterlimit:4;stroke-opacity:1;stroke-dasharray:none"/><path id="path2237" d="m 15.39,267.5 18.02,0" style="fill:none;stroke:#888a85;stroke-width:1px;stroke-linecap:round;stroke-linejoin:miter;stroke-opacity:1"/><path id="path2239" d="m 12.34,273.5 12.32,0" style="fill:none;stroke:#888a85;stroke-width:1px;stroke-linecap:round;stroke-linejoin:miter;stroke-opacity:1"/><path id="path2241" d="m 12.5,276.5 12.32,0" style="fill:none;stroke:#888a85;stroke-width:1px;stroke-linecap:round;stroke-linejoin:miter;stroke-opacity:1"/><path id="path5578" d="m 11,283.4 15,0" style="fill:none;stroke:#888a85;stroke-width:1px;stroke-linecap:butt;stroke-linejoin:miter;stroke-opacity:1"/></g></svg>