<svg xmlns="http://www.w3.org/2000/svg" xmlns:xlink="http://www.w3.org/1999/xlink" id="Layer_1" data-name="Layer 1" viewBox="0 0 628 248"><defs><style>.cls-1,.cls-10,.cls-11,.cls-2,.cls-25,.cls-4,.cls-57,.cls-58,.cls-87{fill:none}.cls-2,.cls-4{clip-rule:evenodd}.cls-13{fill-rule:evenodd}.cls-4{clip-path:url(#clip-path)}.cls-5{clip-path:url(#clip-path-2)}.cls-13,.cls-18,.cls-59,.cls-6,.cls-8,.cls-86{fill:#fff}.cls-13,.cls-25,.cls-57,.cls-58,.cls-59,.cls-6{stroke:#ef6924}.cls-11,.cls-13,.cls-25,.cls-57,.cls-6{stroke-miterlimit:10}.cls-10,.cls-11,.cls-13,.cls-25,.cls-57,.cls-58,.cls-59,.cls-6,.cls-8{stroke-width:2px}.cls-7{clip-path:url(#clip-path-3)}.cls-10,.cls-11,.cls-8,.cls-86,.cls-87{stroke:#866e8b}.cls-10,.cls-57,.cls-58,.cls-59,.cls-8,.cls-86,.cls-87{stroke-linecap:round}.cls-10,.cls-58,.cls-59,.cls-8,.cls-86,.cls-87{stroke-linejoin:round}.cls-9{clip-path:url(#clip-path-4)}.cls-12{fill:#866e8b}.cls-14{isolation:isolate}.cls-16{clip-path:url(#clip-path-6)}.cls-17{clip-path:url(#clip-path-7)}.cls-19{clip-path:url(#clip-path-8)}.cls-20{clip-path:url(#clip-path-9)}.cls-21{clip-path:url(#clip-path-10)}.cls-22{clip-path:url(#clip-path-11)}.cls-23{clip-path:url(#clip-path-12)}.cls-24{clip-path:url(#clip-path-14)}.cls-26{clip-path:url(#clip-path-16)}.cls-27{clip-path:url(#clip-path-17)}.cls-28{clip-path:url(#clip-path-18)}.cls-29{clip-path:url(#clip-path-20)}.cls-30{clip-path:url(#clip-path-22)}.cls-31{clip-path:url(#clip-path-24)}.cls-32{clip-path:url(#clip-path-26)}.cls-33{clip-path:url(#clip-path-28)}.cls-34{clip-path:url(#clip-path-30)}.cls-35{clip-path:url(#clip-path-32)}.cls-36{clip-path:url(#clip-path-34)}.cls-37{clip-path:url(#clip-path-35)}.cls-38{clip-path:url(#clip-path-37)}.cls-39{clip-path:url(#clip-path-38)}.cls-40{clip-path:url(#clip-path-39)}.cls-41{clip-path:url(#clip-path-40)}.cls-42{clip-path:url(#clip-path-41)}.cls-43{clip-path:url(#clip-path-42)}.cls-44{clip-path:url(#clip-path-43)}.cls-45{clip-path:url(#clip-path-45)}.cls-46{clip-path:url(#clip-path-47)}.cls-47{clip-path:url(#clip-path-48)}.cls-48{clip-path:url(#clip-path-49)}.cls-49{clip-path:url(#clip-path-51)}.cls-50{clip-path:url(#clip-path-53)}.cls-51{clip-path:url(#clip-path-55)}.cls-52{clip-path:url(#clip-path-57)}.cls-53{clip-path:url(#clip-path-62)}.cls-54{clip-path:url(#clip-path-63)}.cls-55{clip-path:url(#clip-path-64)}.cls-56{clip-path:url(#clip-path-65)}.cls-60{clip-path:url(#clip-path-66)}.cls-61{clip-path:url(#clip-path-67)}.cls-62{clip-path:url(#clip-path-68)}.cls-63{clip-path:url(#clip-path-70)}.cls-64{clip-path:url(#clip-path-72)}.cls-65{clip-path:url(#clip-path-74)}.cls-66{clip-path:url(#clip-path-76)}.cls-71{fill:#ef6924}.cls-85{clip-path:url(#clip-path-96)}.cls-86,.cls-87{stroke-width:3px}.cls-88{clip-path:url(#clip-path-97)}</style><clipPath id="clip-path"><path d="M594.59,220.73a13.59,13.59,0,1,1,1-27.16" class="cls-2"/></clipPath><clipPath id="clip-path-2"><polygon points="1002.49 359.58 749.23 359.58 749.23 232.97 1002.49 193.06 1002.49 359.58" class="cls-1"/></clipPath><clipPath id="clip-path-3"><polygon points="1004.38 331.46 711.12 341.46 711.12 214.86 1004.38 164.95 1004.38 331.46" class="cls-1"/></clipPath><clipPath id="clip-path-4"><rect width="90.05" height="148.46" x="343.11" y="167.97" class="cls-1" transform="translate(630.34 -145.93) rotate(90)"/></clipPath><clipPath id="clip-path-5"><circle cx="560.24" cy="173.25" r="5.43" class="cls-1" transform="translate(-19.88 258.92) rotate(-25.58)"/></clipPath><clipPath id="clip-path-6"><circle cx="565.41" cy="164.97" r="5.43" class="cls-1" transform="translate(-19.18 236.79) rotate(-23.27)"/></clipPath><clipPath id="clip-path-7"><rect width="13.02" height="13.02" x="558.62" y="158.14" class="cls-1"/></clipPath><clipPath id="clip-path-8"><circle cx="568" cy="160.83" r="5.43" class="cls-1" transform="translate(104.45 526.35) rotate(-54.07)"/></clipPath><clipPath id="clip-path-9"><rect width="13.02" height="13.02" x="561.22" y="154.24" class="cls-1"/></clipPath><clipPath id="clip-path-10"><circle cx="563.43" cy="150.18" r="5.43" class="cls-1" transform="translate(115.02 522.92) rotate(-54.66)"/></clipPath><clipPath id="clip-path-11"><rect width="640.39" height="197.19" x="389.41" y="7.16" class="cls-1"/></clipPath><clipPath id="clip-path-12"><rect width="67.03" height="25.38" x="529.99" y="137.32" class="cls-1"/></clipPath><clipPath id="clip-path-14"><rect width="13.02" height="13.02" x="556.67" y="143.83" class="cls-1"/></clipPath><clipPath id="clip-path-16"><circle cx="563.59" cy="151.91" r="5.43" class="cls-1" transform="translate(73.31 468.67) rotate(-47.95)"/></clipPath><clipPath id="clip-path-17"><rect width="197.19" height="640.39" x="613.65" y="-184.1" class="cls-1" transform="translate(457.12 814.86) rotate(-80.22)"/></clipPath><clipPath id="clip-path-18"><rect width="65.73" height="28.64" x="530.68" y="137.74" class="cls-1" transform="matrix(0.17, -0.99, 0.99, 0.17, 317.94, 681.58)"/></clipPath><clipPath id="clip-path-20"><rect width="13.02" height="13.02" x="557.09" y="145.23" class="cls-1" transform="translate(318.31 681.37) rotate(-80.22)"/></clipPath><clipPath id="clip-path-22"><path d="M563.46,152.08a5.43,5.43,0,1,0-1-7.61A5.42,5.42,0,0,0,563.46,152.08Z" class="cls-2"/></clipPath><clipPath id="clip-path-24"><rect width="65.73" height="29.29" x="533.7" y="133.32" class="cls-1" transform="translate(324.49 681.15) rotate(-80.22)"/></clipPath><clipPath id="clip-path-26"><rect width="13.02" height="13.02" x="560.43" y="141.19" class="cls-1" transform="translate(325.07 681.3) rotate(-80.22)"/></clipPath><clipPath id="clip-path-28"><path d="M566.65,148a5.43,5.43,0,1,0-1-7.62A5.43,5.43,0,0,0,566.65,148Z" class="cls-2"/></clipPath><clipPath id="clip-path-30"><rect width="65.73" height="29.29" x="537.04" y="129.27" class="cls-1" transform="translate(331.25 681.08) rotate(-80.22)"/></clipPath><clipPath id="clip-path-32"><rect width="13.02" height="13.02" x="563.77" y="137.14" class="cls-1" transform="translate(331.83 681.23) rotate(-80.22)"/></clipPath><clipPath id="clip-path-34"><path d="M572.09,142.26a5.43,5.43,0,1,0-1-7.61A5.44,5.44,0,0,0,572.09,142.26Z" class="cls-2"/></clipPath><clipPath id="clip-path-35"><rect width="13.02" height="13.02" x="568.73" y="131.39" class="cls-1" transform="translate(341.61 681.34) rotate(-80.22)"/></clipPath><clipPath id="clip-path-37"><path d="M575.28,138.14a5.42,5.42,0,1,0-1-7.61A5.43,5.43,0,0,0,575.28,138.14Z" class="cls-2"/></clipPath><clipPath id="clip-path-38"><rect width="13.02" height="13.02" x="572.06" y="127.34" class="cls-1" transform="matrix(0.17, -0.99, 0.99, 0.17, 348.37, 681.27)"/></clipPath><clipPath id="clip-path-39"><path d="M592.69,111l-8,10.36a2.93,2.93,0,0,0,4.63,3.59l7.92-10.22a13.59,13.59,0,1,1-4.52-3.73Z" class="cls-2"/></clipPath><clipPath id="clip-path-40"><rect width="31.24" height="31.24" x="570.72" y="107.68" class="cls-1" transform="matrix(0.17, -0.99, 0.99, 0.17, 365.2, 680.16)"/></clipPath><clipPath id="clip-path-41"><circle cx="497.08" cy="185.76" r="5.43" class="cls-1"/></clipPath><clipPath id="clip-path-42"><rect width="640.39" height="197.19" x="418.85" y="5.49" class="cls-1"/></clipPath><clipPath id="clip-path-43"><rect width="42.95" height="58.57" x="475.47" y="156.48" class="cls-1"/></clipPath><clipPath id="clip-path-45"><rect width="12.37" height="13.02" x="491.09" y="179.26" class="cls-1"/></clipPath><clipPath id="clip-path-47"><circle cx="526.3" cy="148.82" r="5.43" class="cls-1" transform="translate(220.6 602.35) rotate(-71.81)"/></clipPath><clipPath id="clip-path-48"><rect width="640.39" height="197.19" x="396.57" y="13.66" class="cls-1"/></clipPath><clipPath id="clip-path-49"><rect width="50.76" height="50.76" x="500.7" y="123.65" class="cls-1"/></clipPath><clipPath id="clip-path-51"><rect width="11.71" height="11.71" x="520.22" y="143.17" class="cls-1"/></clipPath><clipPath id="clip-path-53"><circle cx="526.3" cy="154.25" r="5.43" class="cls-1" transform="translate(138.72 542.28) rotate(-61.37)"/></clipPath><clipPath id="clip-path-55"><rect width="50.76" height="50.76" x="500.7" y="128.86" class="cls-1"/></clipPath><clipPath id="clip-path-57"><rect width="11.71" height="11.71" x="520.22" y="148.38" class="cls-1"/></clipPath><clipPath id="clip-path-62"><rect width="50.76" height="50.11" x="500.7" y="118.44" class="cls-1"/></clipPath><clipPath id="clip-path-63"><circle cx="526.3" cy="143.4" r="5.43" class="cls-1" transform="translate(34.75 379.9) rotate(-40.93)"/></clipPath><clipPath id="clip-path-64"><rect width="11.71" height="11.71" x="520.22" y="137.32" class="cls-1"/></clipPath><clipPath id="clip-path-65"><path d="M561.13,184.42c-1.26-6.13-5-5.64-7-5.64-8.35,0-15.13,10.51-15.13,23.49v31.19c0,8.8,4.6,15.94,10.27,15.94l9.89,3.55C563.43,253,561.74,198.71,561.13,184.42Z" class="cls-1"/></clipPath><clipPath id="clip-path-66"><circle cx="559.72" cy="204.1" r="5.43" class="cls-1"/></clipPath><clipPath id="clip-path-67"><rect width="640.39" height="197.19" x="231.23" y="369.99" class="cls-1" transform="translate(-72.58 834.99) rotate(-70.78)"/></clipPath><clipPath id="clip-path-68"><rect width="42.95" height="58.57" x="538.42" y="174.83" class="cls-1" transform="translate(182.83 665.6) rotate(-70.78)"/></clipPath><clipPath id="clip-path-70"><rect width="13.02" height="12.37" x="553.08" y="197.82" class="cls-1" transform="translate(182.72 665.23) rotate(-70.78)"/></clipPath><clipPath id="clip-path-72"><circle cx="564.89" cy="204.76" r="5.43" class="cls-1"/></clipPath><clipPath id="clip-path-74"><rect width="42.3" height="59.22" x="543.68" y="175.19" class="cls-1" transform="translate(185.49 670.71) rotate(-70.78)"/></clipPath><clipPath id="clip-path-76"><rect width="12.37" height="12.37" x="558.65" y="198.62" class="cls-1" transform="translate(185.49 670.71) rotate(-70.78)"/></clipPath><clipPath id="clip-path-78"><circle cx="570.05" cy="205.41" r="5.43" class="cls-1"/></clipPath><clipPath id="clip-path-79"><circle cx="576.44" cy="206.5" r="5.43" class="cls-1"/></clipPath><clipPath id="clip-path-80"><circle cx="581.61" cy="207.15" r="5.43" class="cls-1"/></clipPath><clipPath id="clip-path-81"><path d="M595.46,204.63a2.93,2.93,0,1,0-.22,5.85" class="cls-4"/></clipPath><clipPath id="clip-path-82"><circle cx="-272.37" cy="196.68" r="8.34" class="cls-1" transform="translate(-275.26 -139.26) rotate(-54.66)"/></clipPath><clipPath id="clip-path-83"><circle cx="-272.12" cy="199.33" r="8.34" class="cls-1" transform="translate(-237.88 -136.24) rotate(-47.95)"/></clipPath><clipPath id="clip-path-84"><path d="M-272.32,199.6a8.34,8.34,0,0,0,11.7-1.48,8.34,8.34,0,0,0-1.49-11.7,8.33,8.33,0,0,0-11.69,1.48A8.33,8.33,0,0,0-272.32,199.6Z" class="cls-2"/></clipPath><clipPath id="clip-path-85"><path d="M-267.42,193.28a8.34,8.34,0,0,0,11.7-1.48,8.34,8.34,0,0,0-1.48-11.7,8.34,8.34,0,0,0-11.7,1.48A8.33,8.33,0,0,0-267.42,193.28Z" class="cls-2"/></clipPath><clipPath id="clip-path-86"><path d="M-259,184.51a8.34,8.34,0,0,0,11.7-1.48,8.34,8.34,0,0,0-1.49-11.7,8.34,8.34,0,0,0-11.7,1.48A8.34,8.34,0,0,0-259,184.51Z" class="cls-2"/></clipPath><clipPath id="clip-path-87"><path d="M-254.15,178.19a8.34,8.34,0,0,0,11.7-1.48,8.34,8.34,0,0,0-1.49-11.7,8.32,8.32,0,0,0-11.69,1.48A8.33,8.33,0,0,0-254.15,178.19Z" class="cls-2"/></clipPath><clipPath id="clip-path-88"><circle cx="-374.32" cy="251.35" r="8.34" class="cls-1" transform="translate(-37.25 -48.11) rotate(-7.74)"/></clipPath><clipPath id="clip-path-89"><circle cx="-329.42" cy="194.59" r="8.34" class="cls-1" transform="translate(-411.44 -179.11) rotate(-71.81)"/></clipPath><clipPath id="clip-path-90"><circle cx="-329.42" cy="202.93" r="8.34" class="cls-1" transform="translate(-349.68 -183.44) rotate(-61.37)"/></clipPath><clipPath id="clip-path-92"><circle cx="-329.42" cy="186.25" r="8.34" class="cls-1" transform="translate(-202.59 -170.29) rotate(-40.93)"/></clipPath><clipPath id="clip-path-93"><circle cx="-278.06" cy="279.54" r="8.34" class="cls-1"/></clipPath><clipPath id="clip-path-94"><circle cx="-270.13" cy="280.54" r="8.34" class="cls-1"/></clipPath><clipPath id="clip-path-95"><path d="M-242.88,292.41a8.36,8.36,0,0,1-2.6.08,8.33,8.33,0,0,1-7.22-9.32,8.35,8.35,0,0,1,9.32-7.23" class="cls-2"/></clipPath><clipPath id="clip-path-96"><rect width="213.51" height="215.2" x="-292.05" y="-14.48" class="cls-1"/></clipPath><clipPath id="clip-path-97"><rect width="90.05" height="148.46" x="547.39" y="-4.49" class="cls-1"/></clipPath></defs><title>pipeline-2</title><g class="cls-5"><path d="M674.75,373.79H595.54V327.45h79.21a77.42,77.42,0,0,0,55.1-22.83,124.28,124.28,0,0,1,87.88-36.4H912.3a77.42,77.42,0,0,0,55.11-22.82l4.6-4.61a124.28,124.28,0,0,1,87.88-36.4h98.74v46.35h-98.74a77.45,77.45,0,0,0-55.1,22.82l-4.61,4.61a124.28,124.28,0,0,1-87.88,36.4H817.73a77.43,77.43,0,0,0-55.11,22.83,124.22,124.22,0,0,1-87.87,36.39Z" class="cls-6"/><path d="M912.3,268.22a77.42,77.42,0,0,0,55.11-22.82l4.6-4.61a124.28,124.28,0,0,1,87.88-36.4h98.74v46.35h-98.74a77.45,77.45,0,0,0-55.1,22.82l-4.61,4.61a124.28,124.28,0,0,1-87.88,36.4H817.73a77.43,77.43,0,0,0-55.11,22.83,124.22,124.22,0,0,1-87.87,36.39H595.54V327.45h79.21a77.42,77.42,0,0,0,55.1-22.83,124.28,124.28,0,0,1,87.88-36.4Z" class="cls-6"/></g><g class="cls-7"><path d="M666.64,345.68H587.43V299.34h79.21a77.42,77.42,0,0,0,55.1-22.83,124.28,124.28,0,0,1,87.88-36.4h94.57a77.42,77.42,0,0,0,55.11-22.82l4.6-4.61a124.28,124.28,0,0,1,87.88-36.4h98.73v46.35h-98.73a77.38,77.38,0,0,0-55.1,22.82l-4.61,4.61a124.28,124.28,0,0,1-87.88,36.4H809.62a77.46,77.46,0,0,0-55.11,22.82,124.28,124.28,0,0,1-87.87,36.4Z" class="cls-8"/><path d="M904.19,240.11a77.42,77.42,0,0,0,55.11-22.82l4.6-4.61a124.28,124.28,0,0,1,87.88-36.4h98.73v46.35h-98.73a77.38,77.38,0,0,0-55.1,22.82l-4.61,4.61a124.28,124.28,0,0,1-87.88,36.4H809.62a77.46,77.46,0,0,0-55.11,22.82,124.28,124.28,0,0,1-87.87,36.4H587.43V299.34h79.21a77.42,77.42,0,0,0,55.1-22.83,124.28,124.28,0,0,1,87.88-36.4Z" class="cls-8"/></g><g class="cls-9"><path d="M473.25,201.45H393.84a73.31,73.31,0,0,0-73.23,73.22V461.38" class="cls-8"/><path d="M473.25,216.9H393.84a57.84,57.84,0,0,0-57.78,57.77V461.38" class="cls-10"/><path d="M367,461.38V412c0-11.3,1.9-100.46,2.8-142.15a22.05,22.05,0,0,1,21.82-21.58l81.66-.43" class="cls-10"/><path d="M351.52,461.38V274.67a42.32,42.32,0,0,1,42.32-42.32h79.4" class="cls-10"/><rect width="19.12" height="10.73" x="383.4" y="219.93" class="cls-8" transform="translate(618.26 -167.67) rotate(90)"/><rect width="19.12" height="10.73" x="431.61" y="234.76" class="cls-8" transform="translate(681.29 -201.04) rotate(90)"/></g><polyline points="461.94 258.68 461.94 -7.98 513.7 -7.98 513.7 258.6" class="cls-10"/><rect width="58.55" height="15.87" x="458.42" y="200.73" class="cls-8" transform="translate(975.4 417.32) rotate(180)"/><rect width="58.55" height="15.87" x="458.42" y="36.03" class="cls-8" transform="translate(975.4 87.93) rotate(180)"/><polyline points="418.99 269.16 418.99 -8.43 470.75 -8.43 470.75 269.07" class="cls-8"/><rect width="58.55" height="16.7" x="415.47" y="204.27" class="cls-8" transform="translate(889.49 425.23) rotate(180)"/><rect width="58.55" height="16.7" x="415.47" y="15.35" class="cls-8" transform="translate(889.49 47.41) rotate(180)"/><ellipse cx="444.75" cy="122.29" class="cls-11" rx="17.6" ry="11.18"/><ellipse cx="444.75" cy="122.29" class="cls-11" rx="17.6" ry="11.18" transform="translate(116.47 446.31) rotate(-60)"/><ellipse cx="444.75" cy="122.29" class="cls-11" rx="11.18" ry="17.6" transform="translate(-1.56 238.76) rotate(-30)"/><circle cx="444.95" cy="122.37" r="4.15" class="cls-12"/><path d="M595.24,210.48l12.92.51a13.6,13.6,0,0,1-13.57,9.74" class="cls-13"/><g class="cls-14"><g class="cls-16"><g class="cls-17"><circle cx="565.41" cy="164.97" r="5.43" class="cls-18" transform="translate(-19.18 236.79) rotate(-23.27)"/></g></g></g><g class="cls-14"><g class="cls-19"><g class="cls-20"><circle cx="568" cy="160.83" r="5.43" class="cls-18" transform="translate(104.45 526.35) rotate(-54.07)"/></g></g></g><g class="cls-21"><g class="cls-22"><g class="cls-14"><g class="cls-23"><g class="cls-21"><g class="cls-24"><circle cx="563.43" cy="150.18" r="5.43" class="cls-18" transform="translate(115.02 522.92) rotate(-54.66)"/></g></g><g class="cls-24"><circle cx="563.43" cy="150.18" r="5.43" class="cls-25"/></g></g></g></g></g><g class="cls-26"><g class="cls-27"><g class="cls-14"><g class="cls-28"><g class="cls-26"><g class="cls-29"><circle cx="563.59" cy="151.91" r="5.43" class="cls-18" transform="translate(73.31 468.67) rotate(-47.95)"/></g></g><g class="cls-29"><circle cx="563.59" cy="151.91" r="5.43" class="cls-25"/></g></g></g></g></g><g class="cls-30"><g class="cls-27"><g class="cls-14"><g class="cls-31"><g class="cls-30"><g class="cls-32"><path d="M563.46,152.08a5.43,5.43,0,1,0-1-7.61A5.42,5.42,0,0,0,563.46,152.08Z" class="cls-18"/></g></g><g class="cls-32"><circle cx="566.78" cy="147.79" r="5.43" class="cls-25"/></g></g></g></g></g><g class="cls-33"><g class="cls-27"><g class="cls-14"><g class="cls-34"><g class="cls-33"><g class="cls-35"><path d="M566.65,148a5.43,5.43,0,1,0-1-7.62A5.43,5.43,0,0,0,566.65,148Z" class="cls-18"/></g></g><g class="cls-35"><circle cx="569.97" cy="143.68" r="5.43" class="cls-25" transform="translate(33.64 384.21) rotate(-38.3)"/></g></g></g></g></g><g class="cls-14"><g class="cls-36"><g class="cls-37"><path d="M572.09,142.26a5.43,5.43,0,1,0-1-7.61A5.44,5.44,0,0,0,572.09,142.26Z" class="cls-18"/></g></g><g class="cls-37"><circle cx="575.42" cy="137.97" r="5.43" class="cls-25" transform="translate(38.35 386.36) rotate(-38.3)"/></g></g><g class="cls-14"><g class="cls-38"><g class="cls-39"><path d="M575.28,138.14a5.42,5.42,0,1,0-1-7.61A5.43,5.43,0,0,0,575.28,138.14Z" class="cls-18"/></g></g><circle cx="578.61" cy="133.86" r="5.43" class="cls-25" transform="translate(151.14 546.14) rotate(-56.99)"/></g><g class="cls-14"><g class="cls-40"><g class="cls-41"><path d="M592.69,111l-8,10.36a2.93,2.93,0,0,0,4.63,3.59l7.92-10.22a13.59,13.59,0,1,1-4.52-3.73Z" class="cls-18"/></g></g><path d="M592.69,111l-8,10.36a2.93,2.93,0,0,0,4.63,3.59l7.92-10.22a13.59,13.59,0,1,1-4.52-3.73Z" class="cls-6"/></g><path d="M494.41,209.62l26.53,42.16c8.14,1.4,21.32-62.54,21.32-62.54.28-1.64,5.25-5.48,5.25-5.48l30.78-33.5a3.9,3.9,0,0,0-.25-5.52l-9.95-9a3.89,3.89,0,0,0-5.51.27Z" class="cls-13"/><g class="cls-42"><g class="cls-43"><g class="cls-14"><g class="cls-44"><g class="cls-42"><g class="cls-45"><circle cx="497.08" cy="185.76" r="5.43" class="cls-18"/></g></g><g class="cls-45"><circle cx="497.08" cy="185.76" r="5.43" class="cls-25"/></g></g></g></g></g><g class="cls-46"><g class="cls-47"><g class="cls-14"><g class="cls-48"><g class="cls-46"><g class="cls-49"><circle cx="526.3" cy="148.82" r="5.43" class="cls-18" transform="translate(220.6 602.35) rotate(-71.81)"/></g></g><g class="cls-49"><circle cx="526.3" cy="148.82" r="5.43" class="cls-25"/></g></g></g></g></g><g class="cls-50"><g class="cls-47"><g class="cls-14"><g class="cls-51"><g class="cls-50"><g class="cls-52"><circle cx="526.3" cy="154.25" r="5.43" class="cls-18" transform="translate(138.72 542.28) rotate(-61.37)"/></g></g><g class="cls-52"><circle cx="526.3" cy="154.25" r="5.43" class="cls-25"/></g></g></g></g></g><g class="cls-14"><g class="cls-48"><g class="cls-46"><g class="cls-49"><circle cx="526.3" cy="148.82" r="5.43" class="cls-18" transform="translate(220.6 602.35) rotate(-71.81)"/></g></g><circle cx="526.3" cy="148.82" r="5.43" class="cls-25"/></g></g><g class="cls-14"><g class="cls-53"><g class="cls-54"><g class="cls-55"><circle cx="526.3" cy="143.4" r="5.43" class="cls-18" transform="translate(34.75 379.9) rotate(-40.93)"/></g></g><circle cx="526.3" cy="143.4" r="5.43" class="cls-25"/></g></g><path d="M560.92,250.86l.29-58.77c0-19.68-13.83-35.63-30.9-35.63s-30.89,15.95-30.89,35.63v51.65c0,7.73,5.43,14,12.13,14C511.55,257.73,560.92,258.58,560.92,250.86Z" class="cls-6"/><g class="cls-56"><g class="cls-14"><line x1="518.15" x2="571.51" y1="250.33" y2="167.5" class="cls-25"/><line x1="522.76" x2="576.12" y1="250.33" y2="167.5" class="cls-25"/><line x1="527.37" x2="580.73" y1="250.33" y2="167.5" class="cls-25"/><line x1="531.98" x2="585.35" y1="250.33" y2="167.5" class="cls-25"/><line x1="536.6" x2="589.96" y1="250.33" y2="167.5" class="cls-25"/><line x1="541.21" x2="594.57" y1="250.33" y2="167.5" class="cls-25"/><line x1="545.82" x2="599.18" y1="250.33" y2="167.5" class="cls-25"/><line x1="550.43" x2="603.8" y1="250.33" y2="167.5" class="cls-25"/><line x1="481.25" x2="534.61" y1="250.33" y2="167.5" class="cls-25"/><line x1="485.86" x2="539.22" y1="250.33" y2="167.5" class="cls-25"/><line x1="490.47" x2="543.83" y1="250.33" y2="167.5" class="cls-25"/><line x1="495.08" x2="548.45" y1="250.33" y2="167.5" class="cls-25"/><line x1="499.7" x2="553.06" y1="250.33" y2="167.5" class="cls-25"/><line x1="504.31" x2="557.67" y1="250.33" y2="167.5" class="cls-25"/><line x1="508.92" x2="562.28" y1="250.33" y2="167.5" class="cls-25"/><line x1="513.53" x2="566.9" y1="250.33" y2="167.5" class="cls-25"/><line x1="555.05" x2="608.41" y1="250.33" y2="167.5" class="cls-25"/><line x1="559.66" x2="613.02" y1="250.33" y2="167.5" class="cls-25"/><line x1="564.27" x2="617.63" y1="250.33" y2="167.5" class="cls-25"/><line x1="568.88" x2="622.25" y1="250.33" y2="167.5" class="cls-25"/></g></g><path d="M559.18,180.66a6.28,6.28,0,0,0-5.45-1.88c-8.36,0-15.13,10.51-15.13,23.49v31.19c0,8.8,4.6,15.94,10.27,15.94h11.46" class="cls-57"/><path d="M518.44,258.77H504.6a15,15,0,0,1-15-15V192.15c0-.23,0-.46,0-.69.19-8.67,3.29-16.75,9.73-24.17a36.6,36.6,0,0,1,18.15-10.7c6-.76,11.57.26,16.22,1,7.82,10.12,24.59,73.78-.78,90l-6.05,6.3" class="cls-13"/><path d="M533.83,159.9l-13.26.58c-1.55.11-2.87-.73-3-1.87l-.42-6c-.14-1.85,2.81-3,4.67-1.81l13,4.49A2.49,2.49,0,0,1,533.83,159.9Z" class="cls-6"/><path d="M505.92,92.91c-.64-.59-13.35-6.54-14.85-7.18-7.4-3.18-2.91-1.37-13.78-5.76-17.76-7.18-26-17.06-23.78-22.65a4.9,4.9,0,0,1,.81-1.34c2.94-3.54,12.15-5.21,27.07,5,13,8.89,16.89,13.78,19.16,15.94,1.81,1.72-.36.58,3.23,3,4.17-2.64,4.33,7.27,8.43,8" class="cls-6"/><rect width="52.22" height="63.86" x="489.28" y="79.63" class="cls-6" rx="21.25" transform="translate(7.88 254.76) rotate(-27.97)"/><path d="M538.26,135c-4.18,2.22-10.52-1.51-14.57-9.14l-7.93-14.93L508.3,96.88c-4.05-7.63-3.27-15.14.91-17.37" class="cls-57"/><path d="M534.12,111.28c3.93,2.53,6.88,2,10,0" class="cls-57"/><path d="M541.4,113.28l1.71,3.24a2.23,2.23,0,0,0,3,.92" class="cls-25"/><path d="M530.33,88.41h0a11.36,11.36,0,0,1,11.36,11.36v4.18a0,0,0,0,1,0,0H519a0,0,0,0,1,0,0V99.77A11.36,11.36,0,0,1,530.33,88.41Z" class="cls-58" transform="translate(1043.82 -67.62) rotate(152.03)"/><path d="M517.63,97.26l-18.55,9.86a7.28,7.28,0,0,0-.17,12.8c.23.13.48.25.73.37" class="cls-57"/><path d="M480.41,68.65c-11,11.72-5.16,26.7-1.7,33.28a3.74,3.74,0,0,0,5.2,1.49c9.68-5.67,42.85-26,42.85-26l2.57-1.63c1.61-1,.81-3.15-1.05-3.6-2.47-.61-6.36.72-6.36.72s-5.94-7.65-7.63-9.08C504.69,55.73,489,59.51,480.41,68.65Z" class="cls-6"/><path d="M491.3,100.69c-.83-.26-4.67-1.42-6.29-1.37-8.05.25-3.22,0-14.93.63-19.13,1-30.81-4.42-31.14-10.44a4.86,4.86,0,0,1,.17-1.55c1.15-4.45,8.8-9.87,26.65-6.93,15.5,2.56,21.09,5.47,24.11,6.32,6.77,1.91,11.21,6.1,15.24,5.05" class="cls-59"/><circle cx="530.32" cy="95.97" r="4.11" class="cls-57"/><g class="cls-60"><g class="cls-61"><g class="cls-14"><g class="cls-62"><g class="cls-60"><g class="cls-63"><circle cx="559.72" cy="204.1" r="5.43" class="cls-18"/></g></g><g class="cls-63"><circle cx="559.72" cy="204.1" r="5.43" class="cls-25"/></g></g></g></g></g><g class="cls-64"><g class="cls-61"><g class="cls-14"><g class="cls-65"><g class="cls-64"><g class="cls-66"><circle cx="564.89" cy="204.76" r="5.43" class="cls-18"/></g></g><g class="cls-66"><circle cx="564.89" cy="204.76" r="5.43" class="cls-25"/></g></g></g></g></g><g class="cls-14"><path d="M579.08,210.9a4.7,4.7,0,1,1-2.28-8.38,4.75,4.75,0,0,1,2.13.84" class="cls-25"/></g><g class="cls-14"><path d="M583.08,212.38a5.33,5.33,0,0,1-2.15.15,5.42,5.42,0,1,1,1.36-10.76" class="cls-6"/></g><g class="cls-14"><path d="M595.46,204.63a2.93,2.93,0,1,0-.22,5.85" class="cls-6"/><path d="M594.59,220.73a13.59,13.59,0,1,1,1-27.16" class="cls-25"/></g><path d="M569.81,197l-26.75-3.82a3.51,3.51,0,0,1-2.12-1.14l-15.2-16.88a9.8,9.8,0,0,0-13.85-.73h0a9.81,9.81,0,0,0-.73,13.85L530.3,209.5a4.67,4.67,0,0,0,.45.44,4.82,4.82,0,0,0,3,1.68L567,216.38a4.81,4.81,0,0,0,5.44-4.08l1.41-9.89A4.82,4.82,0,0,0,569.81,197Z" class="cls-6"/><path d="M599.87,167.7a9.19,9.19,0,0,0-3.24,6.26h0a9.41,9.41,0,0,0,.32,3.29l5.41-1.72Z" class="cls-10"/><polygon points="606.65 190.95 606.65 190.95 605.95 212.45 597.59 211.73 600.54 190.43 606.65 190.95" class="cls-8"/><path d="M606.55,194l-6.43-.55Z" class="cls-10"/><path d="M599.7,196.52l6.75.58Z" class="cls-8"/><path d="M599.27,199.56l7.08.6Z" class="cls-10"/><path d="M598.85,202.6l7.4.63Z" class="cls-10"/><path d="M598.43,205.65l7.72.66Z" class="cls-10"/><path d="M598,208.69l8,.69Z" class="cls-10"/><path d="M606.65,191l-6.11-.52h0a18.38,18.38,0,0,0-4.06-13.17l14-4.43-3-9.52a9.14,9.14,0,0,1,6.25,3.24h0a9.14,9.14,0,0,1,2.13,6.71,8.64,8.64,0,0,1-3,5.9A17.29,17.29,0,0,0,606.65,191Z" class="cls-8"/><path d="M606,212.45l-8.37-.72-1.05,7.61a4.6,4.6,0,0,0,9.17.79Z" class="cls-8"/><polygon points="607.42 180.07 603.04 181.46 601.38 178.77 607.23 176.91 607.42 180.07" class="cls-10"/><path d="M595.64,193.57a13.59,13.59,0,0,1,12.92,11.57l-13.1-.51" class="cls-13"/><path d="M624,248H4a1.5,1.5,0,0,1,0-3H624a1.5,1.5,0,0,1,0,3Z" class="cls-71"/><g class="cls-85"><path d="M136.6,84.92H-150.29a17.54,17.54,0,0,1-17.53-17.53V6.83c0-31-12.32-69-45-92.17-19.42-13.77-55.81-21.85-86.83-21.85l28.53-2.53v99h-9.24A17.56,17.56,0,0,1-262.8,6.83V67.39A112.64,112.64,0,0,0-150.29,179.9H136.6" class="cls-86"/><path d="M-293-34.45h12.7A41.33,41.33,0,0,1-239.06,6.83V67.39a88.88,88.88,0,0,0,88.77,88.77H136.6" class="cls-87"/><path d="M136.6,108.67H60.68c-17.36,0-154.36-2.92-218.43-4.3a33.9,33.9,0,0,1-33.16-33.54l-.66-64a88.87,88.87,0,0,0-88.77-88.77H-293" class="cls-87"/><path d="M136.6,132.41H-150.28a65,65,0,0,1-65-65V6.83a65,65,0,0,0-65-65H-293" class="cls-87"/></g><g class="cls-88"><path d="M551.65-15.37V64a73.31,73.31,0,0,0,73.23,73.23H811.59" class="cls-8"/><path d="M811.59,75.45H624.88A11.43,11.43,0,0,1,613.47,64v-79.4" class="cls-8"/><path d="M567.11-15.37V64a57.84,57.84,0,0,0,57.77,57.78H811.59" class="cls-10"/><path d="M811.59,90.9H762.18c-11.3,0-100.46-1.9-142.16-2.8a22.06,22.06,0,0,1-21.58-21.82L598-15.37" class="cls-10"/><path d="M811.59,106.36H624.88A42.33,42.33,0,0,1,582.56,64v-79.4" class="cls-10"/><rect width="19.12" height="10.73" x="549.94" y="59.54" class="cls-8"/><rect width="19.12" height="10.73" x="580.78" y="11.34" class="cls-8"/></g></svg>